ISO-10303-21;
HEADER;
/*Generated by software containing ST-Developer
 * from STEP Tools, Inc. (www.steptools.com) 
 */
/*OPTION: using custom renumber hook */
/*description */
/*implementation_level */
FILE_DESCRIPTION(('STEP AP242 Edition 2','STEP AP242 Edition 2''CAx-IF Rec.Pracs.---Representation and Presentation of Product Manufa
cturing Information (PMI)---4.0---2014-10-13','STEP AP242 Edition 2''CAx-IF Rec.Pracs.---Representation and Presentation of Product Manufa
cturing Information (PMI)---4.0---2014-10-13''CAx-IF Rec.Pracs.---3D Tessellated Geometry---0.4---2014-09-14','STEP AP242 Edition 2''CAx-IF Rec.Pracs.---Representation and Presentation of Product Manufa
cturing Information (PMI)---4.0---2014-10-13''CAx-IF Rec.Pracs.---3D Tessellated Geometry---0.4---2014-09-14''2;1','STEP AP242 Edition 2''CAx-IF Rec.Pracs.---Representation and Presentation of Product Manufa
cturing Information (PMI)---4.0---2014-10-13''CAx-IF Rec.Pracs.---3D Tessellated Geometry---0.4---2014-09-14''2;1''CAx-IF Rec.Pracs.---User Defined Attributes---1.5---2016-08-15'),'2;1');
/*name */
/*time_stamp */
/*author */
/*organization */
/*preprocessor_version */
/*originating_system */
/*authorisation */
FILE_NAME('/vol/tmp/translate-13839596215815676136/Visual Unit.step','2026-04-01T01:59:46',(''),(''),'ST-DEVELOPER v20','ONSHAPE BY PTC INC, 1.212','  ');
FILE_SCHEMA(('AP242_MANAGED_MODEL_BASED_3D_ENGINEERING_MIM_LF { 1 0 10303 442 3 1 4 }'));
ENDSEC;
DATA;
#10=SHAPE_REPRESENTATION_RELATIONSHIP('','',#992,#11);
#11=ADVANCED_BREP_SHAPE_REPRESENTATION('',(#990),#1635);
#12=CONICAL_SURFACE('',#1025,0.0099695,0.785398163397448);
#13=CONICAL_SURFACE('',#1077,0.05461,0.785398163397452);
#14=CONICAL_SURFACE('',#1078,0.059055,0.785398163397458);
#15=CYLINDRICAL_SURFACE('',#1002,0.0118745);
#16=CYLINDRICAL_SURFACE('',#1028,0.059055);
#17=CYLINDRICAL_SURFACE('',#1033,0.056515);
#18=CYLINDRICAL_SURFACE('',#1059,0.01016);
#19=CYLINDRICAL_SURFACE('',#1061,0.0017742851114281);
#20=CYLINDRICAL_SURFACE('',#1063,0.0017742851114281);
#21=CYLINDRICAL_SURFACE('',#1065,0.00177428511142809);
#22=CYLINDRICAL_SURFACE('',#1067,0.0017742851114281);
#23=CYLINDRICAL_SURFACE('',#1068,0.0053721);
#24=ELLIPSE('',#996,0.0835163819259431,0.059055);
#25=ELLIPSE('',#998,0.0835163819259431,0.059055);
#26=ELLIPSE('',#1007,0.0167930789463993,0.0118745);
#27=ELLIPSE('',#1022,0.0835163819259432,0.059055);
#28=B_SPLINE_CURVE_WITH_KNOTS('',3,(#1362,#1363,#1364,#1365),.UNSPECIFIED.,.F.,.F.,(4,4),(0.,0.00320832833433539),.UNSPECIFIED.);
#29=B_SPLINE_CURVE_WITH_KNOTS('',3,(#1374,#1375,#1376,#1377),.UNSPECIFIED.,.F.,.F.,(4,4),(5.8986975498274E-18,0.00359663113969271),.UNSPECIFIED.);
#30=LINE('',#1356,#130);
#31=LINE('',#1358,#131);
#32=LINE('',#1360,#132);
#33=LINE('',#1369,#133);
#34=LINE('',#1379,#134);
#35=LINE('',#1381,#135);
#36=LINE('',#1383,#136);
#37=LINE('',#1387,#137);
#38=LINE('',#1389,#138);
#39=LINE('',#1392,#139);
#40=LINE('',#1394,#140);
#41=LINE('',#1396,#141);
#42=LINE('',#1398,#142);
#43=LINE('',#1399,#143);
#44=LINE('',#1401,#144);
#45=LINE('',#1406,#145);
#46=LINE('',#1411,#146);
#47=LINE('',#1418,#147);
#48=LINE('',#1422,#148);
#49=LINE('',#1425,#149);
#50=LINE('',#1428,#150);
#51=LINE('',#1430,#151);
#52=LINE('',#1432,#152);
#53=LINE('',#1434,#153);
#54=LINE('',#1435,#154);
#55=LINE('',#1437,#155);
#56=LINE('',#1438,#156);
#57=LINE('',#1442,#157);
#58=LINE('',#1444,#158);
#59=LINE('',#1446,#159);
#60=LINE('',#1448,#160);
#61=LINE('',#1450,#161);
#62=LINE('',#1452,#162);
#63=LINE('',#1454,#163);
#64=LINE('',#1455,#164);
#65=LINE('',#1461,#165);
#66=LINE('',#1464,#166);
#67=LINE('',#1468,#167);
#68=LINE('',#1470,#168);
#69=LINE('',#1472,#169);
#70=LINE('',#1474,#170);
#71=LINE('',#1476,#171);
#72=LINE('',#1478,#172);
#73=LINE('',#1480,#173);
#74=LINE('',#1482,#174);
#75=LINE('',#1484,#175);
#76=LINE('',#1486,#176);
#77=LINE('',#1488,#177);
#78=LINE('',#1502,#178);
#79=LINE('',#1505,#179);
#80=LINE('',#1507,#180);
#81=LINE('',#1509,#181);
#82=LINE('',#1513,#182);
#83=LINE('',#1516,#183);
#84=LINE('',#1517,#184);
#85=LINE('',#1519,#185);
#86=LINE('',#1521,#186);
#87=LINE('',#1524,#187);
#88=LINE('',#1525,#188);
#89=LINE('',#1527,#189);
#90=LINE('',#1529,#190);
#91=LINE('',#1530,#191);
#92=LINE('',#1532,#192);
#93=LINE('',#1534,#193);
#94=LINE('',#1536,#194);
#95=LINE('',#1538,#195);
#96=LINE('',#1542,#196);
#97=LINE('',#1544,#197);
#98=LINE('',#1545,#198);
#99=LINE('',#1550,#199);
#100=LINE('',#1554,#200);
#101=LINE('',#1558,#201);
#102=LINE('',#1562,#202);
#103=LINE('',#1563,#203);
#104=LINE('',#1565,#204);
#105=LINE('',#1567,#205);
#106=LINE('',#1568,#206);
#107=LINE('',#1572,#207);
#108=LINE('',#1574,#208);
#109=LINE('',#1576,#209);
#110=LINE('',#1580,#210);
#111=LINE('',#1581,#211);
#112=LINE('',#1583,#212);
#113=LINE('',#1588,#213);
#114=LINE('',#1592,#214);
#115=LINE('',#1596,#215);
#116=LINE('',#1602,#216);
#117=LINE('',#1603,#217);
#118=LINE('',#1605,#218);
#119=LINE('',#1607,#219);
#120=LINE('',#1609,#220);
#121=LINE('',#1611,#221);
#122=LINE('',#1613,#222);
#123=LINE('',#1615,#223);
#124=LINE('',#1619,#224);
#125=LINE('',#1621,#225);
#126=LINE('',#1623,#226);
#127=LINE('',#1625,#227);
#128=LINE('',#1627,#228);
#129=LINE('',#1629,#229);
#130=VECTOR('',#1085,1.);
#131=VECTOR('',#1086,1.);
#132=VECTOR('',#1087,1.);
#133=VECTOR('',#1090,1.);
#134=VECTOR('',#1095,1.);
#135=VECTOR('',#1096,1.);
#136=VECTOR('',#1097,1.);
#137=VECTOR('',#1100,1.);
#138=VECTOR('',#1103,1.);
#139=VECTOR('',#1104,1.);
#140=VECTOR('',#1105,1.);
#141=VECTOR('',#1106,1.);
#142=VECTOR('',#1109,1.);
#143=VECTOR('',#1110,1.);
#144=VECTOR('',#1113,1.);
#145=VECTOR('',#1116,1.);
#146=VECTOR('',#1121,1.);
#147=VECTOR('',#1128,1.);
#148=VECTOR('',#1131,1.);
#149=VECTOR('',#1136,1.);
#150=VECTOR('',#1137,1.);
#151=VECTOR('',#1138,1.);
#152=VECTOR('',#1139,1.);
#153=VECTOR('',#1142,1.);
#154=VECTOR('',#1143,1.);
#155=VECTOR('',#1146,1.);
#156=VECTOR('',#1147,1.);
#157=VECTOR('',#1154,1.);
#158=VECTOR('',#1155,1.);
#159=VECTOR('',#1156,1.);
#160=VECTOR('',#1159,1.);
#161=VECTOR('',#1160,1.);
#162=VECTOR('',#1161,1.);
#163=VECTOR('',#1164,1.);
#164=VECTOR('',#1165,1.);
#165=VECTOR('',#1174,1.);
#166=VECTOR('',#1179,1.);
#167=VECTOR('',#1186,1.);
#168=VECTOR('',#1187,1.);
#169=VECTOR('',#1188,1.);
#170=VECTOR('',#1189,1.);
#171=VECTOR('',#1190,1.);
#172=VECTOR('',#1191,1.);
#173=VECTOR('',#1192,1.);
#174=VECTOR('',#1193,1.);
#175=VECTOR('',#1194,1.);
#176=VECTOR('',#1195,1.);
#177=VECTOR('',#1196,1.);
#178=VECTOR('',#1215,1.);
#179=VECTOR('',#1216,1.);
#180=VECTOR('',#1217,1.);
#181=VECTOR('',#1218,1.);
#182=VECTOR('',#1223,1.);
#183=VECTOR('',#1224,1.);
#184=VECTOR('',#1225,1.);
#185=VECTOR('',#1226,1.);
#186=VECTOR('',#1229,1.);
#187=VECTOR('',#1230,1.);
#188=VECTOR('',#1231,1.);
#189=VECTOR('',#1232,1.);
#190=VECTOR('',#1233,1.);
#191=VECTOR('',#1234,1.);
#192=VECTOR('',#1235,1.);
#193=VECTOR('',#1238,1.);
#194=VECTOR('',#1239,1.);
#195=VECTOR('',#1240,1.);
#196=VECTOR('',#1245,1.);
#197=VECTOR('',#1246,1.);
#198=VECTOR('',#1247,1.);
#199=VECTOR('',#1252,1.);
#200=VECTOR('',#1255,1.);
#201=VECTOR('',#1258,1.);
#202=VECTOR('',#1261,1.);
#203=VECTOR('',#1262,1.);
#204=VECTOR('',#1263,1.);
#205=VECTOR('',#1266,1.);
#206=VECTOR('',#1267,1.);
#207=VECTOR('',#1272,1.);
#208=VECTOR('',#1273,1.);
#209=VECTOR('',#1274,1.);
#210=VECTOR('',#1279,1.);
#211=VECTOR('',#1280,1.);
#212=VECTOR('',#1283,1.);
#213=VECTOR('',#1286,1.);
#214=VECTOR('',#1289,1.);
#215=VECTOR('',#1292,1.);
#216=VECTOR('',#1301,1.);
#217=VECTOR('',#1302,1.);
#218=VECTOR('',#1305,1.);
#219=VECTOR('',#1308,1.);
#220=VECTOR('',#1311,1.);
#221=VECTOR('',#1314,1.);
#222=VECTOR('',#1317,1.);
#223=VECTOR('',#1320,1.);
#224=VECTOR('',#1327,1.);
#225=VECTOR('',#1330,1.);
#226=VECTOR('',#1333,1.);
#227=VECTOR('',#1336,1.);
#228=VECTOR('',#1339,1.);
#229=VECTOR('',#1342,1.);
#230=ORIENTED_EDGE('',*,*,#496,.T.);
#231=ORIENTED_EDGE('',*,*,#497,.T.);
#232=ORIENTED_EDGE('',*,*,#498,.F.);
#233=ORIENTED_EDGE('',*,*,#499,.F.);
#234=ORIENTED_EDGE('',*,*,#500,.T.);
#235=ORIENTED_EDGE('',*,*,#501,.F.);
#236=ORIENTED_EDGE('',*,*,#502,.F.);
#237=ORIENTED_EDGE('',*,*,#503,.T.);
#238=ORIENTED_EDGE('',*,*,#504,.T.);
#239=ORIENTED_EDGE('',*,*,#505,.T.);
#240=ORIENTED_EDGE('',*,*,#506,.T.);
#241=ORIENTED_EDGE('',*,*,#507,.T.);
#242=ORIENTED_EDGE('',*,*,#508,.T.);
#243=ORIENTED_EDGE('',*,*,#509,.T.);
#244=ORIENTED_EDGE('',*,*,#510,.T.);
#245=ORIENTED_EDGE('',*,*,#511,.T.);
#246=ORIENTED_EDGE('',*,*,#512,.F.);
#247=ORIENTED_EDGE('',*,*,#513,.T.);
#248=ORIENTED_EDGE('',*,*,#507,.F.);
#249=ORIENTED_EDGE('',*,*,#514,.T.);
#250=ORIENTED_EDGE('',*,*,#513,.F.);
#251=ORIENTED_EDGE('',*,*,#515,.T.);
#252=ORIENTED_EDGE('',*,*,#516,.F.);
#253=ORIENTED_EDGE('',*,*,#517,.T.);
#254=ORIENTED_EDGE('',*,*,#518,.T.);
#255=ORIENTED_EDGE('',*,*,#519,.F.);
#256=ORIENTED_EDGE('',*,*,#520,.T.);
#257=ORIENTED_EDGE('',*,*,#521,.F.);
#258=ORIENTED_EDGE('',*,*,#522,.T.);
#259=ORIENTED_EDGE('',*,*,#512,.T.);
#260=ORIENTED_EDGE('',*,*,#523,.T.);
#261=ORIENTED_EDGE('',*,*,#496,.F.);
#262=ORIENTED_EDGE('',*,*,#524,.F.);
#263=ORIENTED_EDGE('',*,*,#525,.T.);
#264=ORIENTED_EDGE('',*,*,#526,.T.);
#265=ORIENTED_EDGE('',*,*,#527,.F.);
#266=ORIENTED_EDGE('',*,*,#520,.F.);
#267=ORIENTED_EDGE('',*,*,#528,.T.);
#268=ORIENTED_EDGE('',*,*,#529,.F.);
#269=ORIENTED_EDGE('',*,*,#530,.F.);
#270=ORIENTED_EDGE('',*,*,#531,.T.);
#271=ORIENTED_EDGE('',*,*,#532,.T.);
#272=ORIENTED_EDGE('',*,*,#525,.F.);
#273=ORIENTED_EDGE('',*,*,#533,.F.);
#274=ORIENTED_EDGE('',*,*,#529,.T.);
#275=ORIENTED_EDGE('',*,*,#534,.F.);
#276=ORIENTED_EDGE('',*,*,#531,.F.);
#277=ORIENTED_EDGE('',*,*,#535,.T.);
#278=ORIENTED_EDGE('',*,*,#527,.T.);
#279=ORIENTED_EDGE('',*,*,#530,.T.);
#280=ORIENTED_EDGE('',*,*,#533,.T.);
#281=ORIENTED_EDGE('',*,*,#524,.T.);
#282=ORIENTED_EDGE('',*,*,#535,.F.);
#283=ORIENTED_EDGE('',*,*,#528,.F.);
#284=ORIENTED_EDGE('',*,*,#534,.T.);
#285=ORIENTED_EDGE('',*,*,#526,.F.);
#286=ORIENTED_EDGE('',*,*,#532,.F.);
#287=ORIENTED_EDGE('',*,*,#536,.F.);
#288=ORIENTED_EDGE('',*,*,#537,.F.);
#289=ORIENTED_EDGE('',*,*,#538,.T.);
#290=ORIENTED_EDGE('',*,*,#516,.T.);
#291=ORIENTED_EDGE('',*,*,#539,.F.);
#292=ORIENTED_EDGE('',*,*,#540,.F.);
#293=ORIENTED_EDGE('',*,*,#541,.T.);
#294=ORIENTED_EDGE('',*,*,#537,.T.);
#295=ORIENTED_EDGE('',*,*,#542,.T.);
#296=ORIENTED_EDGE('',*,*,#518,.F.);
#297=ORIENTED_EDGE('',*,*,#543,.F.);
#298=ORIENTED_EDGE('',*,*,#540,.T.);
#299=ORIENTED_EDGE('',*,*,#538,.F.);
#300=ORIENTED_EDGE('',*,*,#541,.F.);
#301=ORIENTED_EDGE('',*,*,#543,.T.);
#302=ORIENTED_EDGE('',*,*,#517,.F.);
#303=ORIENTED_EDGE('',*,*,#536,.T.);
#304=ORIENTED_EDGE('',*,*,#519,.T.);
#305=ORIENTED_EDGE('',*,*,#542,.F.);
#306=ORIENTED_EDGE('',*,*,#539,.T.);
#307=ORIENTED_EDGE('',*,*,#544,.F.);
#308=ORIENTED_EDGE('',*,*,#545,.T.);
#309=ORIENTED_EDGE('',*,*,#521,.T.);
#310=ORIENTED_EDGE('',*,*,#502,.T.);
#311=ORIENTED_EDGE('',*,*,#545,.F.);
#312=ORIENTED_EDGE('',*,*,#546,.T.);
#313=ORIENTED_EDGE('',*,*,#509,.F.);
#314=ORIENTED_EDGE('',*,*,#547,.F.);
#315=ORIENTED_EDGE('',*,*,#547,.T.);
#316=ORIENTED_EDGE('',*,*,#508,.F.);
#317=ORIENTED_EDGE('',*,*,#515,.F.);
#318=ORIENTED_EDGE('',*,*,#522,.F.);
#319=ORIENTED_EDGE('',*,*,#505,.F.);
#320=ORIENTED_EDGE('',*,*,#548,.T.);
#321=ORIENTED_EDGE('',*,*,#499,.T.);
#322=ORIENTED_EDGE('',*,*,#549,.F.);
#323=ORIENTED_EDGE('',*,*,#550,.T.);
#324=ORIENTED_EDGE('',*,*,#551,.F.);
#325=ORIENTED_EDGE('',*,*,#552,.F.);
#326=ORIENTED_EDGE('',*,*,#553,.T.);
#327=ORIENTED_EDGE('',*,*,#554,.T.);
#328=ORIENTED_EDGE('',*,*,#555,.T.);
#329=ORIENTED_EDGE('',*,*,#556,.F.);
#330=ORIENTED_EDGE('',*,*,#557,.F.);
#331=ORIENTED_EDGE('',*,*,#558,.T.);
#332=ORIENTED_EDGE('',*,*,#559,.F.);
#333=ORIENTED_EDGE('',*,*,#560,.F.);
#334=ORIENTED_EDGE('',*,*,#501,.T.);
#335=ORIENTED_EDGE('',*,*,#561,.T.);
#336=ORIENTED_EDGE('',*,*,#503,.F.);
#337=ORIENTED_EDGE('',*,*,#546,.F.);
#338=ORIENTED_EDGE('',*,*,#544,.T.);
#339=ORIENTED_EDGE('',*,*,#562,.F.);
#340=ORIENTED_EDGE('',*,*,#560,.T.);
#341=ORIENTED_EDGE('',*,*,#563,.T.);
#342=ORIENTED_EDGE('',*,*,#562,.T.);
#343=ORIENTED_EDGE('',*,*,#564,.T.);
#344=ORIENTED_EDGE('',*,*,#565,.F.);
#345=ORIENTED_EDGE('',*,*,#566,.F.);
#346=ORIENTED_EDGE('',*,*,#567,.T.);
#347=ORIENTED_EDGE('',*,*,#568,.F.);
#348=ORIENTED_EDGE('',*,*,#569,.F.);
#349=ORIENTED_EDGE('',*,*,#570,.T.);
#350=ORIENTED_EDGE('',*,*,#571,.T.);
#351=ORIENTED_EDGE('',*,*,#557,.T.);
#352=ORIENTED_EDGE('',*,*,#572,.T.);
#353=ORIENTED_EDGE('',*,*,#573,.T.);
#354=ORIENTED_EDGE('',*,*,#574,.F.);
#355=ORIENTED_EDGE('',*,*,#575,.T.);
#356=ORIENTED_EDGE('',*,*,#572,.F.);
#357=ORIENTED_EDGE('',*,*,#556,.T.);
#358=ORIENTED_EDGE('',*,*,#576,.F.);
#359=ORIENTED_EDGE('',*,*,#577,.F.);
#360=ORIENTED_EDGE('',*,*,#578,.F.);
#361=ORIENTED_EDGE('',*,*,#552,.T.);
#362=ORIENTED_EDGE('',*,*,#579,.T.);
#363=ORIENTED_EDGE('',*,*,#580,.T.);
#364=ORIENTED_EDGE('',*,*,#551,.T.);
#365=ORIENTED_EDGE('',*,*,#581,.T.);
#366=ORIENTED_EDGE('',*,*,#582,.T.);
#367=ORIENTED_EDGE('',*,*,#583,.T.);
#368=ORIENTED_EDGE('',*,*,#579,.F.);
#369=ORIENTED_EDGE('',*,*,#584,.T.);
#370=ORIENTED_EDGE('',*,*,#559,.T.);
#371=ORIENTED_EDGE('',*,*,#585,.T.);
#372=ORIENTED_EDGE('',*,*,#586,.T.);
#373=ORIENTED_EDGE('',*,*,#549,.T.);
#374=ORIENTED_EDGE('',*,*,#498,.T.);
#375=ORIENTED_EDGE('',*,*,#587,.T.);
#376=ORIENTED_EDGE('',*,*,#510,.F.);
#377=ORIENTED_EDGE('',*,*,#514,.F.);
#378=ORIENTED_EDGE('',*,*,#506,.F.);
#379=ORIENTED_EDGE('',*,*,#588,.F.);
#380=ORIENTED_EDGE('',*,*,#589,.F.);
#381=ORIENTED_EDGE('',*,*,#590,.F.);
#382=ORIENTED_EDGE('',*,*,#591,.F.);
#383=ORIENTED_EDGE('',*,*,#592,.F.);
#384=ORIENTED_EDGE('',*,*,#593,.F.);
#385=ORIENTED_EDGE('',*,*,#594,.F.);
#386=ORIENTED_EDGE('',*,*,#595,.F.);
#387=ORIENTED_EDGE('',*,*,#596,.T.);
#388=ORIENTED_EDGE('',*,*,#597,.T.);
#389=ORIENTED_EDGE('',*,*,#574,.T.);
#390=ORIENTED_EDGE('',*,*,#598,.F.);
#391=ORIENTED_EDGE('',*,*,#565,.T.);
#392=ORIENTED_EDGE('',*,*,#599,.T.);
#393=ORIENTED_EDGE('',*,*,#554,.F.);
#394=ORIENTED_EDGE('',*,*,#600,.F.);
#395=ORIENTED_EDGE('',*,*,#566,.T.);
#396=ORIENTED_EDGE('',*,*,#598,.T.);
#397=ORIENTED_EDGE('',*,*,#553,.F.);
#398=ORIENTED_EDGE('',*,*,#578,.T.);
#399=ORIENTED_EDGE('',*,*,#601,.T.);
#400=ORIENTED_EDGE('',*,*,#602,.T.);
#401=ORIENTED_EDGE('',*,*,#603,.F.);
#402=ORIENTED_EDGE('',*,*,#604,.F.);
#403=ORIENTED_EDGE('',*,*,#568,.T.);
#404=ORIENTED_EDGE('',*,*,#605,.T.);
#405=ORIENTED_EDGE('',*,*,#602,.F.);
#406=ORIENTED_EDGE('',*,*,#606,.F.);
#407=ORIENTED_EDGE('',*,*,#576,.T.);
#408=ORIENTED_EDGE('',*,*,#555,.F.);
#409=ORIENTED_EDGE('',*,*,#599,.F.);
#410=ORIENTED_EDGE('',*,*,#607,.F.);
#411=ORIENTED_EDGE('',*,*,#608,.F.);
#412=ORIENTED_EDGE('',*,*,#609,.F.);
#413=ORIENTED_EDGE('',*,*,#610,.F.);
#414=ORIENTED_EDGE('',*,*,#611,.F.);
#415=ORIENTED_EDGE('',*,*,#612,.F.);
#416=ORIENTED_EDGE('',*,*,#613,.F.);
#417=ORIENTED_EDGE('',*,*,#614,.F.);
#418=ORIENTED_EDGE('',*,*,#577,.T.);
#419=ORIENTED_EDGE('',*,*,#606,.T.);
#420=ORIENTED_EDGE('',*,*,#601,.F.);
#421=ORIENTED_EDGE('',*,*,#603,.T.);
#422=ORIENTED_EDGE('',*,*,#605,.F.);
#423=ORIENTED_EDGE('',*,*,#567,.F.);
#424=ORIENTED_EDGE('',*,*,#604,.T.);
#425=ORIENTED_EDGE('',*,*,#569,.T.);
#426=ORIENTED_EDGE('',*,*,#607,.T.);
#427=ORIENTED_EDGE('',*,*,#615,.T.);
#428=ORIENTED_EDGE('',*,*,#589,.T.);
#429=ORIENTED_EDGE('',*,*,#616,.F.);
#430=ORIENTED_EDGE('',*,*,#614,.T.);
#431=ORIENTED_EDGE('',*,*,#617,.T.);
#432=ORIENTED_EDGE('',*,*,#590,.T.);
#433=ORIENTED_EDGE('',*,*,#615,.F.);
#434=ORIENTED_EDGE('',*,*,#613,.T.);
#435=ORIENTED_EDGE('',*,*,#618,.T.);
#436=ORIENTED_EDGE('',*,*,#591,.T.);
#437=ORIENTED_EDGE('',*,*,#617,.F.);
#438=ORIENTED_EDGE('',*,*,#612,.T.);
#439=ORIENTED_EDGE('',*,*,#619,.T.);
#440=ORIENTED_EDGE('',*,*,#592,.T.);
#441=ORIENTED_EDGE('',*,*,#618,.F.);
#442=ORIENTED_EDGE('',*,*,#611,.T.);
#443=ORIENTED_EDGE('',*,*,#620,.T.);
#444=ORIENTED_EDGE('',*,*,#593,.T.);
#445=ORIENTED_EDGE('',*,*,#619,.F.);
#446=ORIENTED_EDGE('',*,*,#610,.T.);
#447=ORIENTED_EDGE('',*,*,#621,.T.);
#448=ORIENTED_EDGE('',*,*,#594,.T.);
#449=ORIENTED_EDGE('',*,*,#620,.F.);
#450=ORIENTED_EDGE('',*,*,#609,.T.);
#451=ORIENTED_EDGE('',*,*,#622,.T.);
#452=ORIENTED_EDGE('',*,*,#595,.T.);
#453=ORIENTED_EDGE('',*,*,#621,.F.);
#454=ORIENTED_EDGE('',*,*,#608,.T.);
#455=ORIENTED_EDGE('',*,*,#616,.T.);
#456=ORIENTED_EDGE('',*,*,#588,.T.);
#457=ORIENTED_EDGE('',*,*,#622,.F.);
#458=ORIENTED_EDGE('',*,*,#584,.F.);
#459=ORIENTED_EDGE('',*,*,#600,.T.);
#460=ORIENTED_EDGE('',*,*,#580,.F.);
#461=ORIENTED_EDGE('',*,*,#583,.F.);
#462=ORIENTED_EDGE('',*,*,#623,.F.);
#463=ORIENTED_EDGE('',*,*,#596,.F.);
#464=ORIENTED_EDGE('',*,*,#575,.F.);
#465=ORIENTED_EDGE('',*,*,#597,.F.);
#466=ORIENTED_EDGE('',*,*,#624,.F.);
#467=ORIENTED_EDGE('',*,*,#573,.F.);
#468=ORIENTED_EDGE('',*,*,#624,.T.);
#469=ORIENTED_EDGE('',*,*,#623,.T.);
#470=ORIENTED_EDGE('',*,*,#625,.F.);
#471=ORIENTED_EDGE('',*,*,#550,.F.);
#472=ORIENTED_EDGE('',*,*,#586,.F.);
#473=ORIENTED_EDGE('',*,*,#626,.F.);
#474=ORIENTED_EDGE('',*,*,#581,.F.);
#475=ORIENTED_EDGE('',*,*,#625,.T.);
#476=ORIENTED_EDGE('',*,*,#582,.F.);
#477=ORIENTED_EDGE('',*,*,#627,.F.);
#478=ORIENTED_EDGE('',*,*,#570,.F.);
#479=ORIENTED_EDGE('',*,*,#627,.T.);
#480=ORIENTED_EDGE('',*,*,#626,.T.);
#481=ORIENTED_EDGE('',*,*,#628,.F.);
#482=ORIENTED_EDGE('',*,*,#558,.F.);
#483=ORIENTED_EDGE('',*,*,#571,.F.);
#484=ORIENTED_EDGE('',*,*,#628,.T.);
#485=ORIENTED_EDGE('',*,*,#585,.F.);
#486=ORIENTED_EDGE('',*,*,#523,.F.);
#487=ORIENTED_EDGE('',*,*,#511,.F.);
#488=ORIENTED_EDGE('',*,*,#587,.F.);
#489=ORIENTED_EDGE('',*,*,#497,.F.);
#490=ORIENTED_EDGE('',*,*,#563,.F.);
#491=ORIENTED_EDGE('',*,*,#564,.F.);
#492=ORIENTED_EDGE('',*,*,#500,.F.);
#493=ORIENTED_EDGE('',*,*,#548,.F.);
#494=ORIENTED_EDGE('',*,*,#504,.F.);
#495=ORIENTED_EDGE('',*,*,#561,.F.);
#496=EDGE_CURVE('',#629,#630,#718,.T.);
#497=EDGE_CURVE('',#630,#631,#30,.T.);
#498=EDGE_CURVE('',#632,#631,#31,.T.);
#499=EDGE_CURVE('',#633,#632,#32,.T.);
#500=EDGE_CURVE('',#633,#634,#28,.T.);
#501=EDGE_CURVE('',#635,#634,#24,.F.);
#502=EDGE_CURVE('',#629,#635,#33,.T.);
#503=EDGE_CURVE('',#636,#637,#25,.F.);
#504=EDGE_CURVE('',#637,#638,#29,.T.);
#505=EDGE_CURVE('',#638,#639,#34,.T.);
#506=EDGE_CURVE('',#639,#640,#35,.T.);
#507=EDGE_CURVE('',#640,#641,#36,.T.);
#508=EDGE_CURVE('',#641,#642,#719,.T.);
#509=EDGE_CURVE('',#642,#636,#37,.T.);
#510=EDGE_CURVE('',#643,#644,#38,.T.);
#511=EDGE_CURVE('',#644,#645,#39,.T.);
#512=EDGE_CURVE('',#646,#645,#40,.T.);
#513=EDGE_CURVE('',#646,#643,#41,.T.);
#514=EDGE_CURVE('',#640,#643,#42,.F.);
#515=EDGE_CURVE('',#646,#641,#43,.T.);
#516=EDGE_CURVE('',#647,#648,#44,.T.);
#517=EDGE_CURVE('',#647,#649,#720,.T.);
#518=EDGE_CURVE('',#649,#650,#45,.T.);
#519=EDGE_CURVE('',#648,#650,#721,.T.);
#520=EDGE_CURVE('',#651,#651,#722,.T.);
#521=EDGE_CURVE('',#652,#629,#46,.T.);
#522=EDGE_CURVE('',#652,#646,#723,.F.);
#523=EDGE_CURVE('',#645,#630,#26,.T.);
#524=EDGE_CURVE('',#653,#654,#724,.T.);
#525=EDGE_CURVE('',#653,#655,#47,.T.);
#526=EDGE_CURVE('',#655,#656,#725,.T.);
#527=EDGE_CURVE('',#654,#656,#48,.T.);
#528=EDGE_CURVE('',#657,#658,#49,.T.);
#529=EDGE_CURVE('',#659,#658,#50,.T.);
#530=EDGE_CURVE('',#660,#659,#51,.T.);
#531=EDGE_CURVE('',#660,#657,#52,.T.);
#532=EDGE_CURVE('',#658,#655,#53,.T.);
#533=EDGE_CURVE('',#659,#653,#54,.T.);
#534=EDGE_CURVE('',#657,#656,#55,.T.);
#535=EDGE_CURVE('',#660,#654,#56,.T.);
#536=EDGE_CURVE('',#661,#648,#57,.T.);
#537=EDGE_CURVE('',#662,#661,#58,.T.);
#538=EDGE_CURVE('',#662,#647,#59,.T.);
#539=EDGE_CURVE('',#663,#661,#60,.T.);
#540=EDGE_CURVE('',#664,#663,#61,.T.);
#541=EDGE_CURVE('',#664,#662,#62,.T.);
#542=EDGE_CURVE('',#663,#650,#63,.T.);
#543=EDGE_CURVE('',#664,#649,#64,.T.);
#544=EDGE_CURVE('',#665,#635,#27,.F.);
#545=EDGE_CURVE('',#665,#652,#65,.T.);
#546=EDGE_CURVE('',#665,#636,#726,.F.);
#547=EDGE_CURVE('',#652,#642,#66,.T.);
#548=EDGE_CURVE('',#638,#633,#727,.F.);
#549=EDGE_CURVE('',#666,#632,#67,.T.);
#550=EDGE_CURVE('',#666,#667,#68,.F.);
#551=EDGE_CURVE('',#668,#667,#69,.T.);
#552=EDGE_CURVE('',#669,#668,#70,.T.);
#553=EDGE_CURVE('',#669,#670,#71,.T.);
#554=EDGE_CURVE('',#670,#671,#72,.T.);
#555=EDGE_CURVE('',#671,#672,#73,.T.);
#556=EDGE_CURVE('',#673,#672,#74,.T.);
#557=EDGE_CURVE('',#674,#673,#75,.T.);
#558=EDGE_CURVE('',#674,#675,#76,.F.);
#559=EDGE_CURVE('',#639,#675,#77,.T.);
#560=EDGE_CURVE('',#676,#676,#728,.T.);
#561=EDGE_CURVE('',#634,#637,#729,.T.);
#562=EDGE_CURVE('',#677,#677,#730,.T.);
#563=EDGE_CURVE('',#678,#678,#731,.F.);
#564=EDGE_CURVE('',#679,#679,#732,.T.);
#565=EDGE_CURVE('',#680,#681,#78,.T.);
#566=EDGE_CURVE('',#682,#680,#79,.T.);
#567=EDGE_CURVE('',#682,#683,#80,.T.);
#568=EDGE_CURVE('',#681,#683,#81,.T.);
#569=EDGE_CURVE('',#684,#684,#733,.T.);
#570=EDGE_CURVE('',#685,#686,#82,.T.);
#571=EDGE_CURVE('',#686,#674,#83,.T.);
#572=EDGE_CURVE('',#673,#687,#84,.T.);
#573=EDGE_CURVE('',#687,#685,#85,.T.);
#574=EDGE_CURVE('',#688,#689,#86,.T.);
#575=EDGE_CURVE('',#688,#687,#87,.T.);
#576=EDGE_CURVE('',#690,#672,#88,.T.);
#577=EDGE_CURVE('',#691,#690,#89,.T.);
#578=EDGE_CURVE('',#669,#691,#90,.T.);
#579=EDGE_CURVE('',#668,#692,#91,.T.);
#580=EDGE_CURVE('',#692,#689,#92,.T.);
#581=EDGE_CURVE('',#667,#693,#93,.T.);
#582=EDGE_CURVE('',#693,#694,#94,.T.);
#583=EDGE_CURVE('',#694,#692,#95,.T.);
#584=EDGE_CURVE('',#695,#695,#734,.T.);
#585=EDGE_CURVE('',#675,#696,#96,.T.);
#586=EDGE_CURVE('',#696,#666,#97,.T.);
#587=EDGE_CURVE('',#631,#644,#98,.T.);
#588=EDGE_CURVE('',#697,#698,#735,.T.);
#589=EDGE_CURVE('',#699,#697,#99,.T.);
#590=EDGE_CURVE('',#700,#699,#736,.T.);
#591=EDGE_CURVE('',#701,#700,#100,.T.);
#592=EDGE_CURVE('',#702,#701,#737,.T.);
#593=EDGE_CURVE('',#703,#702,#101,.T.);
#594=EDGE_CURVE('',#704,#703,#738,.T.);
#595=EDGE_CURVE('',#698,#704,#102,.T.);
#596=EDGE_CURVE('',#689,#705,#103,.T.);
#597=EDGE_CURVE('',#705,#688,#104,.T.);
#598=EDGE_CURVE('',#680,#670,#105,.T.);
#599=EDGE_CURVE('',#681,#671,#106,.T.);
#600=EDGE_CURVE('',#706,#706,#739,.F.);
#601=EDGE_CURVE('',#691,#707,#107,.T.);
#602=EDGE_CURVE('',#707,#708,#108,.T.);
#603=EDGE_CURVE('',#682,#708,#109,.T.);
#604=EDGE_CURVE('',#709,#709,#740,.F.);
#605=EDGE_CURVE('',#683,#708,#110,.T.);
#606=EDGE_CURVE('',#690,#707,#111,.T.);
#607=EDGE_CURVE('',#710,#711,#112,.T.);
#608=EDGE_CURVE('',#712,#710,#741,.F.);
#609=EDGE_CURVE('',#713,#712,#113,.T.);
#610=EDGE_CURVE('',#714,#713,#742,.F.);
#611=EDGE_CURVE('',#715,#714,#114,.T.);
#612=EDGE_CURVE('',#716,#715,#743,.F.);
#613=EDGE_CURVE('',#717,#716,#115,.T.);
#614=EDGE_CURVE('',#711,#717,#744,.F.);
#615=EDGE_CURVE('',#711,#699,#116,.T.);
#616=EDGE_CURVE('',#710,#697,#117,.T.);
#617=EDGE_CURVE('',#717,#700,#118,.T.);
#618=EDGE_CURVE('',#716,#701,#119,.T.);
#619=EDGE_CURVE('',#715,#702,#120,.T.);
#620=EDGE_CURVE('',#714,#703,#121,.T.);
#621=EDGE_CURVE('',#713,#704,#122,.T.);
#622=EDGE_CURVE('',#712,#698,#123,.T.);
#623=EDGE_CURVE('',#705,#694,#124,.T.);
#624=EDGE_CURVE('',#685,#705,#125,.T.);
#625=EDGE_CURVE('',#685,#694,#126,.T.);
#626=EDGE_CURVE('',#693,#696,#127,.F.);
#627=EDGE_CURVE('',#686,#693,#128,.F.);
#628=EDGE_CURVE('',#686,#696,#129,.T.);
#629=VERTEX_POINT('',#1354);
#630=VERTEX_POINT('',#1355);
#631=VERTEX_POINT('',#1357);
#632=VERTEX_POINT('',#1359);
#633=VERTEX_POINT('',#1361);
#634=VERTEX_POINT('',#1366);
#635=VERTEX_POINT('',#1368);
#636=VERTEX_POINT('',#1372);
#637=VERTEX_POINT('',#1373);
#638=VERTEX_POINT('',#1378);
#639=VERTEX_POINT('',#1380);
#640=VERTEX_POINT('',#1382);
#641=VERTEX_POINT('',#1384);
#642=VERTEX_POINT('',#1386);
#643=VERTEX_POINT('',#1390);
#644=VERTEX_POINT('',#1391);
#645=VERTEX_POINT('',#1393);
#646=VERTEX_POINT('',#1395);
#647=VERTEX_POINT('',#1402);
#648=VERTEX_POINT('',#1403);
#649=VERTEX_POINT('',#1405);
#650=VERTEX_POINT('',#1407);
#651=VERTEX_POINT('',#1410);
#652=VERTEX_POINT('',#1412);
#653=VERTEX_POINT('',#1416);
#654=VERTEX_POINT('',#1417);
#655=VERTEX_POINT('',#1419);
#656=VERTEX_POINT('',#1421);
#657=VERTEX_POINT('',#1426);
#658=VERTEX_POINT('',#1427);
#659=VERTEX_POINT('',#1429);
#660=VERTEX_POINT('',#1431);
#661=VERTEX_POINT('',#1443);
#662=VERTEX_POINT('',#1445);
#663=VERTEX_POINT('',#1449);
#664=VERTEX_POINT('',#1451);
#665=VERTEX_POINT('',#1460);
#666=VERTEX_POINT('',#1469);
#667=VERTEX_POINT('',#1471);
#668=VERTEX_POINT('',#1473);
#669=VERTEX_POINT('',#1475);
#670=VERTEX_POINT('',#1477);
#671=VERTEX_POINT('',#1479);
#672=VERTEX_POINT('',#1481);
#673=VERTEX_POINT('',#1483);
#674=VERTEX_POINT('',#1485);
#675=VERTEX_POINT('',#1487);
#676=VERTEX_POINT('',#1491);
#677=VERTEX_POINT('',#1495);
#678=VERTEX_POINT('',#1498);
#679=VERTEX_POINT('',#1501);
#680=VERTEX_POINT('',#1503);
#681=VERTEX_POINT('',#1504);
#682=VERTEX_POINT('',#1506);
#683=VERTEX_POINT('',#1508);
#684=VERTEX_POINT('',#1512);
#685=VERTEX_POINT('',#1514);
#686=VERTEX_POINT('',#1515);
#687=VERTEX_POINT('',#1518);
#688=VERTEX_POINT('',#1522);
#689=VERTEX_POINT('',#1523);
#690=VERTEX_POINT('',#1526);
#691=VERTEX_POINT('',#1528);
#692=VERTEX_POINT('',#1531);
#693=VERTEX_POINT('',#1535);
#694=VERTEX_POINT('',#1537);
#695=VERTEX_POINT('',#1540);
#696=VERTEX_POINT('',#1543);
#697=VERTEX_POINT('',#1548);
#698=VERTEX_POINT('',#1549);
#699=VERTEX_POINT('',#1551);
#700=VERTEX_POINT('',#1553);
#701=VERTEX_POINT('',#1555);
#702=VERTEX_POINT('',#1557);
#703=VERTEX_POINT('',#1559);
#704=VERTEX_POINT('',#1561);
#705=VERTEX_POINT('',#1564);
#706=VERTEX_POINT('',#1571);
#707=VERTEX_POINT('',#1573);
#708=VERTEX_POINT('',#1575);
#709=VERTEX_POINT('',#1579);
#710=VERTEX_POINT('',#1584);
#711=VERTEX_POINT('',#1585);
#712=VERTEX_POINT('',#1587);
#713=VERTEX_POINT('',#1589);
#714=VERTEX_POINT('',#1591);
#715=VERTEX_POINT('',#1593);
#716=VERTEX_POINT('',#1595);
#717=VERTEX_POINT('',#1597);
#718=CIRCLE('',#995,0.0118745);
#719=CIRCLE('',#999,0.0099695);
#720=CIRCLE('',#1003,0.0118744999999997);
#721=CIRCLE('',#1004,0.0118744999999997);
#722=CIRCLE('',#1005,0.0118745);
#723=CIRCLE('',#1006,0.0118745);
#724=CIRCLE('',#1008,0.0118744999999997);
#725=CIRCLE('',#1009,0.0118744999999997);
#726=CIRCLE('',#1024,0.059055);
#727=CIRCLE('',#1027,0.05715);
#728=CIRCLE('',#1029,0.059055);
#729=CIRCLE('',#1030,0.059055);
#730=CIRCLE('',#1032,0.056515);
#731=CIRCLE('',#1034,0.056515);
#732=CIRCLE('',#1036,0.05461);
#733=CIRCLE('',#1038,0.01016);
#734=CIRCLE('',#1041,0.0053721);
#735=CIRCLE('',#1044,0.0017742851114281);
#736=CIRCLE('',#1045,0.0017742851114281);
#737=CIRCLE('',#1046,0.0017742851114281);
#738=CIRCLE('',#1047,0.00177428511142809);
#739=CIRCLE('',#1050,0.0053721);
#740=CIRCLE('',#1052,0.01016);
#741=CIRCLE('',#1054,0.0017742851114281);
#742=CIRCLE('',#1055,0.00177428511142809);
#743=CIRCLE('',#1056,0.0017742851114281);
#744=CIRCLE('',#1057,0.0017742851114281);
#745=EDGE_LOOP('',(#230,#231,#232,#233,#234,#235,#236));
#746=EDGE_LOOP('',(#237,#238,#239,#240,#241,#242,#243));
#747=EDGE_LOOP('',(#244,#245,#246,#247));
#748=EDGE_LOOP('',(#248,#249,#250,#251));
#749=EDGE_LOOP('',(#252,#253,#254,#255));
#750=EDGE_LOOP('',(#256));
#751=EDGE_LOOP('',(#257,#258,#259,#260,#261));
#752=EDGE_LOOP('',(#262,#263,#264,#265));
#753=EDGE_LOOP('',(#266));
#754=EDGE_LOOP('',(#267,#268,#269,#270));
#755=EDGE_LOOP('',(#271,#272,#273,#274));
#756=EDGE_LOOP('',(#275,#276,#277,#278));
#757=EDGE_LOOP('',(#279,#280,#281,#282));
#758=EDGE_LOOP('',(#283,#284,#285,#286));
#759=EDGE_LOOP('',(#287,#288,#289,#290));
#760=EDGE_LOOP('',(#291,#292,#293,#294));
#761=EDGE_LOOP('',(#295,#296,#297,#298));
#762=EDGE_LOOP('',(#299,#300,#301,#302));
#763=EDGE_LOOP('',(#303,#304,#305,#306));
#764=EDGE_LOOP('',(#307,#308,#309,#310));
#765=EDGE_LOOP('',(#311,#312,#313,#314));
#766=EDGE_LOOP('',(#315,#316,#317,#318));
#767=EDGE_LOOP('',(#319,#320,#321,#322,#323,#324,#325,#326,#327,#328,#329,#330,#331,#332));
#768=EDGE_LOOP('',(#333));
#769=EDGE_LOOP('',(#334,#335,#336,#337,#338));
#770=EDGE_LOOP('',(#339));
#771=EDGE_LOOP('',(#340));
#772=EDGE_LOOP('',(#341));
#773=EDGE_LOOP('',(#342));
#774=EDGE_LOOP('',(#343));
#775=EDGE_LOOP('',(#344,#345,#346,#347));
#776=EDGE_LOOP('',(#348));
#777=EDGE_LOOP('',(#349,#350,#351,#352,#353));
#778=EDGE_LOOP('',(#354,#355,#356,#357,#358,#359,#360,#361,#362,#363));
#779=EDGE_LOOP('',(#364,#365,#366,#367,#368));
#780=EDGE_LOOP('',(#369));
#781=EDGE_LOOP('',(#370,#371,#372,#373,#374,#375,#376,#377,#378));
#782=EDGE_LOOP('',(#379,#380,#381,#382,#383,#384,#385,#386));
#783=EDGE_LOOP('',(#387,#388,#389));
#784=EDGE_LOOP('',(#390,#391,#392,#393));
#785=EDGE_LOOP('',(#394));
#786=EDGE_LOOP('',(#395,#396,#397,#398,#399,#400,#401));
#787=EDGE_LOOP('',(#402));
#788=EDGE_LOOP('',(#403,#404,#405,#406,#407,#408,#409));
#789=EDGE_LOOP('',(#410,#411,#412,#413,#414,#415,#416,#417));
#790=EDGE_LOOP('',(#418,#419,#420));
#791=EDGE_LOOP('',(#421,#422,#423));
#792=EDGE_LOOP('',(#424));
#793=EDGE_LOOP('',(#425));
#794=EDGE_LOOP('',(#426,#427,#428,#429));
#795=EDGE_LOOP('',(#430,#431,#432,#433));
#796=EDGE_LOOP('',(#434,#435,#436,#437));
#797=EDGE_LOOP('',(#438,#439,#440,#441));
#798=EDGE_LOOP('',(#442,#443,#444,#445));
#799=EDGE_LOOP('',(#446,#447,#448,#449));
#800=EDGE_LOOP('',(#450,#451,#452,#453));
#801=EDGE_LOOP('',(#454,#455,#456,#457));
#802=EDGE_LOOP('',(#458));
#803=EDGE_LOOP('',(#459));
#804=EDGE_LOOP('',(#460,#461,#462,#463));
#805=EDGE_LOOP('',(#464,#465,#466,#467));
#806=EDGE_LOOP('',(#468,#469,#470));
#807=EDGE_LOOP('',(#471,#472,#473,#474));
#808=EDGE_LOOP('',(#475,#476,#477,#478));
#809=EDGE_LOOP('',(#479,#480,#481));
#810=EDGE_LOOP('',(#482,#483,#484,#485));
#811=EDGE_LOOP('',(#486,#487,#488,#489));
#812=EDGE_LOOP('',(#490));
#813=EDGE_LOOP('',(#491));
#814=EDGE_LOOP('',(#492,#493,#494,#495));
#815=FACE_BOUND('',#745,.T.);
#816=FACE_BOUND('',#746,.T.);
#817=FACE_BOUND('',#747,.T.);
#818=FACE_BOUND('',#748,.T.);
#819=FACE_BOUND('',#749,.T.);
#820=FACE_BOUND('',#750,.T.);
#821=FACE_BOUND('',#751,.T.);
#822=FACE_BOUND('',#752,.T.);
#823=FACE_BOUND('',#753,.T.);
#824=FACE_BOUND('',#754,.T.);
#825=FACE_BOUND('',#755,.T.);
#826=FACE_BOUND('',#756,.T.);
#827=FACE_BOUND('',#757,.T.);
#828=FACE_BOUND('',#758,.T.);
#829=FACE_BOUND('',#759,.T.);
#830=FACE_BOUND('',#760,.T.);
#831=FACE_BOUND('',#761,.T.);
#832=FACE_BOUND('',#762,.T.);
#833=FACE_BOUND('',#763,.T.);
#834=FACE_BOUND('',#764,.T.);
#835=FACE_BOUND('',#765,.T.);
#836=FACE_BOUND('',#766,.T.);
#837=FACE_BOUND('',#767,.T.);
#838=FACE_BOUND('',#768,.T.);
#839=FACE_BOUND('',#769,.T.);
#840=FACE_BOUND('',#770,.T.);
#841=FACE_BOUND('',#771,.T.);
#842=FACE_BOUND('',#772,.T.);
#843=FACE_BOUND('',#773,.T.);
#844=FACE_BOUND('',#774,.T.);
#845=FACE_BOUND('',#775,.T.);
#846=FACE_BOUND('',#776,.T.);
#847=FACE_BOUND('',#777,.T.);
#848=FACE_BOUND('',#778,.T.);
#849=FACE_BOUND('',#779,.T.);
#850=FACE_BOUND('',#780,.T.);
#851=FACE_BOUND('',#781,.T.);
#852=FACE_BOUND('',#782,.T.);
#853=FACE_BOUND('',#783,.T.);
#854=FACE_BOUND('',#784,.T.);
#855=FACE_BOUND('',#785,.T.);
#856=FACE_BOUND('',#786,.T.);
#857=FACE_BOUND('',#787,.T.);
#858=FACE_BOUND('',#788,.T.);
#859=FACE_BOUND('',#789,.T.);
#860=FACE_BOUND('',#790,.T.);
#861=FACE_BOUND('',#791,.T.);
#862=FACE_BOUND('',#792,.T.);
#863=FACE_BOUND('',#793,.T.);
#864=FACE_BOUND('',#794,.T.);
#865=FACE_BOUND('',#795,.T.);
#866=FACE_BOUND('',#796,.T.);
#867=FACE_BOUND('',#797,.T.);
#868=FACE_BOUND('',#798,.T.);
#869=FACE_BOUND('',#799,.T.);
#870=FACE_BOUND('',#800,.T.);
#871=FACE_BOUND('',#801,.T.);
#872=FACE_BOUND('',#802,.T.);
#873=FACE_BOUND('',#803,.T.);
#874=FACE_BOUND('',#804,.T.);
#875=FACE_BOUND('',#805,.T.);
#876=FACE_BOUND('',#806,.T.);
#877=FACE_BOUND('',#807,.T.);
#878=FACE_BOUND('',#808,.T.);
#879=FACE_BOUND('',#809,.T.);
#880=FACE_BOUND('',#810,.T.);
#881=FACE_BOUND('',#811,.T.);
#882=FACE_BOUND('',#812,.T.);
#883=FACE_BOUND('',#813,.T.);
#884=FACE_BOUND('',#814,.T.);
#885=PLANE('',#994);
#886=PLANE('',#997);
#887=PLANE('',#1000);
#888=PLANE('',#1001);
#889=PLANE('',#1010);
#890=PLANE('',#1011);
#891=PLANE('',#1012);
#892=PLANE('',#1013);
#893=PLANE('',#1014);
#894=PLANE('',#1015);
#895=PLANE('',#1016);
#896=PLANE('',#1017);
#897=PLANE('',#1018);
#898=PLANE('',#1019);
#899=PLANE('',#1020);
#900=PLANE('',#1021);
#901=PLANE('',#1023);
#902=PLANE('',#1026);
#903=PLANE('',#1031);
#904=PLANE('',#1035);
#905=PLANE('',#1037);
#906=PLANE('',#1039);
#907=PLANE('',#1040);
#908=PLANE('',#1042);
#909=PLANE('',#1043);
#910=PLANE('',#1048);
#911=PLANE('',#1049);
#912=PLANE('',#1051);
#913=PLANE('',#1053);
#914=PLANE('',#1058);
#915=PLANE('',#1060);
#916=PLANE('',#1062);
#917=PLANE('',#1064);
#918=PLANE('',#1066);
#919=PLANE('',#1069);
#920=PLANE('',#1070);
#921=PLANE('',#1071);
#922=PLANE('',#1072);
#923=PLANE('',#1073);
#924=PLANE('',#1074);
#925=PLANE('',#1075);
#926=PLANE('',#1076);
#927=ADVANCED_FACE('',(#815),#885,.F.);
#928=ADVANCED_FACE('',(#816),#886,.T.);
#929=ADVANCED_FACE('',(#817),#887,.T.);
#930=ADVANCED_FACE('',(#818),#888,.F.);
#931=ADVANCED_FACE('',(#819,#820,#821,#822),#15,.T.);
#932=ADVANCED_FACE('',(#823),#889,.F.);
#933=ADVANCED_FACE('',(#824),#890,.F.);
#934=ADVANCED_FACE('',(#825),#891,.F.);
#935=ADVANCED_FACE('',(#826),#892,.T.);
#936=ADVANCED_FACE('',(#827),#893,.T.);
#937=ADVANCED_FACE('',(#828),#894,.F.);
#938=ADVANCED_FACE('',(#829),#895,.T.);
#939=ADVANCED_FACE('',(#830),#896,.T.);
#940=ADVANCED_FACE('',(#831),#897,.F.);
#941=ADVANCED_FACE('',(#832),#898,.T.);
#942=ADVANCED_FACE('',(#833),#899,.F.);
#943=ADVANCED_FACE('',(#834),#900,.F.);
#944=ADVANCED_FACE('',(#835),#901,.T.);
#945=ADVANCED_FACE('',(#836),#12,.T.);
#946=ADVANCED_FACE('',(#837),#902,.F.);
#947=ADVANCED_FACE('',(#838,#839),#16,.T.);
#948=ADVANCED_FACE('',(#840,#841),#903,.T.);
#949=ADVANCED_FACE('',(#842,#843),#17,.F.);
#950=ADVANCED_FACE('',(#844,#845),#904,.T.);
#951=ADVANCED_FACE('',(#846,#847),#905,.F.);
#952=ADVANCED_FACE('',(#848),#906,.T.);
#953=ADVANCED_FACE('',(#849,#850),#907,.F.);
#954=ADVANCED_FACE('',(#851),#908,.F.);
#955=ADVANCED_FACE('',(#852,#853),#909,.T.);
#956=ADVANCED_FACE('',(#854),#910,.F.);
#957=ADVANCED_FACE('',(#855,#856),#911,.F.);
#958=ADVANCED_FACE('',(#857,#858),#912,.F.);
#959=ADVANCED_FACE('',(#859,#860),#913,.F.);
#960=ADVANCED_FACE('',(#861),#914,.T.);
#961=ADVANCED_FACE('',(#862,#863),#18,.F.);
#962=ADVANCED_FACE('',(#864),#915,.F.);
#963=ADVANCED_FACE('',(#865),#19,.F.);
#964=ADVANCED_FACE('',(#866),#916,.F.);
#965=ADVANCED_FACE('',(#867),#20,.F.);
#966=ADVANCED_FACE('',(#868),#917,.F.);
#967=ADVANCED_FACE('',(#869),#21,.F.);
#968=ADVANCED_FACE('',(#870),#918,.F.);
#969=ADVANCED_FACE('',(#871),#22,.F.);
#970=ADVANCED_FACE('',(#872,#873),#23,.F.);
#971=ADVANCED_FACE('',(#874),#919,.T.);
#972=ADVANCED_FACE('',(#875),#920,.T.);
#973=ADVANCED_FACE('',(#876),#921,.T.);
#974=ADVANCED_FACE('',(#877),#922,.F.);
#975=ADVANCED_FACE('',(#878),#923,.F.);
#976=ADVANCED_FACE('',(#879),#924,.T.);
#977=ADVANCED_FACE('',(#880),#925,.F.);
#978=ADVANCED_FACE('',(#881),#926,.T.);
#979=ADVANCED_FACE('',(#882,#883),#13,.F.);
#980=ADVANCED_FACE('',(#884),#14,.T.);
#981=CLOSED_SHELL('',(#927,#928,#929,#930,#931,#932,#933,#934,#935,#936,#937,#938,#939,#940,#941,#942,#943,#944,#945,#946,#947,#948,#949,#950,#951,#952,#953,#954,#955,#956,#957,#958,#959,#960,#961,#962,#963,#964,#965,#966,#967,#968,#969,#970,#971,#972,#973,#974,#975,#976,#977,#978,#979,#980));
#982=STYLED_ITEM('',(#983),#990);
#983=PRESENTATION_STYLE_ASSIGNMENT((#984));
#984=SURFACE_STYLE_USAGE(.BOTH.,#985);
#985=SURFACE_SIDE_STYLE('',(#986));
#986=SURFACE_STYLE_FILL_AREA(#987);
#987=FILL_AREA_STYLE('',(#988));
#988=FILL_AREA_STYLE_COLOUR('',#989);
#989=COLOUR_RGB('',0.541176470588235,0.682352941176471,0.83921568627451);
#990=MANIFOLD_SOLID_BREP('Part 1',#981);
#991=SHAPE_DEFINITION_REPRESENTATION(#1640,#992);
#992=SHAPE_REPRESENTATION('Part 1',(#993),#1635);
#993=AXIS2_PLACEMENT_3D('',#1351,#1079,#1080);
#994=AXIS2_PLACEMENT_3D('',#1352,#1081,#1082);
#995=AXIS2_PLACEMENT_3D('',#1353,#1083,#1084);
#996=AXIS2_PLACEMENT_3D('',#1367,#1088,#1089);
#997=AXIS2_PLACEMENT_3D('',#1370,#1091,#1092);
#998=AXIS2_PLACEMENT_3D('',#1371,#1093,#1094);
#999=AXIS2_PLACEMENT_3D('',#1385,#1098,#1099);
#1000=AXIS2_PLACEMENT_3D('',#1388,#1101,#1102);
#1001=AXIS2_PLACEMENT_3D('',#1397,#1107,#1108);
#1002=AXIS2_PLACEMENT_3D('',#1400,#1111,#1112);
#1003=AXIS2_PLACEMENT_3D('',#1404,#1114,#1115);
#1004=AXIS2_PLACEMENT_3D('',#1408,#1117,#1118);
#1005=AXIS2_PLACEMENT_3D('',#1409,#1119,#1120);
#1006=AXIS2_PLACEMENT_3D('',#1413,#1122,#1123);
#1007=AXIS2_PLACEMENT_3D('',#1414,#1124,#1125);
#1008=AXIS2_PLACEMENT_3D('',#1415,#1126,#1127);
#1009=AXIS2_PLACEMENT_3D('',#1420,#1129,#1130);
#1010=AXIS2_PLACEMENT_3D('',#1423,#1132,#1133);
#1011=AXIS2_PLACEMENT_3D('',#1424,#1134,#1135);
#1012=AXIS2_PLACEMENT_3D('',#1433,#1140,#1141);
#1013=AXIS2_PLACEMENT_3D('',#1436,#1144,#1145);
#1014=AXIS2_PLACEMENT_3D('',#1439,#1148,#1149);
#1015=AXIS2_PLACEMENT_3D('',#1440,#1150,#1151);
#1016=AXIS2_PLACEMENT_3D('',#1441,#1152,#1153);
#1017=AXIS2_PLACEMENT_3D('',#1447,#1157,#1158);
#1018=AXIS2_PLACEMENT_3D('',#1453,#1162,#1163);
#1019=AXIS2_PLACEMENT_3D('',#1456,#1166,#1167);
#1020=AXIS2_PLACEMENT_3D('',#1457,#1168,#1169);
#1021=AXIS2_PLACEMENT_3D('',#1458,#1170,#1171);
#1022=AXIS2_PLACEMENT_3D('',#1459,#1172,#1173);
#1023=AXIS2_PLACEMENT_3D('',#1462,#1175,#1176);
#1024=AXIS2_PLACEMENT_3D('',#1463,#1177,#1178);
#1025=AXIS2_PLACEMENT_3D('',#1465,#1180,#1181);
#1026=AXIS2_PLACEMENT_3D('',#1466,#1182,#1183);
#1027=AXIS2_PLACEMENT_3D('',#1467,#1184,#1185);
#1028=AXIS2_PLACEMENT_3D('',#1489,#1197,#1198);
#1029=AXIS2_PLACEMENT_3D('',#1490,#1199,#1200);
#1030=AXIS2_PLACEMENT_3D('',#1492,#1201,#1202);
#1031=AXIS2_PLACEMENT_3D('',#1493,#1203,#1204);
#1032=AXIS2_PLACEMENT_3D('',#1494,#1205,#1206);
#1033=AXIS2_PLACEMENT_3D('',#1496,#1207,#1208);
#1034=AXIS2_PLACEMENT_3D('',#1497,#1209,#1210);
#1035=AXIS2_PLACEMENT_3D('',#1499,#1211,#1212);
#1036=AXIS2_PLACEMENT_3D('',#1500,#1213,#1214);
#1037=AXIS2_PLACEMENT_3D('',#1510,#1219,#1220);
#1038=AXIS2_PLACEMENT_3D('',#1511,#1221,#1222);
#1039=AXIS2_PLACEMENT_3D('',#1520,#1227,#1228);
#1040=AXIS2_PLACEMENT_3D('',#1533,#1236,#1237);
#1041=AXIS2_PLACEMENT_3D('',#1539,#1241,#1242);
#1042=AXIS2_PLACEMENT_3D('',#1541,#1243,#1244);
#1043=AXIS2_PLACEMENT_3D('',#1546,#1248,#1249);
#1044=AXIS2_PLACEMENT_3D('',#1547,#1250,#1251);
#1045=AXIS2_PLACEMENT_3D('',#1552,#1253,#1254);
#1046=AXIS2_PLACEMENT_3D('',#1556,#1256,#1257);
#1047=AXIS2_PLACEMENT_3D('',#1560,#1259,#1260);
#1048=AXIS2_PLACEMENT_3D('',#1566,#1264,#1265);
#1049=AXIS2_PLACEMENT_3D('',#1569,#1268,#1269);
#1050=AXIS2_PLACEMENT_3D('',#1570,#1270,#1271);
#1051=AXIS2_PLACEMENT_3D('',#1577,#1275,#1276);
#1052=AXIS2_PLACEMENT_3D('',#1578,#1277,#1278);
#1053=AXIS2_PLACEMENT_3D('',#1582,#1281,#1282);
#1054=AXIS2_PLACEMENT_3D('',#1586,#1284,#1285);
#1055=AXIS2_PLACEMENT_3D('',#1590,#1287,#1288);
#1056=AXIS2_PLACEMENT_3D('',#1594,#1290,#1291);
#1057=AXIS2_PLACEMENT_3D('',#1598,#1293,#1294);
#1058=AXIS2_PLACEMENT_3D('',#1599,#1295,#1296);
#1059=AXIS2_PLACEMENT_3D('',#1600,#1297,#1298);
#1060=AXIS2_PLACEMENT_3D('',#1601,#1299,#1300);
#1061=AXIS2_PLACEMENT_3D('',#1604,#1303,#1304);
#1062=AXIS2_PLACEMENT_3D('',#1606,#1306,#1307);
#1063=AXIS2_PLACEMENT_3D('',#1608,#1309,#1310);
#1064=AXIS2_PLACEMENT_3D('',#1610,#1312,#1313);
#1065=AXIS2_PLACEMENT_3D('',#1612,#1315,#1316);
#1066=AXIS2_PLACEMENT_3D('',#1614,#1318,#1319);
#1067=AXIS2_PLACEMENT_3D('',#1616,#1321,#1322);
#1068=AXIS2_PLACEMENT_3D('',#1617,#1323,#1324);
#1069=AXIS2_PLACEMENT_3D('',#1618,#1325,#1326);
#1070=AXIS2_PLACEMENT_3D('',#1620,#1328,#1329);
#1071=AXIS2_PLACEMENT_3D('',#1622,#1331,#1332);
#1072=AXIS2_PLACEMENT_3D('',#1624,#1334,#1335);
#1073=AXIS2_PLACEMENT_3D('',#1626,#1337,#1338);
#1074=AXIS2_PLACEMENT_3D('',#1628,#1340,#1341);
#1075=AXIS2_PLACEMENT_3D('',#1630,#1343,#1344);
#1076=AXIS2_PLACEMENT_3D('',#1631,#1345,#1346);
#1077=AXIS2_PLACEMENT_3D('',#1632,#1347,#1348);
#1078=AXIS2_PLACEMENT_3D('',#1633,#1349,#1350);
#1079=DIRECTION('',(0.,0.,1.));
#1080=DIRECTION('',(1.,0.,0.));
#1081=DIRECTION('',(0.,0.,1.));
#1082=DIRECTION('',(1.,0.,0.));
#1083=DIRECTION('',(0.,0.,1.));
#1084=DIRECTION('',(1.,0.,0.));
#1085=DIRECTION('',(-0.104528463267653,-0.994521895368274,0.));
#1086=DIRECTION('',(0.994714797822873,-0.102676535743086,0.));
#1087=DIRECTION('',(-0.104528463267653,-0.994521895368273,0.));
#1088=DIRECTION('',(0.,0.,1.));
#1089=DIRECTION('',(0.994521895368274,-0.104528463267653,0.));
#1090=DIRECTION('',(-0.104528463267653,-0.994521895368273,0.));
#1091=DIRECTION('',(0.,0.,1.));
#1092=DIRECTION('',(1.,0.,0.));
#1093=DIRECTION('',(0.,0.,1.));
#1094=DIRECTION('',(0.994521895368274,-0.104528463267653,0.));
#1095=DIRECTION('',(-0.104528463267653,-0.994521895368273,0.));
#1096=DIRECTION('',(0.994714797822873,-0.102676535743086,0.));
#1097=DIRECTION('',(0.104528463267653,0.994521895368274,0.));
#1098=DIRECTION('',(0.,0.,1.));
#1099=DIRECTION('',(1.,0.,0.));
#1100=DIRECTION('',(-0.104528463267653,-0.994521895368274,0.));
#1101=DIRECTION('',(0.994521895368273,-0.104528463267653,0.));
#1102=DIRECTION('',(0.104528463267653,0.994521895368273,0.));
#1103=DIRECTION('',(0.,0.,-1.));
#1104=DIRECTION('',(0.104528463267653,0.994521895368273,0.));
#1105=DIRECTION('',(0.,0.,-1.));
#1106=DIRECTION('',(-0.104528463267653,-0.994521895368273,0.));
#1107=DIRECTION('',(-0.703233176253404,0.0739127852035666,-0.707106781186548));
#1108=DIRECTION('',(-0.104528463267653,-0.994521895368273,0.));
#1109=DIRECTION('',(-0.703370188506087,0.072603337618816,0.70710616832801));
#1110=DIRECTION('',(-0.703233176253404,0.0739127852035667,0.707106781186548));
#1111=DIRECTION('',(0.,0.,-1.));
#1112=DIRECTION('',(-1.,0.,0.));
#1113=DIRECTION('',(0.,0.,-1.));
#1114=DIRECTION('',(0.,0.,1.));
#1115=DIRECTION('',(1.,0.,0.));
#1116=DIRECTION('',(0.,0.,-1.));
#1117=DIRECTION('',(0.,0.,1.));
#1118=DIRECTION('',(1.,0.,0.));
#1119=DIRECTION('',(0.,0.,1.));
#1120=DIRECTION('',(1.,0.,0.));
#1121=DIRECTION('',(0.,0.,-1.));
#1122=DIRECTION('',(0.,0.,1.));
#1123=DIRECTION('',(1.,0.,0.));
#1124=DIRECTION('',(0.703233176253404,-0.0739127852035667,-0.707106781186548));
#1125=DIRECTION('',(-0.703233176253404,0.0739127852035667,-0.707106781186548));
#1126=DIRECTION('',(0.,0.,-1.));
#1127=DIRECTION('',(1.,0.,0.));
#1128=DIRECTION('',(0.,0.,-1.));
#1129=DIRECTION('',(0.,0.,-1.));
#1130=DIRECTION('',(1.,0.,0.));
#1131=DIRECTION('',(0.,0.,-1.));
#1132=DIRECTION('',(0.,0.,1.));
#1133=DIRECTION('',(1.,0.,0.));
#1134=DIRECTION('',(0.,-1.,0.));
#1135=DIRECTION('',(0.,0.,-1.));
#1136=DIRECTION('',(-1.,0.,0.));
#1137=DIRECTION('',(0.,0.,-1.));
#1138=DIRECTION('',(-1.,0.,0.));
#1139=DIRECTION('',(0.,0.,-1.));
#1140=DIRECTION('',(1.,-2.27615872619497E-16,0.));
#1141=DIRECTION('',(2.27615872619497E-16,1.,0.));
#1142=DIRECTION('',(-2.27615872619497E-16,-1.,0.));
#1143=DIRECTION('',(-2.27615872619497E-16,-1.,0.));
#1144=DIRECTION('',(1.,0.,0.));
#1145=DIRECTION('',(0.,0.,-1.));
#1146=DIRECTION('',(0.,-1.,0.));
#1147=DIRECTION('',(0.,-1.,0.));
#1148=DIRECTION('',(0.,0.,1.));
#1149=DIRECTION('',(1.,0.,0.));
#1150=DIRECTION('',(0.,0.,1.));
#1151=DIRECTION('',(1.,0.,0.));
#1152=DIRECTION('',(-1.,-2.27615872619497E-16,0.));
#1153=DIRECTION('',(2.27615872619497E-16,-1.,0.));
#1154=DIRECTION('',(-2.27615872619497E-16,1.,0.));
#1155=DIRECTION('',(0.,0.,-1.));
#1156=DIRECTION('',(-2.27615872619497E-16,1.,0.));
#1157=DIRECTION('',(0.,-1.,0.));
#1158=DIRECTION('',(0.,0.,-1.));
#1159=DIRECTION('',(-1.,0.,0.));
#1160=DIRECTION('',(0.,0.,-1.));
#1161=DIRECTION('',(-1.,0.,0.));
#1162=DIRECTION('',(-1.,0.,0.));
#1163=DIRECTION('',(0.,0.,1.));
#1164=DIRECTION('',(0.,1.,0.));
#1165=DIRECTION('',(0.,1.,0.));
#1166=DIRECTION('',(0.,0.,1.));
#1167=DIRECTION('',(1.,0.,0.));
#1168=DIRECTION('',(0.,0.,1.));
#1169=DIRECTION('',(1.,0.,0.));
#1170=DIRECTION('',(0.994521895368273,-0.104528463267653,0.));
#1171=DIRECTION('',(0.104528463267653,0.994521895368273,0.));
#1172=DIRECTION('',(0.994521895368273,-0.104528463267653,0.));
#1173=DIRECTION('',(0.,0.,-1.));
#1174=DIRECTION('',(0.104528463267653,0.994521895368273,0.));
#1175=DIRECTION('',(-0.703233176253404,0.0739127852035666,0.707106781186548));
#1176=DIRECTION('',(0.104528463267653,0.994521895368273,0.));
#1177=DIRECTION('',(-0.703233176253404,0.0739127852035666,0.707106781186548));
#1178=DIRECTION('',(0.709046228824512,0.,0.70516199939428));
#1179=DIRECTION('',(0.703233176253404,-0.0739127852035667,0.707106781186548));
#1180=DIRECTION('',(0.,0.,-1.));
#1181=DIRECTION('',(-1.,0.,0.));
#1182=DIRECTION('',(-0.703233176253404,0.0739127852035666,0.707106781186548));
#1183=DIRECTION('',(-0.052120487394947,-0.997264709183801,0.0524075816105051));
#1184=DIRECTION('',(-0.703233176253404,0.0739127852035666,0.707106781186548));
#1185=DIRECTION('',(0.709046228824512,0.,0.70516199939428));
#1186=DIRECTION('',(0.703370188506087,-0.072603337618816,0.70710616832801));
#1187=DIRECTION('',(0.634255099984791,0.514588525379123,0.576991436410821));
#1188=DIRECTION('',(0.104528461662723,0.994521895536958,-1.61377066899799E-09));
#1189=DIRECTION('',(-0.703370188506087,0.072603337618816,-0.70710616832801));
#1190=DIRECTION('',(-0.104528372689177,-0.994521904888447,9.10774074179571E-08));
#1191=DIRECTION('',(0.703370195060038,-0.0726032746986987,0.707106168269115));
#1192=DIRECTION('',(0.102676356156237,0.994713073729595,-0.00186194465518936));
#1193=DIRECTION('',(-0.703370188506087,0.072603337618816,-0.70710616832801));
#1194=DIRECTION('',(-0.102676356156237,-0.994713073729595,0.00186194465518936));
#1195=DIRECTION('',(0.51469938346663,-0.633186003113928,0.578065766258201));
#1196=DIRECTION('',(0.703370188506087,-0.072603337618816,0.70710616832801));
#1197=DIRECTION('',(0.703233176253404,-0.0739127852035666,-0.707106781186548));
#1198=DIRECTION('',(-0.709046228824512,0.,-0.70516199939428));
#1199=DIRECTION('',(-0.703233176253404,0.0739127852035666,0.707106781186548));
#1200=DIRECTION('',(0.709046228824512,0.,0.70516199939428));
#1201=DIRECTION('',(-0.703233176253403,0.0739127852035721,0.707106781186548));
#1202=DIRECTION('',(0.709046228824512,0.,0.705161999394279));
#1203=DIRECTION('',(-0.703233176253404,0.0739127852035666,0.707106781186548));
#1204=DIRECTION('',(-0.052120487394947,-0.997264709183801,0.0524075816105051));
#1205=DIRECTION('',(-0.703233176253404,0.0739127852035666,0.707106781186548));
#1206=DIRECTION('',(0.709046228824512,0.,0.70516199939428));
#1207=DIRECTION('',(-0.703233176253404,0.0739127852035666,0.707106781186548));
#1208=DIRECTION('',(0.709046228824512,0.,0.70516199939428));
#1209=DIRECTION('',(-0.703233176253404,0.0739127852035648,0.707106781186548));
#1210=DIRECTION('',(0.709046228824512,0.,0.70516199939428));
#1211=DIRECTION('',(-0.703233176253404,0.0739127852035666,0.707106781186548));
#1212=DIRECTION('',(-0.052120487394947,-0.997264709183801,0.0524075816105051));
#1213=DIRECTION('',(-0.703233176253404,0.0739127852035666,0.707106781186548));
#1214=DIRECTION('',(0.709046228824512,0.,0.70516199939428));
#1215=DIRECTION('',(0.703370195060038,-0.0726032746986987,0.707106168269115));
#1216=DIRECTION('',(-0.104528372689177,-0.994521904888447,9.10774074179571E-08));
#1217=DIRECTION('',(0.703370195060038,-0.0726032746986986,0.707106168269115));
#1218=DIRECTION('',(0.102676356156237,0.994713073729595,-0.00186194465518936));
#1219=DIRECTION('',(-0.994714797822499,0.102676535743047,8.66712479661271E-07));
#1220=DIRECTION('',(-0.102676535743086,-0.994714797822873,0.));
#1221=DIRECTION('',(0.994714797822499,-0.102676535743047,-8.66712479661271E-07));
#1222=DIRECTION('',(0.102676535743086,0.994714797822873,0.));
#1223=DIRECTION('',(0.102676535743086,0.994714797822873,-3.97046694025503E-23));
#1224=DIRECTION('',(8.62131728976821E-07,-8.89910348969191E-08,0.999999999999624));
#1225=DIRECTION('',(-0.102676535743086,-0.994714797822873,0.));
#1226=DIRECTION('',(-8.62131728976821E-07,8.89910348969191E-08,-0.999999999999624));
#1227=DIRECTION('',(-0.703368969267703,0.0726032117664875,0.707107394044554));
#1228=DIRECTION('',(0.708978455962633,0.,0.705230139019059));
#1229=DIRECTION('',(-0.703370188506087,0.072603337618816,-0.70710616832801));
#1230=DIRECTION('',(0.63357967959244,0.515018479360233,0.577349768792727));
#1231=DIRECTION('',(0.102676535743086,0.994714797822873,1.67519607744574E-17));
#1232=DIRECTION('',(0.703370195001455,-0.0726032746926516,0.707106168328009));
#1233=DIRECTION('',(-0.102676446751973,-0.994714807008713,8.94637918120603E-08));
#1234=DIRECTION('',(-0.102676535743086,-0.994714797822873,0.));
#1235=DIRECTION('',(0.515019028490983,-0.633579233219641,0.577349768792727));
#1236=DIRECTION('',(8.62131728926673E-07,-8.89910348917427E-08,0.999999999999624));
#1237=DIRECTION('',(0.999999999999628,0.,-8.62131728926677E-07));
#1238=DIRECTION('',(0.994714797822499,-0.102676535743047,-8.66712479610856E-07));
#1239=DIRECTION('',(-0.102676535743086,-0.994714797822873,3.97046694025304E-23));
#1240=DIRECTION('',(-0.994714797822499,0.102676535743047,8.66712479610856E-07));
#1241=DIRECTION('',(8.62131728926673E-07,-8.89910348917427E-08,0.999999999999624));
#1242=DIRECTION('',(-0.999999999999628,0.,8.62131728926677E-07));
#1243=DIRECTION('',(-0.102676535743086,-0.994714797822873,0.));
#1244=DIRECTION('',(0.994714797822873,-0.102676535743086,0.));
#1245=DIRECTION('',(-8.62131728976821E-07,8.89910348969191E-08,-0.999999999999624));
#1246=DIRECTION('',(-0.994714797822499,0.102676535743047,8.66712479610856E-07));
#1247=DIRECTION('',(0.703370188506087,-0.072603337618816,0.70710616832801));
#1248=DIRECTION('',(-0.102676535743086,-0.994714797822873,0.));
#1249=DIRECTION('',(0.994714797822873,-0.102676535743086,0.));
#1250=DIRECTION('',(-0.102676535743086,-0.994714797822873,0.));
#1251=DIRECTION('',(0.994714797822873,-0.102676535743086,0.));
#1252=DIRECTION('',(-0.994714797822873,0.102676535743086,0.));
#1253=DIRECTION('',(-0.102676535743086,-0.994714797822873,0.));
#1254=DIRECTION('',(0.994714797822873,-0.102676535743086,0.));
#1255=DIRECTION('',(0.,0.,1.));
#1256=DIRECTION('',(-0.102676535743086,-0.994714797822873,0.));
#1257=DIRECTION('',(0.994714797822873,-0.102676535743086,0.));
#1258=DIRECTION('',(0.994714797822873,-0.102676535743086,0.));
#1259=DIRECTION('',(-0.102676535743086,-0.994714797822873,0.));
#1260=DIRECTION('',(0.994714797822873,-0.102676535743086,0.));
#1261=DIRECTION('',(2.41848842809472E-16,-2.49641418902189E-17,-1.));
#1262=DIRECTION('',(0.994714797822499,-0.102676535743047,-8.66712479610856E-07));
#1263=DIRECTION('',(8.62131728976821E-07,-8.89910348969191E-08,0.999999999999624));
#1264=DIRECTION('',(-0.102676535743008,-0.994714797822877,8.94638695333317E-08));
#1265=DIRECTION('',(0.994714797822881,-0.102676535743009,0.));
#1266=DIRECTION('',(0.994714797822499,-0.102676535743047,-8.6671247966127E-07));
#1267=DIRECTION('',(-8.71317569174676E-07,1.58540532250818E-18,-0.999999999999621));
#1268=DIRECTION('',(-8.71317569156007E-07,1.824434281141E-16,-0.999999999999621));
#1269=DIRECTION('',(-0.999999999999621,0.,8.71317569156007E-07));
#1270=DIRECTION('',(-8.71317569156007E-07,1.824434281141E-16,-0.999999999999621));
#1271=DIRECTION('',(-0.999999999999621,0.,8.71317569156007E-07));
#1272=DIRECTION('',(0.994714797822499,-0.102676535743047,-8.6671247966127E-07));
#1273=DIRECTION('',(0.102676535743008,0.994714797822877,-8.94638693515128E-08));
#1274=DIRECTION('',(0.994714797822499,-0.102676535743047,-8.6671247966127E-07));
#1275=DIRECTION('',(0.994714797822499,-0.102676535743047,-8.66712479661271E-07));
#1276=DIRECTION('',(0.102676535743008,0.994714797822877,-8.94638695349256E-08));
#1277=DIRECTION('',(0.994714797822499,-0.102676535743047,-8.66712479661271E-07));
#1278=DIRECTION('',(0.102676535743086,0.994714797822873,0.));
#1279=DIRECTION('',(-8.71317569175072E-07,-2.25518618238811E-18,-0.999999999999621));
#1280=DIRECTION('',(-8.71317569174676E-07,1.58540532250818E-18,-0.999999999999621));
#1281=DIRECTION('',(-0.102676535743008,-0.994714797822877,8.94638695333317E-08));
#1282=DIRECTION('',(0.994714797822881,-0.102676535743009,0.));
#1283=DIRECTION('',(0.994714797822881,-0.102676535743009,0.));
#1284=DIRECTION('',(-0.102676535743008,-0.994714797822877,8.94638695333317E-08));
#1285=DIRECTION('',(0.994714797822881,-0.102676535743009,0.));
#1286=DIRECTION('',(9.18583995600508E-09,8.89910349202641E-08,1.));
#1287=DIRECTION('',(-0.102676535743008,-0.994714797822877,8.94638695333317E-08));
#1288=DIRECTION('',(0.994714797822881,-0.102676535743009,0.));
#1289=DIRECTION('',(-0.994714797822881,0.102676535743009,0.));
#1290=DIRECTION('',(-0.102676535743008,-0.994714797822877,8.94638695333317E-08));
#1291=DIRECTION('',(0.994714797822881,-0.102676535743009,0.));
#1292=DIRECTION('',(-9.18584019785392E-09,-8.89910348953E-08,-1.));
#1293=DIRECTION('',(-0.102676535743008,-0.994714797822877,8.94638695333317E-08));
#1294=DIRECTION('',(0.994714797822881,-0.102676535743009,0.));
#1295=DIRECTION('',(-0.102676535743008,-0.994714797822877,8.94638695371927E-08));
#1296=DIRECTION('',(0.994714797822881,-0.102676535743009,0.));
#1297=DIRECTION('',(0.994714797822499,-0.102676535743047,-8.66712479661271E-07));
#1298=DIRECTION('',(0.102676535743086,0.994714797822873,0.));
#1299=DIRECTION('',(0.,0.,1.));
#1300=DIRECTION('',(1.,0.,0.));
#1301=DIRECTION('',(-0.102676535743086,-0.994714797822873,0.));
#1302=DIRECTION('',(-0.102676535743086,-0.994714797822873,0.));
#1303=DIRECTION('',(-0.102676535743086,-0.994714797822873,0.));
#1304=DIRECTION('',(0.994714797822873,-0.102676535743086,0.));
#1305=DIRECTION('',(-0.102676535743086,-0.994714797822873,0.));
#1306=DIRECTION('',(0.994714797822873,-0.102676535743086,0.));
#1307=DIRECTION('',(0.102676535743086,0.994714797822873,0.));
#1308=DIRECTION('',(-0.102676535743086,-0.994714797822873,0.));
#1309=DIRECTION('',(-0.102676535743086,-0.994714797822873,0.));
#1310=DIRECTION('',(0.994714797822873,-0.102676535743086,0.));
#1311=DIRECTION('',(-0.102676535743086,-0.994714797822873,0.));
#1312=DIRECTION('',(0.,0.,-1.));
#1313=DIRECTION('',(-1.,0.,0.));
#1314=DIRECTION('',(-0.102676535743086,-0.994714797822873,0.));
#1315=DIRECTION('',(-0.102676535743086,-0.994714797822873,0.));
#1316=DIRECTION('',(0.994714797822873,-0.102676535743086,0.));
#1317=DIRECTION('',(-0.102676535743086,-0.994714797822873,0.));
#1318=DIRECTION('',(-0.994714797822873,0.102676535743086,-2.43133854386006E-16));
#1319=DIRECTION('',(-0.102676535743086,-0.994714797822873,0.));
#1320=DIRECTION('',(-0.102676535743086,-0.994714797822873,0.));
#1321=DIRECTION('',(-0.102676535743086,-0.994714797822873,0.));
#1322=DIRECTION('',(0.994714797822873,-0.102676535743086,0.));
#1323=DIRECTION('',(-8.62131728926673E-07,8.89910348917427E-08,-0.999999999999624));
#1324=DIRECTION('',(-0.999999999999628,0.,8.62131728926677E-07));
#1325=DIRECTION('',(-0.0726038843118712,-0.703369515960998,-0.707106781186279));
#1326=DIRECTION('',(0.994714797822499,-0.102676535743047,-8.66712479610856E-07));
#1327=DIRECTION('',(0.0726026650734909,0.70336964181332,-0.707106781186285));
#1328=DIRECTION('',(0.630766304194214,-0.775972853579812,-6.1285827170749E-07));
#1329=DIRECTION('',(8.62131728976821E-07,-8.89910348969191E-08,0.999999999999625));
#1330=DIRECTION('',(-0.775972853579575,-0.630766304194505,6.12858274494507E-07));
#1331=DIRECTION('',(0.515018032987008,-0.633579130461653,-0.577350769586089));
#1332=DIRECTION('',(0.,0.673547227246423,-0.739144189362709));
#1333=DIRECTION('',(-0.703370188506086,0.0726033376188141,-0.707106168328011));
#1334=DIRECTION('',(-0.0726026650734871,-0.703369641813321,0.707106781186284));
#1335=DIRECTION('',(-0.994714797822499,0.102676535743047,8.66712479610856E-07));
#1336=DIRECTION('',(-0.0726038843118734,-0.703369515960997,-0.70710678118628));
#1337=DIRECTION('',(-0.703368969267704,0.0726032117664876,0.707107394044553));
#1338=DIRECTION('',(-0.102676535743086,-0.994714797822873,2.64697796016869E-23));
#1339=DIRECTION('',(0.703370188506086,-0.0726033376188115,0.707106168328011));
#1340=DIRECTION('',(0.633578684088467,0.515018582118229,-0.577350769586095));
#1341=DIRECTION('',(-0.673547486499384,0.,-0.739143953117634));
#1342=DIRECTION('',(-0.630766304194214,0.775972853579813,6.12858272362681E-07));
#1343=DIRECTION('',(-0.775972853579576,-0.630766304194505,6.12858271707494E-07));
#1344=DIRECTION('',(-8.62131728976821E-07,8.89910348969191E-08,-0.999999999999625));
#1345=DIRECTION('',(0.703233176253404,-0.0739127852035667,-0.707106781186548));
#1346=DIRECTION('',(0.104528463267653,0.994521895368273,0.));
#1347=DIRECTION('',(-0.703233176253404,0.0739127852035648,0.707106781186548));
#1348=DIRECTION('',(0.709046228824512,0.,0.70516199939428));
#1349=DIRECTION('',(-0.703233176253403,0.0739127852035721,0.707106781186548));
#1350=DIRECTION('',(0.709046228824512,0.,0.705161999394279));
#1351=CARTESIAN_POINT('',(0.,0.,0.));
#1352=CARTESIAN_POINT('',(-0.00527983215225339,-0.0452050739032442,0.01778));
#1353=CARTESIAN_POINT('',(0.,7.27103420823762E-19,0.01778));
#1354=CARTESIAN_POINT('',(-0.0118094502465506,0.00124122323707175,0.01778));
#1355=CARTESIAN_POINT('',(0.00924059383021229,-0.00745755830785402,0.01778));
#1356=CARTESIAN_POINT('',(0.00626424153725475,-0.0357756587672131,0.01778));
#1357=CARTESIAN_POINT('',(0.00626387077335401,-0.0357791863500913,0.01778));
#1358=CARTESIAN_POINT('',(-0.00419543062980971,-0.0346995554481281,0.01778));
#1359=CARTESIAN_POINT('',(-0.00833706351865488,-0.0342720474646568,0.01778));
#1360=CARTESIAN_POINT('',(-0.00944021160472199,-0.0447678004024775,0.01778));
#1361=CARTESIAN_POINT('',(-0.00673134891180265,-0.018994693485596,0.01778));
#1362=CARTESIAN_POINT('',(-0.00673134891180265,-0.018994693485596,0.01778));
#1363=CARTESIAN_POINT('',(-0.00755909274809732,-0.0183174911121268,0.01778));
#1364=CARTESIAN_POINT('',(-0.00839159298318473,-0.0176461854898267,0.01778));
#1365=CARTESIAN_POINT('',(-0.00922855602886531,-0.0169804126423691,0.01778));
#1366=CARTESIAN_POINT('',(-0.00922855602886531,-0.0169804126423691,0.01778));
#1367=CARTESIAN_POINT('',(-0.00673914554155934,-0.0763010363674756,0.01778));
#1368=CARTESIAN_POINT('',(-0.0137190683736175,-0.0169275795922328,0.01778));
#1369=CARTESIAN_POINT('',(-0.0171218072755287,-0.0493024776475771,0.01778));
#1370=CARTESIAN_POINT('',(-0.00527983215225339,-0.0452050739032442,0.03048));
#1371=CARTESIAN_POINT('',(-0.0193695736127364,-0.0749735248839764,0.03048));
#1372=CARTESIAN_POINT('',(-0.0117484691965029,-0.016403281932802,0.03048));
#1373=CARTESIAN_POINT('',(0.00331025035226297,-0.0191796462769044,0.03048));
#1374=CARTESIAN_POINT('',(0.00331025035226296,-0.0191796462769044,0.03048));
#1375=CARTESIAN_POINT('',(0.00412944660706845,-0.020055075601129,0.03048));
#1376=CARTESIAN_POINT('',(0.00493974706530234,-0.0209386588893808,0.03048));
#1377=CARTESIAN_POINT('',(0.00574049899578435,-0.0218309944407014,0.03048));
#1378=CARTESIAN_POINT('',(0.00574049899578435,-0.0218309944407014,0.03048));
#1379=CARTESIAN_POINT('',(0.00319021646645509,-0.0460953118859766,0.03048));
#1380=CARTESIAN_POINT('',(0.0042958363118605,-0.0355760417289683,0.03048));
#1381=CARTESIAN_POINT('',(-0.00419543062980971,-0.0346995554481281,0.03048));
#1382=CARTESIAN_POINT('',(0.00626387077335401,-0.0357791863500913,0.03048));
#1383=CARTESIAN_POINT('',(0.00515786586136661,-0.0463021201708998,0.03048));
#1384=CARTESIAN_POINT('',(0.009914886035874,-0.00104209651454687,0.03048));
#1385=CARTESIAN_POINT('',(0.,7.27103420823762E-19,0.03048));
#1386=CARTESIAN_POINT('',(-0.009914886035874,0.00104209651454687,0.03048));
#1387=CARTESIAN_POINT('',(-0.0205396000938302,-0.100045305254751,0.03048));
#1388=CARTESIAN_POINT('',(0.00649940431255377,-0.0517629355217801,0.03048));
#1389=CARTESIAN_POINT('',(0.00815880574793131,-0.035974785489738,0.03048));
#1390=CARTESIAN_POINT('',(0.00815880574793131,-0.035974785489738,0.028575));
#1391=CARTESIAN_POINT('',(0.00815880574793131,-0.035974785489738,0.019685));
#1392=CARTESIAN_POINT('',(0.0118094502465506,-0.00124122323707175,0.019685));
#1393=CARTESIAN_POINT('',(0.0118094502465506,-0.00124122323707175,0.019685));
#1394=CARTESIAN_POINT('',(0.0118094502465506,-0.00124122323707175,0.03048));
#1395=CARTESIAN_POINT('',(0.0118094502465506,-0.00124122323707175,0.028575));
#1396=CARTESIAN_POINT('',(0.00649940431255377,-0.0517629355217801,0.028575));
#1397=CARTESIAN_POINT('',(0.00649940431255377,-0.0517629355217801,0.028575));
#1398=CARTESIAN_POINT('',(0.00814410452796052,-0.0359732679991557,0.0285897793061082));
#1399=CARTESIAN_POINT('',(0.0118094502465506,-0.00124122323707175,0.028575));
#1400=CARTESIAN_POINT('',(0.,7.27103420823762E-19,0.01778));
#1401=CARTESIAN_POINT('',(-0.00118745,-0.0118149783219226,0.006985));
#1402=CARTESIAN_POINT('',(-0.00118745,-0.0118149783219226,0.006985));
#1403=CARTESIAN_POINT('',(-0.00118745,-0.0118149783219226,0.00508));
#1404=CARTESIAN_POINT('',(-5.42101086242752E-19,-3.35668992601512E-16,0.006985));
#1405=CARTESIAN_POINT('',(0.00118745,-0.0118149783219226,0.006985));
#1406=CARTESIAN_POINT('',(0.00118745,-0.0118149783219226,0.006985));
#1407=CARTESIAN_POINT('',(0.00118745,-0.0118149783219226,0.00508));
#1408=CARTESIAN_POINT('',(-5.42101086242752E-19,-3.35668992601512E-16,0.00508));
#1409=CARTESIAN_POINT('',(0.,7.27103420823762E-19,0.));
#1410=CARTESIAN_POINT('',(0.0118745,7.27103420823762E-19,0.));
#1411=CARTESIAN_POINT('',(-0.0118094502465506,0.00124122323707175,0.03048));
#1412=CARTESIAN_POINT('',(-0.0118094502465506,0.00124122323707175,0.028575));
#1413=CARTESIAN_POINT('',(0.,7.27103420823762E-19,0.028575));
#1414=CARTESIAN_POINT('',(0.,7.27103420823762E-19,0.0078105));
#1415=CARTESIAN_POINT('',(-5.42101086242752E-19,3.35668992601512E-16,0.006985));
#1416=CARTESIAN_POINT('',(-0.00118745,0.0118149783219226,0.006985));
#1417=CARTESIAN_POINT('',(0.00118745,0.0118149783219226,0.006985));
#1418=CARTESIAN_POINT('',(-0.00118745,0.0118149783219226,0.006985));
#1419=CARTESIAN_POINT('',(-0.00118745,0.0118149783219226,0.00508));
#1420=CARTESIAN_POINT('',(-5.42101086242752E-19,3.35668992601512E-16,0.00508));
#1421=CARTESIAN_POINT('',(0.00118745,0.0118149783219226,0.00508));
#1422=CARTESIAN_POINT('',(0.00118745,0.0118149783219226,0.006985));
#1423=CARTESIAN_POINT('',(0.,0.,0.));
#1424=CARTESIAN_POINT('',(0.,0.0127676378706685,0.006985));
#1425=CARTESIAN_POINT('',(0.,0.0127676378706685,0.00508));
#1426=CARTESIAN_POINT('',(0.00118745,0.0127676378706685,0.00508));
#1427=CARTESIAN_POINT('',(-0.00118745,0.0127676378706685,0.00508));
#1428=CARTESIAN_POINT('',(-0.00118745,0.0127676378706685,0.006985));
#1429=CARTESIAN_POINT('',(-0.00118745,0.0127676378706685,0.006985));
#1430=CARTESIAN_POINT('',(0.,0.0127676378706685,0.006985));
#1431=CARTESIAN_POINT('',(0.00118745,0.0127676378706685,0.006985));
#1432=CARTESIAN_POINT('',(0.00118745,0.0127676378706685,0.006985));
#1433=CARTESIAN_POINT('',(-0.00118745,0.0122913080962955,0.006985));
#1434=CARTESIAN_POINT('',(-0.00118745,0.0122913080962955,0.00508));
#1435=CARTESIAN_POINT('',(-0.00118745,0.0122913080962955,0.006985));
#1436=CARTESIAN_POINT('',(0.00118745,0.0122913080962955,0.006985));
#1437=CARTESIAN_POINT('',(0.00118745,0.0122913080962955,0.00508));
#1438=CARTESIAN_POINT('',(0.00118745,0.0122913080962955,0.006985));
#1439=CARTESIAN_POINT('',(4.28780913352966E-06,0.,0.006985));
#1440=CARTESIAN_POINT('',(4.28780913352966E-06,0.,0.00508));
#1441=CARTESIAN_POINT('',(-0.00118745,-0.0122913080962955,0.006985));
#1442=CARTESIAN_POINT('',(-0.00118745,-0.0122913080962955,0.00508));
#1443=CARTESIAN_POINT('',(-0.00118745,-0.0127676378706685,0.00508));
#1444=CARTESIAN_POINT('',(-0.00118745,-0.0127676378706685,0.006985));
#1445=CARTESIAN_POINT('',(-0.00118745,-0.0127676378706685,0.006985));
#1446=CARTESIAN_POINT('',(-0.00118745,-0.0122913080962955,0.006985));
#1447=CARTESIAN_POINT('',(-0.00064135,-0.0127676378706685,0.006985));
#1448=CARTESIAN_POINT('',(-0.00064135,-0.0127676378706685,0.00508));
#1449=CARTESIAN_POINT('',(0.00118745,-0.0127676378706685,0.00508));
#1450=CARTESIAN_POINT('',(0.00118745,-0.0127676378706685,0.006985));
#1451=CARTESIAN_POINT('',(0.00118745,-0.0127676378706685,0.006985));
#1452=CARTESIAN_POINT('',(-0.00064135,-0.0127676378706685,0.006985));
#1453=CARTESIAN_POINT('',(0.00118745,-0.0122913080962955,0.006985));
#1454=CARTESIAN_POINT('',(0.00118745,-0.0122913080962955,0.00508));
#1455=CARTESIAN_POINT('',(0.00118745,-0.0122913080962955,0.006985));
#1456=CARTESIAN_POINT('',(4.28780913352966E-06,0.,0.006985));
#1457=CARTESIAN_POINT('',(4.28780913352966E-06,0.,0.00508));
#1458=CARTESIAN_POINT('',(-0.0171218072755287,-0.0493024776475771,0.03048));
#1459=CARTESIAN_POINT('',(-0.0198150222372487,-0.0749267063469468,0.0309279022800673));
#1460=CARTESIAN_POINT('',(-0.0136445440973607,-0.0162185284672392,0.028575));
#1461=CARTESIAN_POINT('',(-0.0118094502465506,0.00124122323707175,0.028575));
#1462=CARTESIAN_POINT('',(-0.0146719062103814,-0.0442179271418061,0.03048));
#1463=CARTESIAN_POINT('',(-0.0186450158196543,-0.075049678976724,0.0297514511400336));
#1464=CARTESIAN_POINT('',(-0.0118094502465506,0.00124122323707175,0.028575));
#1465=CARTESIAN_POINT('',(0.,7.27103420823762E-19,0.03048));
#1466=CARTESIAN_POINT('',(-0.00936240803830222,-0.0692619403674482,0.0204177121599434));
#1467=CARTESIAN_POINT('',(-0.00971395448123605,-0.0759883713488093,0.0207711950189645));
#1468=CARTESIAN_POINT('',(-0.00574561649143552,-0.034539542030837,0.020385211605192));
#1469=CARTESIAN_POINT('',(-0.0264243929795827,-0.0324050355995909,-0.000403401058790144));
#1470=CARTESIAN_POINT('',(-0.023970387239745,-0.0304140335643448,0.00182904499773078));
#1471=CARTESIAN_POINT('',(-0.0285184533764339,-0.0341040041245525,-0.00230839940462792));
#1472=CARTESIAN_POINT('',(-0.0319640235406144,-0.0668864149280623,-0.00230839935143322));
#1473=CARTESIAN_POINT('',(-0.0352887735744019,-0.0985192989597845,-0.00230839930010382));
#1474=CARTESIAN_POINT('',(-0.00664801389956151,-0.101475657896408,0.0264844869530208));
#1475=CARTESIAN_POINT('',(-0.0319819109451398,-0.0988606402137466,0.00101602786640128));
#1476=CARTESIAN_POINT('',(-0.0286578111251478,-0.0672339153354399,0.00101602497005471));
#1477=CARTESIAN_POINT('',(-0.0336152058178882,-0.114400416508939,0.00101602928951979));
#1478=CARTESIAN_POINT('',(-0.014272143133579,-0.116397046027003,0.0204618332677843));
#1479=CARTESIAN_POINT('',(0.00605869256624148,-0.118495635446252,0.0409006568494146));
#1480=CARTESIAN_POINT('',(0.0109284427885707,-0.0713182287550986,0.0408123482481162));
#1481=CARTESIAN_POINT('',(0.00766304862268359,-0.102952875613288,0.0408715632752351));
#1482=CARTESIAN_POINT('',(-0.00664801389956151,-0.101475657896408,0.0264844869530208));
#1483=CARTESIAN_POINT('',(0.0114529152871089,-0.103344073553528,0.0446815599730591));
#1484=CARTESIAN_POINT('',(0.014719037840005,-0.0717023701917024,0.0446223317372879));
#1485=CARTESIAN_POINT('',(0.0181032744032172,-0.0389163960878057,0.0445609616086948));
#1486=CARTESIAN_POINT('',(0.013533473764504,-0.0332946022904912,0.0394285573495858));
#1487=CARTESIAN_POINT('',(0.016403939868537,-0.036825865427519,0.0426524162490663));
#1488=CARTESIAN_POINT('',(-0.00574561649143552,-0.034539542030837,0.020385211605192));
#1489=CARTESIAN_POINT('',(-0.0275760771580725,-0.0741109866046388,0.0387317072611028));
#1490=CARTESIAN_POINT('',(-0.0275760771580725,-0.0741109866046388,0.0387317072611028));
#1491=CARTESIAN_POINT('',(0.0142966478851591,-0.0741109866046388,0.080375049135332));
#1492=CARTESIAN_POINT('',(-0.0110536136819988,-0.0758475674929966,0.0221182334371248));
#1493=CARTESIAN_POINT('',(-0.0272245307151387,-0.0673845556232776,0.0383782244020817));
#1494=CARTESIAN_POINT('',(-0.0275760771580725,-0.0741109866046387,0.0387317072611028));
#1495=CARTESIAN_POINT('',(0.0124956704639448,-0.0741109866046387,0.0785839376568706));
#1496=CARTESIAN_POINT('',(-0.0123932728827615,-0.0757067636371837,0.0234652718552852));
#1497=CARTESIAN_POINT('',(-0.0137329320835242,-0.0755659597813709,0.0248123102734456));
#1498=CARTESIAN_POINT('',(0.0263388155384931,-0.0755659597813709,0.0646645406692133));
#1499=CARTESIAN_POINT('',(-0.0123932728827615,-0.0757067636371838,0.0234652718552852));
#1500=CARTESIAN_POINT('',(-0.0123932728827615,-0.0757067636371837,0.0234652718552852));
#1501=CARTESIAN_POINT('',(0.0263277416733451,-0.0757067636371837,0.0619741686422069));
#1502=CARTESIAN_POINT('',(-0.0166065958161479,-0.116156078679464,0.0235031346873739));
#1503=CARTESIAN_POINT('',(-0.0389748866543025,-0.113847179076284,0.00101603395950387));
#1504=CARTESIAN_POINT('',(0.00605869726103851,-0.118495635446252,0.0462888151911345));
#1505=CARTESIAN_POINT('',(-0.0347195356193396,-0.0733601829776773,0.00101603025174176));
#1506=CARTESIAN_POINT('',(-0.0306376529795058,-0.0345236298575988,0.00101602669512569));
#1507=CARTESIAN_POINT('',(-0.00834322100957057,-0.0368249056010592,0.0234288762510437));
#1508=CARTESIAN_POINT('',(0.0142482131994211,-0.0391568385081296,0.0461403055828771));
#1509=CARTESIAN_POINT('',(0.0102387097646306,-0.0780003038886208,0.0462130143716368));
#1510=CARTESIAN_POINT('',(0.0182988530519945,-0.0370214623178408,0.0211865599730679));
#1511=CARTESIAN_POINT('',(0.0167340718713971,-0.0521809167887951,0.0318857686692379));
#1512=CARTESIAN_POINT('',(0.0177772654745469,-0.0420746144429147,0.0318857686692379));
#1513=CARTESIAN_POINT('',(0.0182988344385705,-0.0370214603965244,-0.000403440026923937));
#1514=CARTESIAN_POINT('',(0.00988808601317557,-0.118503523060185,-0.000403440026923941));
#1515=CARTESIAN_POINT('',(0.0181032356379799,-0.038916392086377,-0.000403440026923941));
#1516=CARTESIAN_POINT('',(0.0181032542514039,-0.0389163940076935,0.0211865599730679));
#1517=CARTESIAN_POINT('',(0.0182988733077795,-0.0370214644086852,0.0446815599730591));
#1518=CARTESIAN_POINT('',(0.00988812488238458,-0.118503527072346,0.0446815599730591));
#1519=CARTESIAN_POINT('',(0.00988808437081462,-0.118503522890657,-0.00230844002692323));
#1520=CARTESIAN_POINT('',(-0.00507197112284513,-0.034609077110558,0.0211865803364776));
#1521=CARTESIAN_POINT('',(-0.0136783183488306,-0.117986071464071,0.0211865803364776));
#1522=CARTESIAN_POINT('',(0.00779759274958119,-0.12020285979208,0.0427765616241471));
#1523=CARTESIAN_POINT('',(-0.0351542294472424,-0.115769283136062,-0.000403400951191801));
#1524=CARTESIAN_POINT('',(0.022663599027294,-0.108118716007304,0.0563232165497435));
#1525=CARTESIAN_POINT('',(0.0145090066433538,-0.0366302664684484,0.0408715632752351));
#1526=CARTESIAN_POINT('',(0.00605869254089173,-0.118495635446252,0.0408715632752351));
#1527=CARTESIAN_POINT('',(-0.0135222817441309,-0.116474448218149,0.0211865840179281));
#1528=CARTESIAN_POINT('',(-0.0335862660025215,-0.11440340373703,0.00101602926430403));
#1529=CARTESIAN_POINT('',(-0.0251359592285189,-0.0325380340464411,0.00101602190140328));
#1530=CARTESIAN_POINT('',(-0.0284428155534697,-0.0321966898124307,-0.00230839930010381));
#1531=CARTESIAN_POINT('',(-0.0368535639788646,-0.113678752476091,-0.00230839930010381));
#1532=CARTESIAN_POINT('',(-0.0472383861165559,-0.100903287331824,-0.0139500558767882));
#1533=CARTESIAN_POINT('',(-0.00507199137863011,-0.0346090750197136,-0.00230841966351352));
#1534=CARTESIAN_POINT('',(-0.00526759017922069,-0.0365040067095662,-0.00230841966351352));
#1535=CARTESIAN_POINT('',(0.0162083023057671,-0.0387207931162586,-0.00230843837583596));
#1536=CARTESIAN_POINT('',(0.0164039011063577,-0.036825861426406,-0.00230843837583596));
#1537=CARTESIAN_POINT('',(0.00799315268096276,-0.118307924090067,-0.00230843837583596));
#1538=CARTESIAN_POINT('',(-0.0368535639788646,-0.113678752476091,-0.00230839930010381));
#1539=CARTESIAN_POINT('',(-0.0229321360315384,-0.0417027487386658,-0.0023084048969895));
#1540=CARTESIAN_POINT('',(-0.0283042360315365,-0.0417027487386658,-0.00230840026553164));
#1541=CARTESIAN_POINT('',(-0.00507197112284515,-0.034609077110558,0.0211865599730679));
#1542=CARTESIAN_POINT('',(0.0164039213621251,-0.0368258635172485,0.0211865412607455));
#1543=CARTESIAN_POINT('',(0.0164039027487186,-0.0368258615959339,-0.000403438375836667));
#1544=CARTESIAN_POINT('',(-0.00507198973625162,-0.0346090751892433,-0.000403419663514232));
#1545=CARTESIAN_POINT('',(0.00229021780777713,-0.0353690176045939,0.0137852408124915));
#1546=CARTESIAN_POINT('',(-0.0136783183488306,-0.117986071464071,0.0211865599730679));
#1547=CARTESIAN_POINT('',(0.00313409766205518,-0.119721484104204,0.0341242367070497));
#1548=CARTESIAN_POINT('',(0.00313409766205518,-0.119721484104204,0.0358985218184779));
#1549=CARTESIAN_POINT('',(0.00136919000616085,-0.119539306655542,0.0341242367070497));
#1550=CARTESIAN_POINT('',(0.00325175817244814,-0.119733629267448,0.0358985218184779));
#1551=CARTESIAN_POINT('',(0.00336941868284107,-0.119745774430693,0.0358985218184779));
#1552=CARTESIAN_POINT('',(0.00336941868284108,-0.119745774430693,0.0341242367070497));
#1553=CARTESIAN_POINT('',(0.00513432633873541,-0.119927951879355,0.0341242367070497));
#1554=CARTESIAN_POINT('',(0.00513432633873541,-0.119927951879355,0.0305756664841936));
#1555=CARTESIAN_POINT('',(0.00513432633873541,-0.119927951879355,0.0270270962613373));
#1556=CARTESIAN_POINT('',(0.00336941868284108,-0.119745774430693,0.0270270962613374));
#1557=CARTESIAN_POINT('',(0.00336941868284109,-0.119745774430693,0.0252528111499093));
#1558=CARTESIAN_POINT('',(0.00325175817244814,-0.119733629267448,0.0252528111499093));
#1559=CARTESIAN_POINT('',(0.00313409766205518,-0.119721484104204,0.0252528111499093));
#1560=CARTESIAN_POINT('',(0.00313409766205518,-0.119721484104204,0.0270270962613373));
#1561=CARTESIAN_POINT('',(0.00136919000616085,-0.119539306655542,0.0270270962613373));
#1562=CARTESIAN_POINT('',(0.00136919000616085,-0.119539306655542,0.0305756664841936));
#1563=CARTESIAN_POINT('',(0.00969248721258499,-0.120398454750038,-0.00040344002692394));
#1564=CARTESIAN_POINT('',(0.00779755552273313,-0.120202855949447,-0.000403438375836667));
#1565=CARTESIAN_POINT('',(0.00779759439194213,-0.120202859961608,0.0446815616241464));
#1566=CARTESIAN_POINT('',(-0.0444728338176036,-0.113279667430505,0.0240819627024713));
#1567=CARTESIAN_POINT('',(-0.0444728539153483,-0.113279667430505,0.00101603874997934));
#1568=CARTESIAN_POINT('',(0.00605867791177941,-0.118495635446252,0.0240819186734773));
#1569=CARTESIAN_POINT('',(-0.0403780958814607,-0.0736102689614439,0.00101603518214473));
#1570=CARTESIAN_POINT('',(-0.0229321331654463,-0.0417027490345099,0.00101601998117091));
#1571=CARTESIAN_POINT('',(-0.0283042331654442,-0.0417027490345099,0.00101602466197603));
#1572=CARTESIAN_POINT('',(-0.0444728539153483,-0.113279667430505,0.00101603874997934));
#1573=CARTESIAN_POINT('',(0.00605865781403462,-0.118495635446252,0.00101599472098538));
#1574=CARTESIAN_POINT('',(0.0101534158479223,-0.0788262369771907,0.00101599115315077));
#1575=CARTESIAN_POINT('',(0.01424817388181,-0.0391568385081296,0.00101598758531613));
#1576=CARTESIAN_POINT('',(-0.036283337847573,-0.0339408704923828,0.0010160316143101));
#1577=CARTESIAN_POINT('',(0.01020581713319,-0.0783187618988822,0.0224197028369914));
#1578=CARTESIAN_POINT('',(0.0129442084916934,-0.0517897191876141,0.0318857719714125));
#1579=CARTESIAN_POINT('',(0.0139874020948432,-0.0416834168417337,0.0318857719714125));
#1580=CARTESIAN_POINT('',(0.0142481939795548,-0.0391568385081296,0.0240819115378081));
#1581=CARTESIAN_POINT('',(0.00605867791177941,-0.118495635446252,0.0240819186734773));
#1582=CARTESIAN_POINT('',(-0.0444728338176036,-0.113279667430505,0.0240819627024713));
#1583=CARTESIAN_POINT('',(0.0034077912502899,-0.118222004334295,0.0358985218184779));
#1584=CARTESIAN_POINT('',(0.00329013073989693,-0.118209859171051,0.0358985218184779));
#1585=CARTESIAN_POINT('',(0.00352545176068286,-0.118234149497539,0.0358985218184779));
#1586=CARTESIAN_POINT('',(0.00329013072359865,-0.118209859328946,0.0341242367070497));
#1587=CARTESIAN_POINT('',(0.0015252230351077,-0.118027682196076,0.0341242367070497));
#1588=CARTESIAN_POINT('',(0.0015252230351077,-0.118027682196076,0.0305756664843726));
#1589=CARTESIAN_POINT('',(0.00152522300251111,-0.118027682511867,0.0270270962613373));
#1590=CARTESIAN_POINT('',(0.00329013065840545,-0.118209859960528,0.0270270962613373));
#1591=CARTESIAN_POINT('',(0.00329013064210715,-0.118209860118424,0.0252528111499093));
#1592=CARTESIAN_POINT('',(0.00340779115250011,-0.118222005281668,0.0252528111499093));
#1593=CARTESIAN_POINT('',(0.00352545166289306,-0.118234150444912,0.0252528111499093));
#1594=CARTESIAN_POINT('',(0.00352545167919135,-0.118234150287017,0.0270270962613374));
#1595=CARTESIAN_POINT('',(0.0052903593676823,-0.118416327419888,0.0270270962613373));
#1596=CARTESIAN_POINT('',(0.0052903593676823,-0.118416327419888,0.0305756664843726));
#1597=CARTESIAN_POINT('',(0.00529035940027889,-0.118416327104097,0.0341242367070497));
#1598=CARTESIAN_POINT('',(0.00352545174438454,-0.118234149655435,0.0341242367070497));
#1599=CARTESIAN_POINT('',(-0.0362833177498281,-0.0339408704923828,0.024081955566802));
#1600=CARTESIAN_POINT('',(0.0129422190620978,-0.0517895138345426,0.0318857719731458));
#1601=CARTESIAN_POINT('',(0.00340799660336141,-0.118220014904699,0.0358985218184779));
#1602=CARTESIAN_POINT('',(0.00352565711375436,-0.118232160067943,0.0358985218184779));
#1603=CARTESIAN_POINT('',(0.00329033609296845,-0.118207869741455,0.0358985218184779));
#1604=CARTESIAN_POINT('',(0.00352565711375435,-0.118232160067943,0.0341242367070497));
#1605=CARTESIAN_POINT('',(0.00529056476964868,-0.118414337516605,0.0341242367070497));
#1606=CARTESIAN_POINT('',(0.00529056476964869,-0.118414337516605,0.0305756664841936));
#1607=CARTESIAN_POINT('',(0.00529056476964869,-0.118414337516605,0.0270270962613373));
#1608=CARTESIAN_POINT('',(0.00352565711375435,-0.118232160067943,0.0270270962613374));
#1609=CARTESIAN_POINT('',(0.00352565711375436,-0.118232160067943,0.0252528111499093));
#1610=CARTESIAN_POINT('',(0.00340799660336141,-0.118220014904699,0.0252528111499093));
#1611=CARTESIAN_POINT('',(0.00329033609296846,-0.118207869741455,0.0252528111499093));
#1612=CARTESIAN_POINT('',(0.00329033609296845,-0.118207869741455,0.0270270962613373));
#1613=CARTESIAN_POINT('',(0.00152542843707413,-0.118025692292793,0.0270270962613373));
#1614=CARTESIAN_POINT('',(0.00152542843707412,-0.118025692292793,0.0305756664841936));
#1615=CARTESIAN_POINT('',(0.00152542843707412,-0.118025692292793,0.0341242367070497));
#1616=CARTESIAN_POINT('',(0.00329033609296845,-0.118207869741455,0.0341242367070497));
#1617=CARTESIAN_POINT('',(-0.0229321307759834,-0.0417027492811552,0.00378759510300822));
#1618=CARTESIAN_POINT('',(-0.013482739804025,-0.116091137683374,-0.00230841966351352));
#1619=CARTESIAN_POINT('',(0.00789535410184795,-0.119255390019757,-0.00135593837583631));
#1620=CARTESIAN_POINT('',(0.0098881046265996,-0.118503524981501,0.0211865599730679));
#1621=CARTESIAN_POINT('',(0.00988808601317556,-0.118503523060185,-0.000403440026923943));
#1622=CARTESIAN_POINT('',(0.00988808601317557,-0.118503523060185,-0.000403440026923941));
#1623=CARTESIAN_POINT('',(0.00988808601317557,-0.118503523060185,-0.000403440026923942));
#1624=CARTESIAN_POINT('',(-0.00507198973625162,-0.0346090751892433,-0.000403419663514235));
#1625=CARTESIAN_POINT('',(0.0164039027487186,-0.0368258615959339,-0.000403438375836668));
#1626=CARTESIAN_POINT('',(0.0164039011063577,-0.036825861426406,-0.00230843837583596));
#1627=CARTESIAN_POINT('',(0.0171557689718735,-0.0388185926013178,-0.00135593920137994));
#1628=CARTESIAN_POINT('',(0.0164039027487186,-0.0368258615959339,-0.000403438375836667));
#1629=CARTESIAN_POINT('',(0.0164039027487186,-0.0368258615959339,-0.000403438375836665));
#1630=CARTESIAN_POINT('',(0.0164039213621251,-0.0368258635172485,0.0211865412607455));
#1631=CARTESIAN_POINT('',(0.00515786586136661,-0.0463021201708998,0.01778));
#1632=CARTESIAN_POINT('',(-0.0123932728827615,-0.0757067636371837,0.0234652718552852));
#1633=CARTESIAN_POINT('',(-0.0110536136819988,-0.0758475674929965,0.0221182334371248));
#1634=MECHANICAL_DESIGN_GEOMETRIC_PRESENTATION_REPRESENTATION('',(#982),#1635);
#1635=(
GEOMETRIC_REPRESENTATION_CONTEXT(3)
GLOBAL_UNCERTAINTY_ASSIGNED_CONTEXT((#1636))
GLOBAL_UNIT_ASSIGNED_CONTEXT((#1639,#1638,#1637))
REPRESENTATION_CONTEXT('Part 1','TOP_LEVEL_ASSEMBLY_PART')
);
#1636=UNCERTAINTY_MEASURE_WITH_UNIT(LENGTH_MEASURE(2.E-05),#1639,'DISTANCE_ACCURACY_VALUE','Maximum Tolerance applied to model');
#1637=(
NAMED_UNIT(*)
SI_UNIT($,.STERADIAN.)
SOLID_ANGLE_UNIT()
);
#1638=(
NAMED_UNIT(*)
PLANE_ANGLE_UNIT()
SI_UNIT($,.RADIAN.)
);
#1639=(
LENGTH_UNIT()
NAMED_UNIT(*)
SI_UNIT($,.METRE.)
);
#1640=PRODUCT_DEFINITION_SHAPE('','',#1641);
#1641=PRODUCT_DEFINITION('','',#1643,#1642);
#1642=PRODUCT_DEFINITION_CONTEXT('',#1649,'design');
#1643=PRODUCT_DEFINITION_FORMATION_WITH_SPECIFIED_SOURCE('','',#1645,.NOT_KNOWN.);
#1644=PRODUCT_RELATED_PRODUCT_CATEGORY('','',(#1645));
#1645=PRODUCT('Part 1','Part 1','Part 1',(#1647));
#1646=PRODUCT_CATEGORY('','');
#1647=PRODUCT_CONTEXT('',#1649,'mechanical');
#1648=APPLICATION_PROTOCOL_DEFINITION('international standard','ap242_managed_model_based_3d_engineering',2020,#1649);
#1649=APPLICATION_CONTEXT('managed model based 3d engineering');
ENDSEC;
END-ISO-10303-21;
