ISO-10303-21;
HEADER;
/*Generated by software containing ST-Developer
 * from STEP Tools, Inc. (www.steptools.com) 
 */
/*OPTION: using custom renumber hook */
/*description */
/*implementation_level */
FILE_DESCRIPTION(('STEP AP242 Edition 2','STEP AP242 Edition 2''CAx-IF Rec.Pracs.---Representation and Presentation of Product Manufa
cturing Information (PMI)---4.0---2014-10-13','STEP AP242 Edition 2''CAx-IF Rec.Pracs.---Representation and Presentation of Product Manufa
cturing Information (PMI)---4.0---2014-10-13''CAx-IF Rec.Pracs.---3D Tessellated Geometry---0.4---2014-09-14','STEP AP242 Edition 2''CAx-IF Rec.Pracs.---Representation and Presentation of Product Manufa
cturing Information (PMI)---4.0---2014-10-13''CAx-IF Rec.Pracs.---3D Tessellated Geometry---0.4---2014-09-14''2;1','STEP AP242 Edition 2''CAx-IF Rec.Pracs.---Representation and Presentation of Product Manufa
cturing Information (PMI)---4.0---2014-10-13''CAx-IF Rec.Pracs.---3D Tessellated Geometry---0.4---2014-09-14''2;1''CAx-IF Rec.Pracs.---User Defined Attributes---1.5---2016-08-15'),'2;1');
/*name */
/*time_stamp */
/*author */
/*organization */
/*preprocessor_version */
/*originating_system */
/*authorisation */
FILE_NAME('/vol/tmp/translate-12667869359314195070/Visual Unit.step','2026-03-29T01:46:18',(''),(''),'ST-DEVELOPER v20','ONSHAPE BY PTC INC, 1.212','  ');
FILE_SCHEMA(('AP242_MANAGED_MODEL_BASED_3D_ENGINEERING_MIM_LF { 1 0 10303 442 3 1 4 }'));
ENDSEC;
DATA;
#10=SHAPE_REPRESENTATION_RELATIONSHIP('','',#89,#11);
#11=ADVANCED_BREP_SHAPE_REPRESENTATION('',(#87),#149);
#12=PLANE('',#97);
#13=PLANE('',#98);
#14=PLANE('',#100);
#15=ORIENTED_EDGE('',*,*,#27,.F.);
#16=ORIENTED_EDGE('',*,*,#28,.F.);
#17=ORIENTED_EDGE('',*,*,#29,.T.);
#18=ORIENTED_EDGE('',*,*,#30,.F.);
#19=ORIENTED_EDGE('',*,*,#27,.T.);
#20=ORIENTED_EDGE('',*,*,#29,.F.);
#21=ORIENTED_EDGE('',*,*,#30,.T.);
#22=ORIENTED_EDGE('',*,*,#31,.F.);
#23=ORIENTED_EDGE('',*,*,#28,.T.);
#24=ORIENTED_EDGE('',*,*,#32,.F.);
#25=ORIENTED_EDGE('',*,*,#32,.T.);
#26=ORIENTED_EDGE('',*,*,#31,.T.);
#27=EDGE_CURVE('',#33,#33,#39,.T.);
#28=EDGE_CURVE('',#34,#34,#40,.F.);
#29=EDGE_CURVE('',#35,#35,#41,.T.);
#30=EDGE_CURVE('',#36,#36,#42,.T.);
#31=EDGE_CURVE('',#37,#37,#43,.T.);
#32=EDGE_CURVE('',#38,#38,#44,.F.);
#33=VERTEX_POINT('',#132);
#34=VERTEX_POINT('',#134);
#35=VERTEX_POINT('',#137);
#36=VERTEX_POINT('',#139);
#37=VERTEX_POINT('',#143);
#38=VERTEX_POINT('',#146);
#39=CIRCLE('',#92,0.059055);
#40=CIRCLE('',#93,0.059055);
#41=CIRCLE('',#95,0.06223);
#42=CIRCLE('',#96,0.06223);
#43=CIRCLE('',#99,0.052705);
#44=CIRCLE('',#101,0.052705);
#45=EDGE_LOOP('',(#15));
#46=EDGE_LOOP('',(#16));
#47=EDGE_LOOP('',(#17));
#48=EDGE_LOOP('',(#18));
#49=EDGE_LOOP('',(#19));
#50=EDGE_LOOP('',(#20));
#51=EDGE_LOOP('',(#21));
#52=EDGE_LOOP('',(#22));
#53=EDGE_LOOP('',(#23));
#54=EDGE_LOOP('',(#24));
#55=EDGE_LOOP('',(#25));
#56=EDGE_LOOP('',(#26));
#57=FACE_BOUND('',#45,.T.);
#58=FACE_BOUND('',#46,.T.);
#59=FACE_BOUND('',#47,.T.);
#60=FACE_BOUND('',#48,.T.);
#61=FACE_BOUND('',#49,.T.);
#62=FACE_BOUND('',#50,.T.);
#63=FACE_BOUND('',#51,.T.);
#64=FACE_BOUND('',#52,.T.);
#65=FACE_BOUND('',#53,.T.);
#66=FACE_BOUND('',#54,.T.);
#67=FACE_BOUND('',#55,.T.);
#68=FACE_BOUND('',#56,.T.);
#69=CYLINDRICAL_SURFACE('',#91,0.059055);
#70=CYLINDRICAL_SURFACE('',#94,0.06223);
#71=CYLINDRICAL_SURFACE('',#102,0.052705);
#72=ADVANCED_FACE('',(#57,#58),#69,.F.);
#73=ADVANCED_FACE('',(#59,#60),#70,.T.);
#74=ADVANCED_FACE('',(#61,#62),#12,.F.);
#75=ADVANCED_FACE('',(#63,#64),#13,.T.);
#76=ADVANCED_FACE('',(#65,#66),#14,.F.);
#77=ADVANCED_FACE('',(#67,#68),#71,.F.);
#78=CLOSED_SHELL('',(#72,#73,#74,#75,#76,#77));
#79=STYLED_ITEM('',(#80),#87);
#80=PRESENTATION_STYLE_ASSIGNMENT((#81));
#81=SURFACE_STYLE_USAGE(.BOTH.,#82);
#82=SURFACE_SIDE_STYLE('',(#83));
#83=SURFACE_STYLE_FILL_AREA(#84);
#84=FILL_AREA_STYLE('',(#85));
#85=FILL_AREA_STYLE_COLOUR('',#86);
#86=COLOUR_RGB('',0.768627450980392,0.886274509803922,0.952941176470588);
#87=MANIFOLD_SOLID_BREP('Part 4',#78);
#88=SHAPE_DEFINITION_REPRESENTATION(#154,#89);
#89=SHAPE_REPRESENTATION('Part 4',(#90),#149);
#90=AXIS2_PLACEMENT_3D('',#129,#103,#104);
#91=AXIS2_PLACEMENT_3D('',#130,#105,#106);
#92=AXIS2_PLACEMENT_3D('',#131,#107,#108);
#93=AXIS2_PLACEMENT_3D('',#133,#109,#110);
#94=AXIS2_PLACEMENT_3D('',#135,#111,#112);
#95=AXIS2_PLACEMENT_3D('',#136,#113,#114);
#96=AXIS2_PLACEMENT_3D('',#138,#115,#116);
#97=AXIS2_PLACEMENT_3D('',#140,#117,#118);
#98=AXIS2_PLACEMENT_3D('',#141,#119,#120);
#99=AXIS2_PLACEMENT_3D('',#142,#121,#122);
#100=AXIS2_PLACEMENT_3D('',#144,#123,#124);
#101=AXIS2_PLACEMENT_3D('',#145,#125,#126);
#102=AXIS2_PLACEMENT_3D('',#147,#127,#128);
#103=DIRECTION('',(0.,0.,1.));
#104=DIRECTION('',(1.,0.,0.));
#105=DIRECTION('',(-0.703233176253404,0.0739127852035666,0.707106781186548));
#106=DIRECTION('',(0.709046228824512,0.,0.70516199939428));
#107=DIRECTION('',(-0.703233176253404,0.0739127852035666,0.707106781186548));
#108=DIRECTION('',(0.709046228824512,0.,0.70516199939428));
#109=DIRECTION('',(-0.703233176253404,0.0739127852035666,0.707106781186548));
#110=DIRECTION('',(0.709046228824512,0.,0.70516199939428));
#111=DIRECTION('',(-0.703233176253404,0.0739127852035666,0.707106781186548));
#112=DIRECTION('',(0.709046228824512,0.,0.70516199939428));
#113=DIRECTION('',(-0.703233176253404,0.0739127852035666,0.707106781186548));
#114=DIRECTION('',(0.709046228824512,0.,0.70516199939428));
#115=DIRECTION('',(-0.703233176253404,0.0739127852035666,0.707106781186548));
#116=DIRECTION('',(0.709046228824512,0.,0.70516199939428));
#117=DIRECTION('',(-0.703233176253404,0.0739127852035666,0.707106781186548));
#118=DIRECTION('',(-0.052120487394947,-0.997264709183801,0.0524075816105051));
#119=DIRECTION('',(-0.703233176253404,0.0739127852035666,0.707106781186548));
#120=DIRECTION('',(-0.052120487394947,-0.997264709183801,0.0524075816105051));
#121=DIRECTION('',(-0.703233176253404,0.0739127852035666,0.707106781186548));
#122=DIRECTION('',(0.709046228824512,0.,0.70516199939428));
#123=DIRECTION('',(-0.703233176253404,0.0739127852035666,0.707106781186548));
#124=DIRECTION('',(-0.052120487394947,-0.997264709183801,0.0524075816105051));
#125=DIRECTION('',(-0.703233176253404,0.0739127852035666,0.707106781186548));
#126=DIRECTION('',(0.709046228824512,0.,0.70516199939428));
#127=DIRECTION('',(-0.703233176253404,0.0739127852035666,0.707106781186548));
#128=DIRECTION('',(0.709046228824512,0.,0.70516199939428));
#129=CARTESIAN_POINT('',(0.,0.,0.));
#130=CARTESIAN_POINT('',(-0.0186450158196543,-0.075049678976724,0.0297514511400336));
#131=CARTESIAN_POINT('',(-0.0186450158196543,-0.075049678976724,0.0297514511400336));
#132=CARTESIAN_POINT('',(0.0232277092235773,-0.075049678976724,0.0713947930142629));
#133=CARTESIAN_POINT('',(-0.0275760771580725,-0.0741109866046388,0.0387317072611028));
#134=CARTESIAN_POINT('',(0.0142966478851591,-0.0741109866046388,0.080375049135332));
#135=CARTESIAN_POINT('',(-0.0186450158196542,-0.075049678976724,0.0297514511400336));
#136=CARTESIAN_POINT('',(-0.0186450158196542,-0.075049678976724,0.0297514511400336));
#137=CARTESIAN_POINT('',(0.0254789310000951,-0.075049678976724,0.0736336823623397));
#138=CARTESIAN_POINT('',(-0.0298088424926771,-0.0738763135116174,0.0409767712913701));
#139=CARTESIAN_POINT('',(0.0143151043270723,-0.0738763135116174,0.0848590025136761));
#140=CARTESIAN_POINT('',(-0.0186450158196543,-0.075049678976724,0.0297514511400336));
#141=CARTESIAN_POINT('',(-0.0298088424926771,-0.0738763135116174,0.0409767712913701));
#142=CARTESIAN_POINT('',(-0.0298088424926771,-0.0738763135116174,0.0409767712913701));
#143=CARTESIAN_POINT('',(0.00756143899751885,-0.0738763135116174,0.0781423344694456));
#144=CARTESIAN_POINT('',(-0.0272245307151387,-0.0673845556232776,0.0383782244020817));
#145=CARTESIAN_POINT('',(-0.0275760771580725,-0.0741109866046388,0.0387317072611028));
#146=CARTESIAN_POINT('',(0.0097942043321234,-0.0741109866046388,0.0758972704391783));
#147=CARTESIAN_POINT('',(-0.02757467069172,-0.0741111344302092,0.0387302930475404));
#148=MECHANICAL_DESIGN_GEOMETRIC_PRESENTATION_REPRESENTATION('',(#79),#149);
#149=(
GEOMETRIC_REPRESENTATION_CONTEXT(3)
GLOBAL_UNCERTAINTY_ASSIGNED_CONTEXT((#150))
GLOBAL_UNIT_ASSIGNED_CONTEXT((#153,#152,#151))
REPRESENTATION_CONTEXT('Part 4','TOP_LEVEL_ASSEMBLY_PART')
);
#150=UNCERTAINTY_MEASURE_WITH_UNIT(LENGTH_MEASURE(1.E-08),#153,'DISTANCE_ACCURACY_VALUE','Maximum Tolerance applied to model');
#151=(
NAMED_UNIT(*)
SI_UNIT($,.STERADIAN.)
SOLID_ANGLE_UNIT()
);
#152=(
NAMED_UNIT(*)
PLANE_ANGLE_UNIT()
SI_UNIT($,.RADIAN.)
);
#153=(
LENGTH_UNIT()
NAMED_UNIT(*)
SI_UNIT($,.METRE.)
);
#154=PRODUCT_DEFINITION_SHAPE('','',#155);
#155=PRODUCT_DEFINITION('','',#157,#156);
#156=PRODUCT_DEFINITION_CONTEXT('',#163,'design');
#157=PRODUCT_DEFINITION_FORMATION_WITH_SPECIFIED_SOURCE('','',#159,.NOT_KNOWN.);
#158=PRODUCT_RELATED_PRODUCT_CATEGORY('','',(#159));
#159=PRODUCT('Part 4','Part 4','Part 4',(#161));
#160=PRODUCT_CATEGORY('','');
#161=PRODUCT_CONTEXT('',#163,'mechanical');
#162=APPLICATION_PROTOCOL_DEFINITION('international standard','ap242_managed_model_based_3d_engineering',2020,#163);
#163=APPLICATION_CONTEXT('managed model based 3d engineering');
ENDSEC;
END-ISO-10303-21;
