ISO-10303-21;
HEADER;
/* Generated by software containing ST-Developer
 * from STEP Tools, Inc. (www.steptools.com) 
 */
/* OPTION: using custom renumber hook */

FILE_DESCRIPTION(
/* description */ ('STEP AP242 Edition 2',
'CAx-IF Rec.Pracs.---Representation and Presentation of Product Manufa
cturing Information (PMI)---4.0---2014-10-13',
'CAx-IF Rec.Pracs.---3D Tessellated Geometry---0.4---2014-09-14','2;1',
'CAx-IF Rec.Pracs.---User Defined Attributes---1.5---2016-08-15'),
/* implementation_level */ '2;1');

FILE_NAME(
/* name */ 'TowerConnector2',
/* time_stamp */ '2026-04-24T21:12:20Z',
/* author */ (''),
/* organization */ (''),
/* preprocessor_version */ 'ST-DEVELOPER v20',
/* originating_system */ 'ONSHAPE BY PTC INC, 1.214',
/* authorisation */ '  ');

FILE_SCHEMA (('AP242_MANAGED_MODEL_BASED_3D_ENGINEERING_MIM_LF { 1 0 10303 442 3 1 4 }'));
ENDSEC;

DATA;
#10=SHAPE_REPRESENTATION_RELATIONSHIP('','',#599,#11);
#11=ADVANCED_BREP_SHAPE_REPRESENTATION('',(#597),#1139);
#12=SPHERICAL_SURFACE('',#657,0.0015);
#13=SPHERICAL_SURFACE('',#669,0.0015);
#14=SPHERICAL_SURFACE('',#671,0.0015);
#15=SPHERICAL_SURFACE('',#677,0.0015);
#16=TOROIDAL_SURFACE('',#653,0.02715,0.0015);
#17=TOROIDAL_SURFACE('',#656,0.02715,0.0015);
#18=TOROIDAL_SURFACE('',#660,0.02715,0.0015);
#19=TOROIDAL_SURFACE('',#680,0.02715,0.0015);
#20=ELLIPSE('',#618,0.0144141485453865,0.01365);
#21=PLANE('',#607);
#22=PLANE('',#612);
#23=PLANE('',#617);
#24=PLANE('',#622);
#25=PLANE('',#626);
#26=PLANE('',#627);
#27=PLANE('',#628);
#28=PLANE('',#629);
#29=PLANE('',#640);
#30=PLANE('',#645);
#31=PLANE('',#646);
#32=PLANE('',#651);
#33=CIRCLE('',#602,0.02865);
#34=CIRCLE('',#603,0.02865);
#35=CIRCLE('',#605,0.02865);
#36=CIRCLE('',#606,0.02865);
#37=CIRCLE('',#608,0.0015);
#38=CIRCLE('',#609,0.0015);
#39=CIRCLE('',#610,0.0022);
#40=CIRCLE('',#611,0.0022);
#41=CIRCLE('',#613,0.0015);
#42=CIRCLE('',#614,0.0015);
#43=CIRCLE('',#615,0.0022);
#44=CIRCLE('',#616,0.0022);
#45=CIRCLE('',#619,0.02715);
#46=CIRCLE('',#620,0.013);
#47=CIRCLE('',#621,0.02715);
#48=CIRCLE('',#623,0.02715);
#49=CIRCLE('',#624,0.013);
#50=CIRCLE('',#625,0.02715);
#51=CIRCLE('',#630,0.01365);
#52=CIRCLE('',#633,0.0022);
#53=CIRCLE('',#635,0.0022);
#54=CIRCLE('',#637,0.0022);
#55=CIRCLE('',#639,0.0022);
#56=CIRCLE('',#641,0.004);
#57=CIRCLE('',#644,0.004);
#58=CIRCLE('',#647,0.004);
#59=CIRCLE('',#650,0.004);
#60=CIRCLE('',#655,0.0015);
#61=CIRCLE('',#658,0.0015);
#62=CIRCLE('',#659,0.0015);
#63=CIRCLE('',#662,0.0015);
#64=CIRCLE('',#664,0.0015);
#65=CIRCLE('',#666,0.0015);
#66=CIRCLE('',#668,0.0015);
#67=CIRCLE('',#670,0.0015);
#68=CIRCLE('',#672,0.0015);
#69=CIRCLE('',#674,0.0015);
#70=CIRCLE('',#676,0.0015);
#71=CIRCLE('',#678,0.0015);
#72=LINE('',#895,#98);
#73=LINE('',#900,#99);
#74=LINE('',#952,#100);
#75=LINE('',#957,#101);
#76=LINE('',#985,#102);
#77=LINE('',#991,#103);
#78=LINE('',#993,#104);
#79=LINE('',#1001,#105);
#80=LINE('',#1003,#106);
#81=LINE('',#1005,#107);
#82=LINE('',#1015,#108);
#83=LINE('',#1022,#109);
#84=LINE('',#1024,#110);
#85=LINE('',#1026,#111);
#86=LINE('',#1033,#112);
#87=LINE('',#1035,#113);
#88=LINE('',#1037,#114);
#89=LINE('',#1039,#115);
#90=LINE('',#1041,#116);
#91=LINE('',#1043,#117);
#92=LINE('',#1046,#118);
#93=LINE('',#1047,#119);
#94=LINE('',#1049,#120);
#95=LINE('',#1052,#121);
#96=LINE('',#1054,#122);
#97=LINE('',#1056,#123);
#98=VECTOR('',#685,1.);
#99=VECTOR('',#688,1.);
#100=VECTOR('',#693,1.);
#101=VECTOR('',#696,1.);
#102=VECTOR('',#701,1.);
#103=VECTOR('',#706,1.);
#104=VECTOR('',#707,1.);
#105=VECTOR('',#716,1.);
#106=VECTOR('',#717,1.);
#107=VECTOR('',#718,1.);
#108=VECTOR('',#729,1.);
#109=VECTOR('',#736,1.);
#110=VECTOR('',#737,1.);
#111=VECTOR('',#740,1.);
#112=VECTOR('',#747,1.);
#113=VECTOR('',#748,1.);
#114=VECTOR('',#751,1.);
#115=VECTOR('',#752,1.);
#116=VECTOR('',#753,1.);
#117=VECTOR('',#756,1.);
#118=VECTOR('',#757,1.);
#119=VECTOR('',#758,1.);
#120=VECTOR('',#761,1.);
#121=VECTOR('',#762,1.);
#122=VECTOR('',#763,1.);
#123=VECTOR('',#764,1.);
#124=ORIENTED_EDGE('',*,*,#272,.F.);
#125=ORIENTED_EDGE('',*,*,#273,.F.);
#126=ORIENTED_EDGE('',*,*,#274,.T.);
#127=ORIENTED_EDGE('',*,*,#275,.T.);
#128=ORIENTED_EDGE('',*,*,#276,.T.);
#129=ORIENTED_EDGE('',*,*,#277,.T.);
#130=ORIENTED_EDGE('',*,*,#278,.F.);
#131=ORIENTED_EDGE('',*,*,#279,.F.);
#132=ORIENTED_EDGE('',*,*,#280,.T.);
#133=ORIENTED_EDGE('',*,*,#281,.T.);
#134=ORIENTED_EDGE('',*,*,#282,.T.);
#135=ORIENTED_EDGE('',*,*,#283,.T.);
#136=ORIENTED_EDGE('',*,*,#284,.F.);
#137=ORIENTED_EDGE('',*,*,#285,.T.);
#138=ORIENTED_EDGE('',*,*,#279,.T.);
#139=ORIENTED_EDGE('',*,*,#286,.T.);
#140=ORIENTED_EDGE('',*,*,#287,.T.);
#141=ORIENTED_EDGE('',*,*,#288,.F.);
#142=ORIENTED_EDGE('',*,*,#289,.T.);
#143=ORIENTED_EDGE('',*,*,#290,.F.);
#144=ORIENTED_EDGE('',*,*,#275,.F.);
#145=ORIENTED_EDGE('',*,*,#291,.T.);
#146=ORIENTED_EDGE('',*,*,#292,.F.);
#147=ORIENTED_EDGE('',*,*,#293,.T.);
#148=ORIENTED_EDGE('',*,*,#294,.T.);
#149=ORIENTED_EDGE('',*,*,#295,.T.);
#150=ORIENTED_EDGE('',*,*,#296,.T.);
#151=ORIENTED_EDGE('',*,*,#297,.F.);
#152=ORIENTED_EDGE('',*,*,#298,.T.);
#153=ORIENTED_EDGE('',*,*,#299,.T.);
#154=ORIENTED_EDGE('',*,*,#300,.T.);
#155=ORIENTED_EDGE('',*,*,#284,.T.);
#156=ORIENTED_EDGE('',*,*,#301,.T.);
#157=ORIENTED_EDGE('',*,*,#292,.T.);
#158=ORIENTED_EDGE('',*,*,#302,.T.);
#159=ORIENTED_EDGE('',*,*,#303,.T.);
#160=ORIENTED_EDGE('',*,*,#304,.T.);
#161=ORIENTED_EDGE('',*,*,#305,.T.);
#162=ORIENTED_EDGE('',*,*,#306,.T.);
#163=ORIENTED_EDGE('',*,*,#294,.F.);
#164=ORIENTED_EDGE('',*,*,#307,.F.);
#165=ORIENTED_EDGE('',*,*,#287,.F.);
#166=ORIENTED_EDGE('',*,*,#308,.T.);
#167=ORIENTED_EDGE('',*,*,#309,.T.);
#168=ORIENTED_EDGE('',*,*,#310,.T.);
#169=ORIENTED_EDGE('',*,*,#281,.F.);
#170=ORIENTED_EDGE('',*,*,#311,.T.);
#171=ORIENTED_EDGE('',*,*,#312,.T.);
#172=ORIENTED_EDGE('',*,*,#313,.T.);
#173=ORIENTED_EDGE('',*,*,#314,.T.);
#174=ORIENTED_EDGE('',*,*,#315,.T.);
#175=ORIENTED_EDGE('',*,*,#273,.T.);
#176=ORIENTED_EDGE('',*,*,#316,.T.);
#177=ORIENTED_EDGE('',*,*,#317,.T.);
#178=ORIENTED_EDGE('',*,*,#318,.T.);
#179=ORIENTED_EDGE('',*,*,#319,.T.);
#180=ORIENTED_EDGE('',*,*,#320,.T.);
#181=ORIENTED_EDGE('',*,*,#321,.F.);
#182=ORIENTED_EDGE('',*,*,#298,.F.);
#183=ORIENTED_EDGE('',*,*,#321,.T.);
#184=ORIENTED_EDGE('',*,*,#322,.T.);
#185=ORIENTED_EDGE('',*,*,#296,.F.);
#186=ORIENTED_EDGE('',*,*,#323,.F.);
#187=ORIENTED_EDGE('',*,*,#297,.T.);
#188=ORIENTED_EDGE('',*,*,#324,.T.);
#189=ORIENTED_EDGE('',*,*,#289,.F.);
#190=ORIENTED_EDGE('',*,*,#325,.F.);
#191=ORIENTED_EDGE('',*,*,#290,.T.);
#192=ORIENTED_EDGE('',*,*,#326,.T.);
#193=ORIENTED_EDGE('',*,*,#324,.F.);
#194=ORIENTED_EDGE('',*,*,#283,.F.);
#195=ORIENTED_EDGE('',*,*,#326,.F.);
#196=ORIENTED_EDGE('',*,*,#278,.T.);
#197=ORIENTED_EDGE('',*,*,#327,.T.);
#198=ORIENTED_EDGE('',*,*,#325,.T.);
#199=ORIENTED_EDGE('',*,*,#327,.F.);
#200=ORIENTED_EDGE('',*,*,#328,.T.);
#201=ORIENTED_EDGE('',*,*,#322,.F.);
#202=ORIENTED_EDGE('',*,*,#277,.F.);
#203=ORIENTED_EDGE('',*,*,#328,.F.);
#204=ORIENTED_EDGE('',*,*,#272,.T.);
#205=ORIENTED_EDGE('',*,*,#329,.T.);
#206=ORIENTED_EDGE('',*,*,#323,.T.);
#207=ORIENTED_EDGE('',*,*,#329,.F.);
#208=ORIENTED_EDGE('',*,*,#301,.F.);
#209=ORIENTED_EDGE('',*,*,#288,.T.);
#210=ORIENTED_EDGE('',*,*,#307,.T.);
#211=ORIENTED_EDGE('',*,*,#293,.F.);
#212=ORIENTED_EDGE('',*,*,#295,.F.);
#213=ORIENTED_EDGE('',*,*,#306,.F.);
#214=ORIENTED_EDGE('',*,*,#330,.F.);
#215=ORIENTED_EDGE('',*,*,#276,.F.);
#216=ORIENTED_EDGE('',*,*,#330,.T.);
#217=ORIENTED_EDGE('',*,*,#305,.F.);
#218=ORIENTED_EDGE('',*,*,#331,.F.);
#219=ORIENTED_EDGE('',*,*,#316,.F.);
#220=ORIENTED_EDGE('',*,*,#286,.F.);
#221=ORIENTED_EDGE('',*,*,#282,.F.);
#222=ORIENTED_EDGE('',*,*,#332,.F.);
#223=ORIENTED_EDGE('',*,*,#308,.F.);
#224=ORIENTED_EDGE('',*,*,#333,.F.);
#225=ORIENTED_EDGE('',*,*,#331,.T.);
#226=ORIENTED_EDGE('',*,*,#334,.F.);
#227=ORIENTED_EDGE('',*,*,#291,.F.);
#228=ORIENTED_EDGE('',*,*,#274,.F.);
#229=ORIENTED_EDGE('',*,*,#335,.F.);
#230=ORIENTED_EDGE('',*,*,#302,.F.);
#231=ORIENTED_EDGE('',*,*,#332,.T.);
#232=ORIENTED_EDGE('',*,*,#313,.F.);
#233=ORIENTED_EDGE('',*,*,#336,.F.);
#234=ORIENTED_EDGE('',*,*,#309,.F.);
#235=ORIENTED_EDGE('',*,*,#334,.T.);
#236=ORIENTED_EDGE('',*,*,#310,.F.);
#237=ORIENTED_EDGE('',*,*,#337,.F.);
#238=ORIENTED_EDGE('',*,*,#319,.F.);
#239=ORIENTED_EDGE('',*,*,#333,.T.);
#240=ORIENTED_EDGE('',*,*,#318,.F.);
#241=ORIENTED_EDGE('',*,*,#338,.F.);
#242=ORIENTED_EDGE('',*,*,#314,.F.);
#243=ORIENTED_EDGE('',*,*,#335,.T.);
#244=ORIENTED_EDGE('',*,*,#315,.F.);
#245=ORIENTED_EDGE('',*,*,#339,.F.);
#246=ORIENTED_EDGE('',*,*,#303,.F.);
#247=ORIENTED_EDGE('',*,*,#337,.T.);
#248=ORIENTED_EDGE('',*,*,#336,.T.);
#249=ORIENTED_EDGE('',*,*,#340,.F.);
#250=ORIENTED_EDGE('',*,*,#339,.T.);
#251=ORIENTED_EDGE('',*,*,#338,.T.);
#252=ORIENTED_EDGE('',*,*,#341,.F.);
#253=ORIENTED_EDGE('',*,*,#340,.T.);
#254=ORIENTED_EDGE('',*,*,#312,.F.);
#255=ORIENTED_EDGE('',*,*,#342,.F.);
#256=ORIENTED_EDGE('',*,*,#320,.F.);
#257=ORIENTED_EDGE('',*,*,#341,.T.);
#258=ORIENTED_EDGE('',*,*,#317,.F.);
#259=ORIENTED_EDGE('',*,*,#343,.F.);
#260=ORIENTED_EDGE('',*,*,#304,.F.);
#261=ORIENTED_EDGE('',*,*,#343,.T.);
#262=ORIENTED_EDGE('',*,*,#342,.T.);
#263=ORIENTED_EDGE('',*,*,#344,.F.);
#264=ORIENTED_EDGE('',*,*,#344,.T.);
#265=ORIENTED_EDGE('',*,*,#311,.F.);
#266=ORIENTED_EDGE('',*,*,#345,.F.);
#267=ORIENTED_EDGE('',*,*,#299,.F.);
#268=ORIENTED_EDGE('',*,*,#285,.F.);
#269=ORIENTED_EDGE('',*,*,#300,.F.);
#270=ORIENTED_EDGE('',*,*,#345,.T.);
#271=ORIENTED_EDGE('',*,*,#280,.F.);
#272=EDGE_CURVE('',#346,#346,#396,.T.);
#273=EDGE_CURVE('',#347,#348,#72,.T.);
#274=EDGE_CURVE('',#347,#349,#33,.F.);
#275=EDGE_CURVE('',#349,#350,#73,.T.);
#276=EDGE_CURVE('',#350,#348,#34,.F.);
#277=EDGE_CURVE('',#351,#351,#397,.T.);
#278=EDGE_CURVE('',#352,#352,#398,.T.);
#279=EDGE_CURVE('',#353,#354,#74,.T.);
#280=EDGE_CURVE('',#353,#355,#35,.F.);
#281=EDGE_CURVE('',#355,#356,#75,.T.);
#282=EDGE_CURVE('',#356,#354,#36,.F.);
#283=EDGE_CURVE('',#357,#357,#399,.T.);
#284=EDGE_CURVE('',#358,#359,#76,.T.);
#285=EDGE_CURVE('',#358,#353,#37,.F.);
#286=EDGE_CURVE('',#354,#360,#38,.F.);
#287=EDGE_CURVE('',#360,#361,#77,.T.);
#288=EDGE_CURVE('',#359,#361,#78,.T.);
#289=EDGE_CURVE('',#362,#362,#39,.T.);
#290=EDGE_CURVE('',#363,#363,#40,.T.);
#291=EDGE_CURVE('',#349,#364,#41,.F.);
#292=EDGE_CURVE('',#365,#364,#79,.T.);
#293=EDGE_CURVE('',#365,#366,#80,.T.);
#294=EDGE_CURVE('',#366,#367,#81,.T.);
#295=EDGE_CURVE('',#367,#350,#42,.F.);
#296=EDGE_CURVE('',#368,#368,#43,.T.);
#297=EDGE_CURVE('',#369,#369,#44,.T.);
#298=EDGE_CURVE('',#370,#370,#20,.F.);
#299=EDGE_CURVE('',#371,#372,#82,.T.);
#300=EDGE_CURVE('',#372,#358,#45,.T.);
#301=EDGE_CURVE('',#359,#365,#46,.F.);
#302=EDGE_CURVE('',#364,#373,#47,.T.);
#303=EDGE_CURVE('',#373,#374,#83,.F.);
#304=EDGE_CURVE('',#374,#371,#84,.F.);
#305=EDGE_CURVE('',#375,#376,#85,.F.);
#306=EDGE_CURVE('',#376,#367,#48,.T.);
#307=EDGE_CURVE('',#361,#366,#49,.T.);
#308=EDGE_CURVE('',#360,#377,#50,.T.);
#309=EDGE_CURVE('',#377,#378,#86,.T.);
#310=EDGE_CURVE('',#378,#375,#87,.T.);
#311=EDGE_CURVE('',#355,#379,#88,.F.);
#312=EDGE_CURVE('',#379,#380,#89,.F.);
#313=EDGE_CURVE('',#380,#356,#90,.F.);
#314=EDGE_CURVE('',#381,#382,#91,.T.);
#315=EDGE_CURVE('',#382,#347,#92,.T.);
#316=EDGE_CURVE('',#348,#381,#93,.T.);
#317=EDGE_CURVE('',#383,#384,#94,.T.);
#318=EDGE_CURVE('',#384,#385,#95,.F.);
#319=EDGE_CURVE('',#385,#386,#96,.F.);
#320=EDGE_CURVE('',#386,#383,#97,.T.);
#321=EDGE_CURVE('',#387,#387,#51,.T.);
#322=EDGE_CURVE('',#388,#388,#52,.T.);
#323=EDGE_CURVE('',#389,#389,#53,.T.);
#324=EDGE_CURVE('',#390,#390,#54,.T.);
#325=EDGE_CURVE('',#391,#391,#55,.T.);
#326=EDGE_CURVE('',#392,#392,#56,.T.);
#327=EDGE_CURVE('',#393,#393,#57,.T.);
#328=EDGE_CURVE('',#394,#394,#58,.T.);
#329=EDGE_CURVE('',#395,#395,#59,.T.);
#330=EDGE_CURVE('',#348,#376,#400,.T.);
#331=EDGE_CURVE('',#381,#375,#60,.T.);
#332=EDGE_CURVE('',#377,#356,#401,.F.);
#333=EDGE_CURVE('',#381,#385,#61,.F.);
#334=EDGE_CURVE('',#385,#375,#62,.F.);
#335=EDGE_CURVE('',#373,#347,#402,.F.);
#336=EDGE_CURVE('',#378,#380,#63,.T.);
#337=EDGE_CURVE('',#386,#378,#64,.T.);
#338=EDGE_CURVE('',#382,#384,#65,.T.);
#339=EDGE_CURVE('',#374,#382,#66,.T.);
#340=EDGE_CURVE('',#386,#380,#67,.F.);
#341=EDGE_CURVE('',#374,#384,#68,.F.);
#342=EDGE_CURVE('',#383,#379,#69,.T.);
#343=EDGE_CURVE('',#371,#383,#70,.T.);
#344=EDGE_CURVE('',#371,#379,#71,.F.);
#345=EDGE_CURVE('',#372,#355,#403,.F.);
#346=VERTEX_POINT('',#894);
#347=VERTEX_POINT('',#896);
#348=VERTEX_POINT('',#897);
#349=VERTEX_POINT('',#899);
#350=VERTEX_POINT('',#901);
#351=VERTEX_POINT('',#926);
#352=VERTEX_POINT('',#951);
#353=VERTEX_POINT('',#953);
#354=VERTEX_POINT('',#954);
#355=VERTEX_POINT('',#956);
#356=VERTEX_POINT('',#958);
#357=VERTEX_POINT('',#983);
#358=VERTEX_POINT('',#986);
#359=VERTEX_POINT('',#987);
#360=VERTEX_POINT('',#990);
#361=VERTEX_POINT('',#992);
#362=VERTEX_POINT('',#995);
#363=VERTEX_POINT('',#997);
#364=VERTEX_POINT('',#1000);
#365=VERTEX_POINT('',#1002);
#366=VERTEX_POINT('',#1004);
#367=VERTEX_POINT('',#1006);
#368=VERTEX_POINT('',#1009);
#369=VERTEX_POINT('',#1011);
#370=VERTEX_POINT('',#1014);
#371=VERTEX_POINT('',#1016);
#372=VERTEX_POINT('',#1017);
#373=VERTEX_POINT('',#1021);
#374=VERTEX_POINT('',#1023);
#375=VERTEX_POINT('',#1027);
#376=VERTEX_POINT('',#1028);
#377=VERTEX_POINT('',#1032);
#378=VERTEX_POINT('',#1034);
#379=VERTEX_POINT('',#1038);
#380=VERTEX_POINT('',#1040);
#381=VERTEX_POINT('',#1044);
#382=VERTEX_POINT('',#1045);
#383=VERTEX_POINT('',#1050);
#384=VERTEX_POINT('',#1051);
#385=VERTEX_POINT('',#1053);
#386=VERTEX_POINT('',#1055);
#387=VERTEX_POINT('',#1059);
#388=VERTEX_POINT('',#1063);
#389=VERTEX_POINT('',#1066);
#390=VERTEX_POINT('',#1069);
#391=VERTEX_POINT('',#1072);
#392=VERTEX_POINT('',#1075);
#393=VERTEX_POINT('',#1079);
#394=VERTEX_POINT('',#1083);
#395=VERTEX_POINT('',#1087);
#396=B_SPLINE_CURVE_WITH_KNOTS('',3,(#871,#872,#873,#874,#875,#876,#877,
#878,#879,#880,#881,#882,#883,#884,#885,#886,#887,#888,#889,#890,#891,#892,
#893),.UNSPECIFIED.,.T.,.F.,(1,1,1,1,1,1,1,1,1,1,1,1,1,1,1,1,1,1,1,1,1,
1,1,1,1,1,1),(-0.00616747812559566,-0.00411165208373044,-0.00205582604186522,
0.,0.00205582604186522,0.00411165208373044,0.00616747812559566,0.00822330416746088,
0.0102791302093261,0.0123349562511913,0.0133628692721239,0.0143907822930565,
0.0154186953139892,0.0164466083349218,0.0174745213558544,0.018502434376787,
0.0195303473977196,0.0205582604186522,0.0226140864605174,0.0246699125023826,
0.0267257385442479,0.0287815645861131,0.0308373906279783,0.0328932166698435,
0.0349490427117087,0.037004868753574,0.0390606947954392),.UNSPECIFIED.);
#397=B_SPLINE_CURVE_WITH_KNOTS('',3,(#903,#904,#905,#906,#907,#908,#909,
#910,#911,#912,#913,#914,#915,#916,#917,#918,#919,#920,#921,#922,#923,#924,
#925),.UNSPECIFIED.,.T.,.F.,(1,1,1,1,1,1,1,1,1,1,1,1,1,1,1,1,1,1,1,1,1,
1,1,1,1,1,1),(-0.00616747812559568,-0.00411165208373045,-0.00205582604186522,
0.,0.00205582604186523,0.00411165208373045,0.00616747812559568,0.0082233041674609,
0.0102791302093261,0.0123349562511914,0.013362869272124,0.0143907822930566,
0.0154186953139892,0.0164466083349218,0.0174745213558544,0.018502434376787,
0.0195303473977196,0.0205582604186523,0.0226140864605175,0.0246699125023827,
0.0267257385442479,0.0287815645861132,0.0308373906279784,0.0328932166698436,
0.0349490427117088,0.037004868753574,0.0390606947954393),.UNSPECIFIED.);
#398=B_SPLINE_CURVE_WITH_KNOTS('',3,(#928,#929,#930,#931,#932,#933,#934,
#935,#936,#937,#938,#939,#940,#941,#942,#943,#944,#945,#946,#947,#948,#949,
#950),.UNSPECIFIED.,.T.,.F.,(1,1,1,1,1,1,1,1,1,1,1,1,1,1,1,1,1,1,1,1,1,
1,1,1,1,1,1),(-0.00309468094436834,-0.00206312062957889,-0.00103156031478945,
0.,0.00103156031478945,0.00206312062957889,0.00309468094436834,0.00412624125915779,
0.00618936188873668,0.00825248251831557,0.0103156031478945,0.0123787237774734,
0.0144418444070523,0.0165049650366311,0.01856808566621,0.0206312062957889,
0.0226943269253678,0.0247574475549467,0.0268205681845256,0.0288836888141045,
0.0299152491288939,0.0309468094436834,0.0319783697584728,0.0330099300732623,
0.0340414903880517,0.0350730507028412,0.0361046110176306),.UNSPECIFIED.);
#399=B_SPLINE_CURVE_WITH_KNOTS('',3,(#960,#961,#962,#963,#964,#965,#966,
#967,#968,#969,#970,#971,#972,#973,#974,#975,#976,#977,#978,#979,#980,#981,
#982),.UNSPECIFIED.,.T.,.F.,(1,1,1,1,1,1,1,1,1,1,1,1,1,1,1,1,1,1,1,1,1,
1,1,1,1,1,1),(-0.00309468094436836,-0.0020631206295789,-0.00103156031478945,
0.,0.00103156031478945,0.00206312062957891,0.00309468094436836,0.00412624125915781,
0.00618936188873672,0.00825248251831563,0.0103156031478945,0.0123787237774734,
0.0144418444070523,0.0165049650366313,0.0185680856662102,0.0206312062957891,
0.022694326925368,0.0247574475549469,0.0268205681845258,0.0288836888141047,
0.0299152491288941,0.0309468094436836,0.031978369758473,0.0330099300732625,
0.034041490388052,0.0350730507028414,0.0361046110176309),.UNSPECIFIED.);
#400=B_SPLINE_CURVE_WITH_KNOTS('',3,(#1091,#1092,#1093,#1094,#1095),
 .UNSPECIFIED.,.F.,.F.,(4,1,4),(0.,0.00124225466409445,0.00248450932818889),
 .UNSPECIFIED.);
#401=B_SPLINE_CURVE_WITH_KNOTS('',3,(#1099,#1100,#1101,#1102,#1103),
 .UNSPECIFIED.,.F.,.F.,(4,1,4),(0.,0.00124225466409445,0.00248450932818889),
 .UNSPECIFIED.);
#402=B_SPLINE_CURVE_WITH_KNOTS('',3,(#1108,#1109,#1110,#1111,#1112),
 .UNSPECIFIED.,.F.,.F.,(4,1,4),(0.,0.00124225466409445,0.00248450932818889),
 .UNSPECIFIED.);
#403=B_SPLINE_CURVE_WITH_KNOTS('',3,(#1132,#1133,#1134,#1135,#1136),
 .UNSPECIFIED.,.F.,.F.,(4,1,4),(0.,0.00124225466409445,0.00248450932818889),
 .UNSPECIFIED.);
#404=EDGE_LOOP('',(#124));
#405=EDGE_LOOP('',(#125,#126,#127,#128));
#406=EDGE_LOOP('',(#129));
#407=EDGE_LOOP('',(#130));
#408=EDGE_LOOP('',(#131,#132,#133,#134));
#409=EDGE_LOOP('',(#135));
#410=EDGE_LOOP('',(#136,#137,#138,#139,#140,#141));
#411=EDGE_LOOP('',(#142));
#412=EDGE_LOOP('',(#143));
#413=EDGE_LOOP('',(#144,#145,#146,#147,#148,#149));
#414=EDGE_LOOP('',(#150));
#415=EDGE_LOOP('',(#151));
#416=EDGE_LOOP('',(#152));
#417=EDGE_LOOP('',(#153,#154,#155,#156,#157,#158,#159,#160));
#418=EDGE_LOOP('',(#161,#162,#163,#164,#165,#166,#167,#168));
#419=EDGE_LOOP('',(#169,#170,#171,#172));
#420=EDGE_LOOP('',(#173,#174,#175,#176));
#421=EDGE_LOOP('',(#177,#178,#179,#180));
#422=EDGE_LOOP('',(#181));
#423=EDGE_LOOP('',(#182));
#424=EDGE_LOOP('',(#183));
#425=EDGE_LOOP('',(#184));
#426=EDGE_LOOP('',(#185));
#427=EDGE_LOOP('',(#186));
#428=EDGE_LOOP('',(#187));
#429=EDGE_LOOP('',(#188));
#430=EDGE_LOOP('',(#189));
#431=EDGE_LOOP('',(#190));
#432=EDGE_LOOP('',(#191));
#433=EDGE_LOOP('',(#192));
#434=EDGE_LOOP('',(#193));
#435=EDGE_LOOP('',(#194));
#436=EDGE_LOOP('',(#195));
#437=EDGE_LOOP('',(#196));
#438=EDGE_LOOP('',(#197));
#439=EDGE_LOOP('',(#198));
#440=EDGE_LOOP('',(#199));
#441=EDGE_LOOP('',(#200));
#442=EDGE_LOOP('',(#201));
#443=EDGE_LOOP('',(#202));
#444=EDGE_LOOP('',(#203));
#445=EDGE_LOOP('',(#204));
#446=EDGE_LOOP('',(#205));
#447=EDGE_LOOP('',(#206));
#448=EDGE_LOOP('',(#207));
#449=EDGE_LOOP('',(#208,#209,#210,#211));
#450=EDGE_LOOP('',(#212,#213,#214,#215));
#451=EDGE_LOOP('',(#216,#217,#218,#219));
#452=EDGE_LOOP('',(#220,#221,#222,#223));
#453=EDGE_LOOP('',(#224,#225,#226));
#454=EDGE_LOOP('',(#227,#228,#229,#230));
#455=EDGE_LOOP('',(#231,#232,#233,#234));
#456=EDGE_LOOP('',(#235,#236,#237,#238));
#457=EDGE_LOOP('',(#239,#240,#241,#242));
#458=EDGE_LOOP('',(#243,#244,#245,#246));
#459=EDGE_LOOP('',(#247,#248,#249));
#460=EDGE_LOOP('',(#250,#251,#252));
#461=EDGE_LOOP('',(#253,#254,#255,#256));
#462=EDGE_LOOP('',(#257,#258,#259,#260));
#463=EDGE_LOOP('',(#261,#262,#263));
#464=EDGE_LOOP('',(#264,#265,#266,#267));
#465=EDGE_LOOP('',(#268,#269,#270,#271));
#466=FACE_BOUND('',#404,.T.);
#467=FACE_BOUND('',#405,.T.);
#468=FACE_BOUND('',#406,.T.);
#469=FACE_BOUND('',#407,.T.);
#470=FACE_BOUND('',#408,.T.);
#471=FACE_BOUND('',#409,.T.);
#472=FACE_BOUND('',#410,.T.);
#473=FACE_BOUND('',#411,.T.);
#474=FACE_BOUND('',#412,.T.);
#475=FACE_BOUND('',#413,.T.);
#476=FACE_BOUND('',#414,.T.);
#477=FACE_BOUND('',#415,.T.);
#478=FACE_BOUND('',#416,.T.);
#479=FACE_BOUND('',#417,.T.);
#480=FACE_BOUND('',#418,.T.);
#481=FACE_BOUND('',#419,.T.);
#482=FACE_BOUND('',#420,.T.);
#483=FACE_BOUND('',#421,.T.);
#484=FACE_BOUND('',#422,.T.);
#485=FACE_BOUND('',#423,.T.);
#486=FACE_BOUND('',#424,.T.);
#487=FACE_BOUND('',#425,.T.);
#488=FACE_BOUND('',#426,.T.);
#489=FACE_BOUND('',#427,.T.);
#490=FACE_BOUND('',#428,.T.);
#491=FACE_BOUND('',#429,.T.);
#492=FACE_BOUND('',#430,.T.);
#493=FACE_BOUND('',#431,.T.);
#494=FACE_BOUND('',#432,.T.);
#495=FACE_BOUND('',#433,.T.);
#496=FACE_BOUND('',#434,.T.);
#497=FACE_BOUND('',#435,.T.);
#498=FACE_BOUND('',#436,.T.);
#499=FACE_BOUND('',#437,.T.);
#500=FACE_BOUND('',#438,.T.);
#501=FACE_BOUND('',#439,.T.);
#502=FACE_BOUND('',#440,.T.);
#503=FACE_BOUND('',#441,.T.);
#504=FACE_BOUND('',#442,.T.);
#505=FACE_BOUND('',#443,.T.);
#506=FACE_BOUND('',#444,.T.);
#507=FACE_BOUND('',#445,.T.);
#508=FACE_BOUND('',#446,.T.);
#509=FACE_BOUND('',#447,.T.);
#510=FACE_BOUND('',#448,.T.);
#511=FACE_BOUND('',#449,.T.);
#512=FACE_BOUND('',#450,.T.);
#513=FACE_BOUND('',#451,.T.);
#514=FACE_BOUND('',#452,.T.);
#515=FACE_BOUND('',#453,.T.);
#516=FACE_BOUND('',#454,.T.);
#517=FACE_BOUND('',#455,.T.);
#518=FACE_BOUND('',#456,.T.);
#519=FACE_BOUND('',#457,.T.);
#520=FACE_BOUND('',#458,.T.);
#521=FACE_BOUND('',#459,.T.);
#522=FACE_BOUND('',#460,.T.);
#523=FACE_BOUND('',#461,.T.);
#524=FACE_BOUND('',#462,.T.);
#525=FACE_BOUND('',#463,.T.);
#526=FACE_BOUND('',#464,.T.);
#527=FACE_BOUND('',#465,.T.);
#528=CYLINDRICAL_SURFACE('',#601,0.02865);
#529=CYLINDRICAL_SURFACE('',#604,0.02865);
#530=CYLINDRICAL_SURFACE('',#631,0.01365);
#531=CYLINDRICAL_SURFACE('',#632,0.0022);
#532=CYLINDRICAL_SURFACE('',#634,0.0022);
#533=CYLINDRICAL_SURFACE('',#636,0.0022);
#534=CYLINDRICAL_SURFACE('',#638,0.0022);
#535=CYLINDRICAL_SURFACE('',#642,0.004);
#536=CYLINDRICAL_SURFACE('',#643,0.004);
#537=CYLINDRICAL_SURFACE('',#648,0.004);
#538=CYLINDRICAL_SURFACE('',#649,0.004);
#539=CYLINDRICAL_SURFACE('',#652,0.013);
#540=CYLINDRICAL_SURFACE('',#654,0.0015);
#541=CYLINDRICAL_SURFACE('',#661,0.0015);
#542=CYLINDRICAL_SURFACE('',#663,0.0015);
#543=CYLINDRICAL_SURFACE('',#665,0.0015);
#544=CYLINDRICAL_SURFACE('',#667,0.0015);
#545=CYLINDRICAL_SURFACE('',#673,0.0015);
#546=CYLINDRICAL_SURFACE('',#675,0.0015);
#547=CYLINDRICAL_SURFACE('',#679,0.0015);
#548=ADVANCED_FACE('',(#466,#467,#468),#528,.T.);
#549=ADVANCED_FACE('',(#469,#470,#471),#529,.T.);
#550=ADVANCED_FACE('',(#472,#473,#474),#21,.F.);
#551=ADVANCED_FACE('',(#475,#476,#477),#22,.F.);
#552=ADVANCED_FACE('',(#478,#479),#23,.T.);
#553=ADVANCED_FACE('',(#480),#24,.T.);
#554=ADVANCED_FACE('',(#481),#25,.T.);
#555=ADVANCED_FACE('',(#482),#26,.F.);
#556=ADVANCED_FACE('',(#483),#27,.T.);
#557=ADVANCED_FACE('',(#484),#28,.T.);
#558=ADVANCED_FACE('',(#485,#486),#530,.F.);
#559=ADVANCED_FACE('',(#487,#488),#531,.F.);
#560=ADVANCED_FACE('',(#489,#490),#532,.F.);
#561=ADVANCED_FACE('',(#491,#492),#533,.F.);
#562=ADVANCED_FACE('',(#493,#494),#534,.F.);
#563=ADVANCED_FACE('',(#495,#496),#29,.F.);
#564=ADVANCED_FACE('',(#497,#498),#535,.F.);
#565=ADVANCED_FACE('',(#499,#500),#536,.F.);
#566=ADVANCED_FACE('',(#501,#502),#30,.F.);
#567=ADVANCED_FACE('',(#503,#504),#31,.F.);
#568=ADVANCED_FACE('',(#505,#506),#537,.F.);
#569=ADVANCED_FACE('',(#507,#508),#538,.F.);
#570=ADVANCED_FACE('',(#509,#510),#32,.F.);
#571=ADVANCED_FACE('',(#511),#539,.F.);
#572=ADVANCED_FACE('',(#512),#16,.T.);
#573=ADVANCED_FACE('',(#513),#540,.T.);
#574=ADVANCED_FACE('',(#514),#17,.T.);
#575=ADVANCED_FACE('',(#515),#12,.T.);
#576=ADVANCED_FACE('',(#516),#18,.T.);
#577=ADVANCED_FACE('',(#517),#541,.T.);
#578=ADVANCED_FACE('',(#518),#542,.T.);
#579=ADVANCED_FACE('',(#519),#543,.T.);
#580=ADVANCED_FACE('',(#520),#544,.T.);
#581=ADVANCED_FACE('',(#521),#13,.T.);
#582=ADVANCED_FACE('',(#522),#14,.T.);
#583=ADVANCED_FACE('',(#523),#545,.T.);
#584=ADVANCED_FACE('',(#524),#546,.T.);
#585=ADVANCED_FACE('',(#525),#15,.T.);
#586=ADVANCED_FACE('',(#526),#547,.T.);
#587=ADVANCED_FACE('',(#527),#19,.T.);
#588=CLOSED_SHELL('',(#548,#549,#550,#551,#552,#553,#554,#555,#556,#557,
#558,#559,#560,#561,#562,#563,#564,#565,#566,#567,#568,#569,#570,#571,#572,
#573,#574,#575,#576,#577,#578,#579,#580,#581,#582,#583,#584,#585,#586,#587));
#589=STYLED_ITEM('',(#590),#597);
#590=PRESENTATION_STYLE_ASSIGNMENT((#591));
#591=SURFACE_STYLE_USAGE(.BOTH.,#592);
#592=SURFACE_SIDE_STYLE('',(#593));
#593=SURFACE_STYLE_FILL_AREA(#594);
#594=FILL_AREA_STYLE('',(#595));
#595=FILL_AREA_STYLE_COLOUR('',#596);
#596=COLOUR_RGB('',0.615686274509804,0.811764705882353,0.929411764705882);
#597=MANIFOLD_SOLID_BREP('Part 1',#588);
#598=SHAPE_DEFINITION_REPRESENTATION(#1144,#599);
#599=SHAPE_REPRESENTATION('Part 1',(#600),#1139);
#600=AXIS2_PLACEMENT_3D('',#869,#681,#682);
#601=AXIS2_PLACEMENT_3D('',#870,#683,#684);
#602=AXIS2_PLACEMENT_3D('',#898,#686,#687);
#603=AXIS2_PLACEMENT_3D('',#902,#689,#690);
#604=AXIS2_PLACEMENT_3D('',#927,#691,#692);
#605=AXIS2_PLACEMENT_3D('',#955,#694,#695);
#606=AXIS2_PLACEMENT_3D('',#959,#697,#698);
#607=AXIS2_PLACEMENT_3D('',#984,#699,#700);
#608=AXIS2_PLACEMENT_3D('',#988,#702,#703);
#609=AXIS2_PLACEMENT_3D('',#989,#704,#705);
#610=AXIS2_PLACEMENT_3D('',#994,#708,#709);
#611=AXIS2_PLACEMENT_3D('',#996,#710,#711);
#612=AXIS2_PLACEMENT_3D('',#998,#712,#713);
#613=AXIS2_PLACEMENT_3D('',#999,#714,#715);
#614=AXIS2_PLACEMENT_3D('',#1007,#719,#720);
#615=AXIS2_PLACEMENT_3D('',#1008,#721,#722);
#616=AXIS2_PLACEMENT_3D('',#1010,#723,#724);
#617=AXIS2_PLACEMENT_3D('',#1012,#725,#726);
#618=AXIS2_PLACEMENT_3D('',#1013,#727,#728);
#619=AXIS2_PLACEMENT_3D('',#1018,#730,#731);
#620=AXIS2_PLACEMENT_3D('',#1019,#732,#733);
#621=AXIS2_PLACEMENT_3D('',#1020,#734,#735);
#622=AXIS2_PLACEMENT_3D('',#1025,#738,#739);
#623=AXIS2_PLACEMENT_3D('',#1029,#741,#742);
#624=AXIS2_PLACEMENT_3D('',#1030,#743,#744);
#625=AXIS2_PLACEMENT_3D('',#1031,#745,#746);
#626=AXIS2_PLACEMENT_3D('',#1036,#749,#750);
#627=AXIS2_PLACEMENT_3D('',#1042,#754,#755);
#628=AXIS2_PLACEMENT_3D('',#1048,#759,#760);
#629=AXIS2_PLACEMENT_3D('',#1057,#765,#766);
#630=AXIS2_PLACEMENT_3D('',#1058,#767,#768);
#631=AXIS2_PLACEMENT_3D('',#1060,#769,#770);
#632=AXIS2_PLACEMENT_3D('',#1061,#771,#772);
#633=AXIS2_PLACEMENT_3D('',#1062,#773,#774);
#634=AXIS2_PLACEMENT_3D('',#1064,#775,#776);
#635=AXIS2_PLACEMENT_3D('',#1065,#777,#778);
#636=AXIS2_PLACEMENT_3D('',#1067,#779,#780);
#637=AXIS2_PLACEMENT_3D('',#1068,#781,#782);
#638=AXIS2_PLACEMENT_3D('',#1070,#783,#784);
#639=AXIS2_PLACEMENT_3D('',#1071,#785,#786);
#640=AXIS2_PLACEMENT_3D('',#1073,#787,#788);
#641=AXIS2_PLACEMENT_3D('',#1074,#789,#790);
#642=AXIS2_PLACEMENT_3D('',#1076,#791,#792);
#643=AXIS2_PLACEMENT_3D('',#1077,#793,#794);
#644=AXIS2_PLACEMENT_3D('',#1078,#795,#796);
#645=AXIS2_PLACEMENT_3D('',#1080,#797,#798);
#646=AXIS2_PLACEMENT_3D('',#1081,#799,#800);
#647=AXIS2_PLACEMENT_3D('',#1082,#801,#802);
#648=AXIS2_PLACEMENT_3D('',#1084,#803,#804);
#649=AXIS2_PLACEMENT_3D('',#1085,#805,#806);
#650=AXIS2_PLACEMENT_3D('',#1086,#807,#808);
#651=AXIS2_PLACEMENT_3D('',#1088,#809,#810);
#652=AXIS2_PLACEMENT_3D('',#1089,#811,#812);
#653=AXIS2_PLACEMENT_3D('',#1090,#813,#814);
#654=AXIS2_PLACEMENT_3D('',#1096,#815,#816);
#655=AXIS2_PLACEMENT_3D('',#1097,#817,#818);
#656=AXIS2_PLACEMENT_3D('',#1098,#819,#820);
#657=AXIS2_PLACEMENT_3D('',#1104,#821,#822);
#658=AXIS2_PLACEMENT_3D('',#1105,#823,#824);
#659=AXIS2_PLACEMENT_3D('',#1106,#825,#826);
#660=AXIS2_PLACEMENT_3D('',#1107,#827,#828);
#661=AXIS2_PLACEMENT_3D('',#1113,#829,#830);
#662=AXIS2_PLACEMENT_3D('',#1114,#831,#832);
#663=AXIS2_PLACEMENT_3D('',#1115,#833,#834);
#664=AXIS2_PLACEMENT_3D('',#1116,#835,#836);
#665=AXIS2_PLACEMENT_3D('',#1117,#837,#838);
#666=AXIS2_PLACEMENT_3D('',#1118,#839,#840);
#667=AXIS2_PLACEMENT_3D('',#1119,#841,#842);
#668=AXIS2_PLACEMENT_3D('',#1120,#843,#844);
#669=AXIS2_PLACEMENT_3D('',#1121,#845,#846);
#670=AXIS2_PLACEMENT_3D('',#1122,#847,#848);
#671=AXIS2_PLACEMENT_3D('',#1123,#849,#850);
#672=AXIS2_PLACEMENT_3D('',#1124,#851,#852);
#673=AXIS2_PLACEMENT_3D('',#1125,#853,#854);
#674=AXIS2_PLACEMENT_3D('',#1126,#855,#856);
#675=AXIS2_PLACEMENT_3D('',#1127,#857,#858);
#676=AXIS2_PLACEMENT_3D('',#1128,#859,#860);
#677=AXIS2_PLACEMENT_3D('',#1129,#861,#862);
#678=AXIS2_PLACEMENT_3D('',#1130,#863,#864);
#679=AXIS2_PLACEMENT_3D('',#1131,#865,#866);
#680=AXIS2_PLACEMENT_3D('',#1137,#867,#868);
#681=DIRECTION('',(0.,0.,1.));
#682=DIRECTION('',(1.,0.,0.));
#683=DIRECTION('',(0.,1.,0.));
#684=DIRECTION('',(0.,0.,1.));
#685=DIRECTION('',(0.,1.,0.));
#686=DIRECTION('',(0.,-1.,0.));
#687=DIRECTION('',(0.,0.,-1.));
#688=DIRECTION('',(0.,1.,0.));
#689=DIRECTION('',(0.,1.,0.));
#690=DIRECTION('',(0.,0.,1.));
#691=DIRECTION('',(0.,1.,0.));
#692=DIRECTION('',(0.,0.,1.));
#693=DIRECTION('',(0.,1.,0.));
#694=DIRECTION('',(0.,-1.,0.));
#695=DIRECTION('',(0.,0.,-1.));
#696=DIRECTION('',(0.,1.,0.));
#697=DIRECTION('',(0.,1.,0.));
#698=DIRECTION('',(0.,0.,1.));
#699=DIRECTION('',(1.,0.,0.));
#700=DIRECTION('',(0.,0.,-1.));
#701=DIRECTION('',(0.,0.,-1.));
#702=DIRECTION('',(1.,0.,0.));
#703=DIRECTION('',(0.,0.,-1.));
#704=DIRECTION('',(1.,0.,0.));
#705=DIRECTION('',(0.,0.,-1.));
#706=DIRECTION('',(0.,0.,-1.));
#707=DIRECTION('',(0.,1.,0.));
#708=DIRECTION('',(1.,0.,0.));
#709=DIRECTION('',(0.,0.,-1.));
#710=DIRECTION('',(-1.,0.,0.));
#711=DIRECTION('',(0.,0.,-1.));
#712=DIRECTION('',(1.,0.,0.));
#713=DIRECTION('',(0.,0.,-1.));
#714=DIRECTION('',(1.,0.,0.));
#715=DIRECTION('',(0.,0.,-1.));
#716=DIRECTION('',(0.,0.,-1.));
#717=DIRECTION('',(0.,1.,0.));
#718=DIRECTION('',(0.,0.,-1.));
#719=DIRECTION('',(1.,0.,0.));
#720=DIRECTION('',(0.,0.,-1.));
#721=DIRECTION('',(1.,0.,0.));
#722=DIRECTION('',(0.,0.,-1.));
#723=DIRECTION('',(-1.,0.,0.));
#724=DIRECTION('',(0.,0.,-1.));
#725=DIRECTION('',(0.,-1.,0.));
#726=DIRECTION('',(0.,0.,-1.));
#727=DIRECTION('',(0.,-1.,0.));
#728=DIRECTION('',(-1.,0.,3.81184308469307E-16));
#729=DIRECTION('',(-1.,0.,0.));
#730=DIRECTION('',(0.,-1.,0.));
#731=DIRECTION('',(0.,0.,-1.));
#732=DIRECTION('',(0.,-1.,0.));
#733=DIRECTION('',(0.,0.,-1.));
#734=DIRECTION('',(0.,-1.,0.));
#735=DIRECTION('',(0.,0.,-1.));
#736=DIRECTION('',(-1.,0.,0.));
#737=DIRECTION('',(0.,0.,-1.));
#738=DIRECTION('',(0.,1.,0.));
#739=DIRECTION('',(0.,0.,1.));
#740=DIRECTION('',(1.,0.,0.));
#741=DIRECTION('',(0.,1.,0.));
#742=DIRECTION('',(0.,0.,1.));
#743=DIRECTION('',(0.,1.,0.));
#744=DIRECTION('',(0.,0.,1.));
#745=DIRECTION('',(0.,1.,0.));
#746=DIRECTION('',(0.,0.,1.));
#747=DIRECTION('',(1.,0.,0.));
#748=DIRECTION('',(0.,0.,-1.));
#749=DIRECTION('',(0.,0.,1.));
#750=DIRECTION('',(1.,0.,0.));
#751=DIRECTION('',(-1.,0.,0.));
#752=DIRECTION('',(0.321274189922737,-0.946986216842404,0.));
#753=DIRECTION('',(1.,0.,0.));
#754=DIRECTION('',(0.,0.,1.));
#755=DIRECTION('',(1.,0.,0.));
#756=DIRECTION('',(0.321274189922737,-0.946986216842404,0.));
#757=DIRECTION('',(-1.,0.,0.));
#758=DIRECTION('',(1.,0.,0.));
#759=DIRECTION('',(0.946986216842404,0.321274189922737,0.));
#760=DIRECTION('',(-0.321274189922737,0.946986216842404,0.));
#761=DIRECTION('',(0.,0.,-1.));
#762=DIRECTION('',(0.321274189922737,-0.946986216842404,0.));
#763=DIRECTION('',(0.,0.,-1.));
#764=DIRECTION('',(0.321274189922737,-0.946986216842404,0.));
#765=DIRECTION('',(0.321274189922737,-0.946986216842404,-1.22464679914735E-16));
#766=DIRECTION('',(0.946986216842404,0.321274189922737,0.));
#767=DIRECTION('',(-0.321274189922737,0.946986216842404,1.22464679914735E-16));
#768=DIRECTION('',(-0.946986216842404,-0.321274189922737,0.));
#769=DIRECTION('',(-0.321274189922737,0.946986216842404,1.22464679914735E-16));
#770=DIRECTION('',(-0.946986216842404,-0.321274189922737,0.));
#771=DIRECTION('',(-1.,0.,0.));
#772=DIRECTION('',(0.,0.,1.));
#773=DIRECTION('',(1.,0.,0.));
#774=DIRECTION('',(0.,0.,-1.));
#775=DIRECTION('',(-1.,0.,0.));
#776=DIRECTION('',(0.,0.,1.));
#777=DIRECTION('',(-1.,0.,0.));
#778=DIRECTION('',(0.,0.,-1.));
#779=DIRECTION('',(-1.,0.,0.));
#780=DIRECTION('',(0.,0.,1.));
#781=DIRECTION('',(1.,0.,0.));
#782=DIRECTION('',(0.,0.,-1.));
#783=DIRECTION('',(-1.,0.,0.));
#784=DIRECTION('',(0.,0.,1.));
#785=DIRECTION('',(-1.,0.,0.));
#786=DIRECTION('',(0.,0.,-1.));
#787=DIRECTION('',(-1.,0.,0.));
#788=DIRECTION('',(0.,-1.,0.));
#789=DIRECTION('',(1.,0.,0.));
#790=DIRECTION('',(0.,0.,1.));
#791=DIRECTION('',(-1.,0.,0.));
#792=DIRECTION('',(0.,0.,1.));
#793=DIRECTION('',(-1.,0.,0.));
#794=DIRECTION('',(0.,0.,1.));
#795=DIRECTION('',(-1.,0.,0.));
#796=DIRECTION('',(0.,0.,1.));
#797=DIRECTION('',(-1.,0.,0.));
#798=DIRECTION('',(0.,-1.,0.));
#799=DIRECTION('',(-1.,0.,0.));
#800=DIRECTION('',(0.,-1.,0.));
#801=DIRECTION('',(1.,0.,0.));
#802=DIRECTION('',(0.,0.,1.));
#803=DIRECTION('',(-1.,0.,0.));
#804=DIRECTION('',(0.,0.,1.));
#805=DIRECTION('',(-1.,0.,0.));
#806=DIRECTION('',(0.,0.,1.));
#807=DIRECTION('',(-1.,0.,0.));
#808=DIRECTION('',(0.,0.,1.));
#809=DIRECTION('',(-1.,0.,0.));
#810=DIRECTION('',(0.,-1.,0.));
#811=DIRECTION('',(0.,1.,0.));
#812=DIRECTION('',(0.,0.,1.));
#813=DIRECTION('',(0.,1.,0.));
#814=DIRECTION('',(0.,0.,1.));
#815=DIRECTION('',(-1.,0.,0.));
#816=DIRECTION('',(0.,0.,1.));
#817=DIRECTION('',(1.,0.,0.));
#818=DIRECTION('',(0.,0.,-1.));
#819=DIRECTION('',(0.,1.,0.));
#820=DIRECTION('',(0.,0.,1.));
#821=DIRECTION('',(0.,0.,-1.));
#822=DIRECTION('',(-1.,0.,0.));
#823=DIRECTION('',(-0.321274189922739,0.946986216842404,0.));
#824=DIRECTION('',(-0.946986216842404,-0.321274189922739,0.));
#825=DIRECTION('',(0.,0.,-1.));
#826=DIRECTION('',(-1.,0.,0.));
#827=DIRECTION('',(0.,-1.,0.));
#828=DIRECTION('',(0.,0.,-1.));
#829=DIRECTION('',(1.,0.,0.));
#830=DIRECTION('',(0.,0.,-1.));
#831=DIRECTION('',(1.,0.,0.));
#832=DIRECTION('',(0.,0.,-1.));
#833=DIRECTION('',(0.,0.,-1.));
#834=DIRECTION('',(-1.,0.,0.));
#835=DIRECTION('',(0.,0.,1.));
#836=DIRECTION('',(1.,0.,0.));
#837=DIRECTION('',(-0.321274189922737,0.946986216842404,0.));
#838=DIRECTION('',(-0.946986216842404,-0.321274189922737,0.));
#839=DIRECTION('',(0.321274189922735,-0.946986216842405,0.));
#840=DIRECTION('',(0.946986216842405,0.321274189922735,0.));
#841=DIRECTION('',(1.,0.,0.));
#842=DIRECTION('',(0.,0.,-1.));
#843=DIRECTION('',(1.,0.,-4.62592926927148E-15));
#844=DIRECTION('',(-4.62592926927148E-15,0.,-1.));
#845=DIRECTION('',(0.,0.,1.));
#846=DIRECTION('',(1.,0.,0.));
#847=DIRECTION('',(-0.321274189922739,0.946986216842404,0.));
#848=DIRECTION('',(-0.946986216842404,-0.321274189922739,0.));
#849=DIRECTION('',(-4.62592926927148E-15,0.,-1.));
#850=DIRECTION('',(-1.,0.,4.62592926927148E-15));
#851=DIRECTION('',(0.,0.,-1.));
#852=DIRECTION('',(-1.,0.,0.));
#853=DIRECTION('',(0.321274189922737,-0.946986216842404,0.));
#854=DIRECTION('',(0.946986216842404,0.321274189922737,0.));
#855=DIRECTION('',(0.321274189922736,-0.946986216842404,0.));
#856=DIRECTION('',(0.946986216842404,0.321274189922737,0.));
#857=DIRECTION('',(0.,0.,-1.));
#858=DIRECTION('',(-1.,0.,0.));
#859=DIRECTION('',(0.,0.,1.));
#860=DIRECTION('',(1.,0.,0.));
#861=DIRECTION('',(0.,0.,1.));
#862=DIRECTION('',(1.,0.,0.));
#863=DIRECTION('',(1.,0.,0.));
#864=DIRECTION('',(0.,0.,-1.));
#865=DIRECTION('',(-1.,0.,0.));
#866=DIRECTION('',(0.,0.,1.));
#867=DIRECTION('',(0.,-1.,0.));
#868=DIRECTION('',(0.,0.,-1.));
#869=CARTESIAN_POINT('',(0.,0.,0.));
#870=CARTESIAN_POINT('',(1.75430653977858E-18,-0.0410227998365045,0.));
#871=CARTESIAN_POINT('',(0.0222758330780921,-0.0329668113222415,-0.0180309442931036));
#872=CARTESIAN_POINT('',(0.0227133869564208,-0.0350212301924263,-0.0174597776293207));
#873=CARTESIAN_POINT('',(0.0222766750907777,-0.0370730669270806,-0.0180299451896135));
#874=CARTESIAN_POINT('',(0.0211993076150979,-0.038398996567911,-0.0193031793222274));
#875=CARTESIAN_POINT('',(0.0198117062078346,-0.0390012936323025,-0.0207299701920484));
#876=CARTESIAN_POINT('',(0.018261572378115,-0.039065465841301,-0.022107510628478));
#877=CARTESIAN_POINT('',(0.0166634829626238,-0.0387210478974404,-0.0233339709578537));
#878=CARTESIAN_POINT('',(0.0153077987693485,-0.0381314556620302,-0.0242312652486315));
#879=CARTESIAN_POINT('',(0.0142815070311836,-0.0374663908367303,-0.0248417016464231));
#880=CARTESIAN_POINT('',(0.0135573332269779,-0.0368344009648501,-0.0252432469960506));
#881=CARTESIAN_POINT('',(0.0129577501336426,-0.0360490641864606,-0.0255539954781519));
#882=CARTESIAN_POINT('',(0.0126661035962635,-0.0350190580069664,-0.0256979283147488));
#883=CARTESIAN_POINT('',(0.0129572074390542,-0.0339937877579098,-0.0255542905823994));
#884=CARTESIAN_POINT('',(0.0135608434108867,-0.0332029944408393,-0.0252413839620751));
#885=CARTESIAN_POINT('',(0.0142836582258596,-0.0325739332764623,-0.0248404350130541));
#886=CARTESIAN_POINT('',(0.0153083470779761,-0.0319098215769713,-0.024230902764269));
#887=CARTESIAN_POINT('',(0.0166644116415596,-0.0313202805017888,-0.0233333003518307));
#888=CARTESIAN_POINT('',(0.0182613083665187,-0.0309762738320969,-0.0221076901492837));
#889=CARTESIAN_POINT('',(0.0198118173855707,-0.031040018767891,-0.0207299360975023));
#890=CARTESIAN_POINT('',(0.0212005585893654,-0.0316439383525675,-0.0193017692378548));
#891=CARTESIAN_POINT('',(0.0222758330780921,-0.0329668113222415,-0.0180309442931036));
#892=CARTESIAN_POINT('',(0.0227133869564208,-0.0350212301924263,-0.0174597776293207));
#893=CARTESIAN_POINT('',(0.0222766750907777,-0.0370730669270806,-0.0180299451896135));
#894=CARTESIAN_POINT('',(0.0225676759990922,-0.0350207998365046,-0.01765));
#895=CARTESIAN_POINT('',(0.0226841905299704,-0.0410227998365045,-0.0175));
#896=CARTESIAN_POINT('',(0.0226841905299704,-0.0395207998365045,-0.0175));
#897=CARTESIAN_POINT('',(0.0226841905299704,0.0174792001634956,-0.0175));
#898=CARTESIAN_POINT('',(1.75430653977858E-18,-0.0395207998365045,0.));
#899=CARTESIAN_POINT('',(0.,-0.0395207998365045,-0.02865));
#900=CARTESIAN_POINT('',(0.,-0.0410227998365045,-0.02865));
#901=CARTESIAN_POINT('',(0.,0.0174792001634956,-0.02865));
#902=CARTESIAN_POINT('',(1.75430653977858E-18,0.0174792001634956,0.));
#903=CARTESIAN_POINT('',(0.0222758330780921,0.0109252116492326,-0.0180309442931036));
#904=CARTESIAN_POINT('',(0.0227133869564208,0.0129796305194174,-0.0174597776293207));
#905=CARTESIAN_POINT('',(0.0222766750907777,0.0150314672540716,-0.0180299451896135));
#906=CARTESIAN_POINT('',(0.0211993076150979,0.0163573968949021,-0.0193031793222275));
#907=CARTESIAN_POINT('',(0.0198117062078346,0.0169596939592936,-0.0207299701920484));
#908=CARTESIAN_POINT('',(0.018261572378115,0.0170238661682921,-0.022107510628478));
#909=CARTESIAN_POINT('',(0.0166634829626238,0.0166794482244315,-0.0233339709578537));
#910=CARTESIAN_POINT('',(0.0153077987693485,0.0160898559890213,-0.0242312652486315));
#911=CARTESIAN_POINT('',(0.0142815070311835,0.0154247911637213,-0.0248417016464231));
#912=CARTESIAN_POINT('',(0.0135573332269778,0.0147928012918411,-0.0252432469960506));
#913=CARTESIAN_POINT('',(0.0129577501336426,0.0140074645134516,-0.0255539954781519));
#914=CARTESIAN_POINT('',(0.0126661035962635,0.0129774583339575,-0.0256979283147489));
#915=CARTESIAN_POINT('',(0.0129572074390542,0.0119521880849009,-0.0255542905823994));
#916=CARTESIAN_POINT('',(0.0135608434108868,0.0111613947678304,-0.0252413839620751));
#917=CARTESIAN_POINT('',(0.0142836582258596,0.0105323336034534,-0.0248404350130541));
#918=CARTESIAN_POINT('',(0.0153083470779762,0.00986822190396231,-0.024230902764269));
#919=CARTESIAN_POINT('',(0.0166644116415596,0.00927868082877982,-0.0233333003518307));
#920=CARTESIAN_POINT('',(0.0182613083665187,0.00893467415908802,-0.0221076901492837));
#921=CARTESIAN_POINT('',(0.0198118173855707,0.00899841909488205,-0.0207299360975023));
#922=CARTESIAN_POINT('',(0.0212005585893654,0.00960233867955863,-0.0193017692378548));
#923=CARTESIAN_POINT('',(0.0222758330780921,0.0109252116492326,-0.0180309442931036));
#924=CARTESIAN_POINT('',(0.0227133869564208,0.0129796305194174,-0.0174597776293207));
#925=CARTESIAN_POINT('',(0.0222766750907777,0.0150314672540716,-0.0180299451896135));
#926=CARTESIAN_POINT('',(0.0225676759990922,0.0129792001634956,-0.01765));
#927=CARTESIAN_POINT('',(1.75430653977858E-18,-0.0410227998365045,0.));
#928=CARTESIAN_POINT('',(0.0129564753373942,0.0140041932609473,0.0255546375023745));
#929=CARTESIAN_POINT('',(0.0126665265618969,0.0129797326203087,0.0256977127730734));
#930=CARTESIAN_POINT('',(0.0129567890052758,0.0119520772387918,0.0255545114053317));
#931=CARTESIAN_POINT('',(0.0135612398459894,0.0111612724114426,0.0252411516181891));
#932=CARTESIAN_POINT('',(0.0142818864291058,0.0105335838399221,0.0248414689891395));
#933=CARTESIAN_POINT('',(0.0153100160637081,0.0098672224776277,0.0242298668919481));
#934=CARTESIAN_POINT('',(0.0166616428183569,0.00927947496233589,0.0233353572346414));
#935=CARTESIAN_POINT('',(0.0182674133772315,0.00893364191074682,0.0221028421811759));
#936=CARTESIAN_POINT('',(0.0198150567400809,0.00899952559901592,0.0207266922408375));
#937=CARTESIAN_POINT('',(0.021203117215469,0.00960388171624736,0.0192989453223764));
#938=CARTESIAN_POINT('',(0.0222768200529591,0.0109292244497103,0.0180296590671114));
#939=CARTESIAN_POINT('',(0.0227132137089432,0.0129760736557623,0.0174600050846373));
#940=CARTESIAN_POINT('',(0.0222763800194584,0.0150335164781073,0.0180303219833861));
#941=CARTESIAN_POINT('',(0.0211983400574676,0.0163578983877456,0.0193042802498816));
#942=CARTESIAN_POINT('',(0.0198102531869841,0.0169600172009635,0.0207313363933217));
#943=CARTESIAN_POINT('',(0.0182609167327959,0.0170237640966757,0.0221080434953399));
#944=CARTESIAN_POINT('',(0.0166622023065841,0.016679051510902,0.0233349006687981));
#945=CARTESIAN_POINT('',(0.0153065399668549,0.0160892876779676,0.0242320653794161));
#946=CARTESIAN_POINT('',(0.0142799450278977,0.0154235454946147,0.02484259793309));
#947=CARTESIAN_POINT('',(0.0135561640110459,0.014791906566436,0.0252438733459657));
#948=CARTESIAN_POINT('',(0.0129564753373942,0.0140041932609473,0.0255546375023745));
#949=CARTESIAN_POINT('',(0.0126665265618969,0.0129797326203087,0.0256977127730734));
#950=CARTESIAN_POINT('',(0.0129567890052758,0.0119520772387918,0.0255545114053317));
#951=CARTESIAN_POINT('',(0.0127632284317096,0.0129792001634956,0.02565));
#952=CARTESIAN_POINT('',(0.,-0.0410227998365045,0.02865));
#953=CARTESIAN_POINT('',(0.,-0.0395207998365045,0.02865));
#954=CARTESIAN_POINT('',(0.,0.0174792001634956,0.02865));
#955=CARTESIAN_POINT('',(1.75430653977858E-18,-0.0395207998365045,0.));
#956=CARTESIAN_POINT('',(0.0226841905299704,-0.0395207998365045,0.0175));
#957=CARTESIAN_POINT('',(0.0226841905299704,-0.0410227998365045,0.0175));
#958=CARTESIAN_POINT('',(0.0226841905299704,0.0174792001634956,0.0175));
#959=CARTESIAN_POINT('',(1.75430653977858E-18,0.0174792001634956,0.));
#960=CARTESIAN_POINT('',(0.0129564753373942,-0.0360457929339562,0.0255546375023745));
#961=CARTESIAN_POINT('',(0.0126665265618968,-0.0350213322933176,0.0256977127730734));
#962=CARTESIAN_POINT('',(0.0129567890052758,-0.0339936769118007,0.0255545114053317));
#963=CARTESIAN_POINT('',(0.0135612398459894,-0.0332028720844515,0.0252411516181891));
#964=CARTESIAN_POINT('',(0.0142818864291058,-0.032575183512931,0.0248414689891395));
#965=CARTESIAN_POINT('',(0.015310016063708,-0.0319088221506366,0.0242298668919481));
#966=CARTESIAN_POINT('',(0.016661642818357,-0.0313210746353448,0.0233353572346414));
#967=CARTESIAN_POINT('',(0.0182674133772315,-0.0309752415837557,0.0221028421811759));
#968=CARTESIAN_POINT('',(0.0198150567400809,-0.0310411252720248,0.0207266922408375));
#969=CARTESIAN_POINT('',(0.021203117215469,-0.0316454813892563,0.0192989453223764));
#970=CARTESIAN_POINT('',(0.022276820052959,-0.0329708241227193,0.0180296590671114));
#971=CARTESIAN_POINT('',(0.0227132137089432,-0.0350176733287712,0.0174600050846373));
#972=CARTESIAN_POINT('',(0.0222763800194584,-0.0370751161511162,0.0180303219833862));
#973=CARTESIAN_POINT('',(0.0211983400574676,-0.0383994980607545,0.0193042802498816));
#974=CARTESIAN_POINT('',(0.019810253186984,-0.0390016168739724,0.0207313363933217));
#975=CARTESIAN_POINT('',(0.0182609167327959,-0.0390653637696846,0.0221080434953399));
#976=CARTESIAN_POINT('',(0.0166622023065841,-0.0387206511839109,0.0233349006687981));
#977=CARTESIAN_POINT('',(0.0153065399668549,-0.0381308873509765,0.0242320653794161));
#978=CARTESIAN_POINT('',(0.0142799450278977,-0.0374651451676236,0.02484259793309));
#979=CARTESIAN_POINT('',(0.0135561640110458,-0.0368335062394449,0.0252438733459657));
#980=CARTESIAN_POINT('',(0.0129564753373942,-0.0360457929339562,0.0255546375023745));
#981=CARTESIAN_POINT('',(0.0126665265618968,-0.0350213322933176,0.0256977127730734));
#982=CARTESIAN_POINT('',(0.0129567890052758,-0.0339936769118007,0.0255545114053317));
#983=CARTESIAN_POINT('',(0.0127632284317096,-0.0350207998365046,0.02565));
#984=CARTESIAN_POINT('',(0.,-0.0110207998365044,0.0175));
#985=CARTESIAN_POINT('',(0.,-0.0410207998365045,0.0175));
#986=CARTESIAN_POINT('',(0.,-0.0410207998365045,0.02715));
#987=CARTESIAN_POINT('',(-7.9602041944578E-19,-0.0410207998365045,0.013));
#988=CARTESIAN_POINT('',(1.75430653977858E-18,-0.0395207998365045,0.02715));
#989=CARTESIAN_POINT('',(1.75430653977858E-18,0.0174792001634956,0.02715));
#990=CARTESIAN_POINT('',(0.,0.0189792001634956,0.02715));
#991=CARTESIAN_POINT('',(0.,0.0189792001634956,0.0175));
#992=CARTESIAN_POINT('',(-7.9602041944578E-19,0.0189792001634956,0.013));
#993=CARTESIAN_POINT('',(-7.9602041944578E-19,-0.0410227998365045,0.013));
#994=CARTESIAN_POINT('',(0.,-0.0350207998365045,0.02165));
#995=CARTESIAN_POINT('',(0.,-0.0350207998365045,0.01945));
#996=CARTESIAN_POINT('',(0.,0.0129792001634956,0.02165));
#997=CARTESIAN_POINT('',(0.,0.0129792001634956,0.01945));
#998=CARTESIAN_POINT('',(0.,-0.0110207998365044,0.0175));
#999=CARTESIAN_POINT('',(1.75430653977858E-18,-0.0395207998365045,-0.02715));
#1000=CARTESIAN_POINT('',(0.,-0.0410207998365045,-0.02715));
#1001=CARTESIAN_POINT('',(0.,-0.0410207998365045,0.0175));
#1002=CARTESIAN_POINT('',(0.,-0.0410207998365045,-0.013));
#1003=CARTESIAN_POINT('',(0.,-0.0410227998365045,-0.013));
#1004=CARTESIAN_POINT('',(0.,0.0189792001634956,-0.013));
#1005=CARTESIAN_POINT('',(0.,0.0189792001634956,0.0175));
#1006=CARTESIAN_POINT('',(0.,0.0189792001634956,-0.02715));
#1007=CARTESIAN_POINT('',(1.75430653977858E-18,0.0174792001634956,-0.02715));
#1008=CARTESIAN_POINT('',(0.,0.0129792001634956,-0.02165));
#1009=CARTESIAN_POINT('',(0.,0.0129792001634956,-0.02385));
#1010=CARTESIAN_POINT('',(0.,-0.0350207998365045,-0.02165));
#1011=CARTESIAN_POINT('',(0.,-0.0350207998365045,-0.02385));
#1012=CARTESIAN_POINT('',(0.00875,-0.0410207998365045,0.0175));
#1013=CARTESIAN_POINT('',(0.0417359460024157,-0.0410207998365045,-5.70363353009096E-18));
#1014=CARTESIAN_POINT('',(0.0273217974570292,-0.0410207998365045,-2.09186284643947E-19));
#1015=CARTESIAN_POINT('',(0.00875,-0.0410207998365045,0.016));
#1016=CARTESIAN_POINT('',(0.0607627157638539,-0.0410207998365045,0.016));
#1017=CARTESIAN_POINT('',(0.0219345047812801,-0.0410207998365045,0.016));
#1018=CARTESIAN_POINT('',(1.75430653977858E-18,-0.0410207998365045,0.));
#1019=CARTESIAN_POINT('',(7.9602041944578E-19,-0.0410207998365045,0.));
#1020=CARTESIAN_POINT('',(1.75430653977858E-18,-0.0410207998365045,0.));
#1021=CARTESIAN_POINT('',(0.0219345047812801,-0.0410207998365045,-0.016));
#1022=CARTESIAN_POINT('',(0.0628555775707475,-0.0410207998365045,-0.016));
#1023=CARTESIAN_POINT('',(0.0607627157638539,-0.0410207998365045,-0.016));
#1024=CARTESIAN_POINT('',(0.0607627157638539,-0.0410207998365045,0.0175));
#1025=CARTESIAN_POINT('',(0.00875,0.0189792001634956,0.0175));
#1026=CARTESIAN_POINT('',(0.0226841905299704,0.0189792001634956,-0.016));
#1027=CARTESIAN_POINT('',(0.0414249170716438,0.0189792001634956,-0.016));
#1028=CARTESIAN_POINT('',(0.0219345047812801,0.0189792001634956,-0.016));
#1029=CARTESIAN_POINT('',(1.75430653977858E-18,0.0189792001634956,0.));
#1030=CARTESIAN_POINT('',(7.9602041944578E-19,0.0189792001634956,0.));
#1031=CARTESIAN_POINT('',(1.75430653977858E-18,0.0189792001634956,0.));
#1032=CARTESIAN_POINT('',(0.0219345047812801,0.0189792001634956,0.016));
#1033=CARTESIAN_POINT('',(0.00875,0.0189792001634956,0.016));
#1034=CARTESIAN_POINT('',(0.0414249170716438,0.0189792001634956,0.016));
#1035=CARTESIAN_POINT('',(0.0414249170716438,0.0189792001634956,0.0175));
#1036=CARTESIAN_POINT('',(0.0176936585333974,-0.0110207998365044,0.0175));
#1037=CARTESIAN_POINT('',(0.0176936585333974,-0.0395207998365045,0.0175));
#1038=CARTESIAN_POINT('',(0.0607627157638539,-0.0395207998365045,0.0175));
#1039=CARTESIAN_POINT('',(0.0476463488106921,-0.000859061329970379,0.0175));
#1040=CARTESIAN_POINT('',(0.0414249170716438,0.0174792001634956,0.0175));
#1041=CARTESIAN_POINT('',(0.0176936585333974,0.0174792001634956,0.0175));
#1042=CARTESIAN_POINT('',(0.0176936585333974,-0.0110207998365044,-0.0175));
#1043=CARTESIAN_POINT('',(0.0614350982454839,-0.0415027111213885,-0.0175));
#1044=CARTESIAN_POINT('',(0.0414249170716438,0.0174792001634956,-0.0175));
#1045=CARTESIAN_POINT('',(0.0607627157638539,-0.0395207998365045,-0.0175));
#1046=CARTESIAN_POINT('',(0.0226841905299704,-0.0395207998365045,-0.0175));
#1047=CARTESIAN_POINT('',(0.0425,0.0174792001634956,-0.0175));
#1048=CARTESIAN_POINT('',(0.0526777887853737,-0.0110207998365044,0.0175));
#1049=CARTESIAN_POINT('',(0.0621831950891175,-0.0390388885516203,0.0175));
#1050=CARTESIAN_POINT('',(0.0621831950891175,-0.0390388885516203,0.016));
#1051=CARTESIAN_POINT('',(0.0621831950891175,-0.0390388885516203,-0.016));
#1052=CARTESIAN_POINT('',(0.0425,0.0189792001634956,-0.016));
#1053=CARTESIAN_POINT('',(0.0428453963969074,0.0179611114483797,-0.016));
#1054=CARTESIAN_POINT('',(0.0428453963969074,0.0179611114483797,0.0175));
#1055=CARTESIAN_POINT('',(0.0428453963969074,0.0179611114483797,0.016));
#1056=CARTESIAN_POINT('',(0.0526777887853737,-0.0110207998365044,0.016));
#1057=CARTESIAN_POINT('',(0.0267730175623793,0.00308385419661676,0.006825));
#1058=CARTESIAN_POINT('',(0.0267730175623793,0.00308385419661677,2.31111593326469E-33));
#1059=CARTESIAN_POINT('',(0.0138466557024805,-0.00130153849582859,2.31111593326469E-33));
#1060=CARTESIAN_POINT('',(0.0428367270585162,-0.0442654566455035,-6.12323399573677E-18));
#1061=CARTESIAN_POINT('',(0.003,0.0129792001634956,-0.02165));
#1062=CARTESIAN_POINT('',(0.003,0.0129792001634956,-0.02165));
#1063=CARTESIAN_POINT('',(0.003,0.0129792001634956,-0.02385));
#1064=CARTESIAN_POINT('',(0.003,-0.0350207998365045,-0.02165));
#1065=CARTESIAN_POINT('',(0.003,-0.0350207998365045,-0.02165));
#1066=CARTESIAN_POINT('',(0.003,-0.0350207998365045,-0.02385));
#1067=CARTESIAN_POINT('',(0.003,-0.0350207998365045,0.02165));
#1068=CARTESIAN_POINT('',(0.003,-0.0350207998365045,0.02165));
#1069=CARTESIAN_POINT('',(0.003,-0.0350207998365045,0.01945));
#1070=CARTESIAN_POINT('',(0.003,0.0129792001634956,0.02165));
#1071=CARTESIAN_POINT('',(0.003,0.0129792001634956,0.02165));
#1072=CARTESIAN_POINT('',(0.003,0.0129792001634956,0.01945));
#1073=CARTESIAN_POINT('',(0.003,-0.0110207998365044,2.79138204711607E-5));
#1074=CARTESIAN_POINT('',(0.003,-0.0350207998365046,0.02165));
#1075=CARTESIAN_POINT('',(0.003,-0.0350207998365046,0.02565));
#1076=CARTESIAN_POINT('',(0.0226,-0.0350207998365046,0.02165));
#1077=CARTESIAN_POINT('',(0.0226,0.0129792001634956,0.02165));
#1078=CARTESIAN_POINT('',(0.003,0.0129792001634956,0.02165));
#1079=CARTESIAN_POINT('',(0.003,0.0129792001634956,0.02565));
#1080=CARTESIAN_POINT('',(0.003,-0.0110207998365044,2.79138204711607E-5));
#1081=CARTESIAN_POINT('',(0.003,-0.0110207998365044,2.79138204711607E-5));
#1082=CARTESIAN_POINT('',(0.003,0.0129792001634956,-0.02165));
#1083=CARTESIAN_POINT('',(0.003,0.0129792001634956,-0.01765));
#1084=CARTESIAN_POINT('',(0.0226,0.0129792001634956,-0.02165));
#1085=CARTESIAN_POINT('',(0.0226,-0.0350207998365046,-0.02165));
#1086=CARTESIAN_POINT('',(0.003,-0.0350207998365046,-0.02165));
#1087=CARTESIAN_POINT('',(0.003,-0.0350207998365046,-0.01765));
#1088=CARTESIAN_POINT('',(0.003,-0.0110207998365044,2.79138204711607E-5));
#1089=CARTESIAN_POINT('',(7.9602041944578E-19,-0.0410227998365045,0.));
#1090=CARTESIAN_POINT('',(1.75430653977858E-18,0.0174792001634956,0.));
#1091=CARTESIAN_POINT('',(0.0226841905299704,0.0174792001634956,-0.0175));
#1092=CARTESIAN_POINT('',(0.0226841905299704,0.0178995443056957,-0.0175));
#1093=CARTESIAN_POINT('',(0.0225011201302147,0.0186993412256915,-0.0171260703001825));
#1094=CARTESIAN_POINT('',(0.0221221326364915,0.0189792001634956,-0.0163691381530205));
#1095=CARTESIAN_POINT('',(0.0219345047812801,0.0189792001634956,-0.016));
#1096=CARTESIAN_POINT('',(0.0176936585333974,0.0174792001634956,-0.016));
#1097=CARTESIAN_POINT('',(0.0414249170716438,0.0174792001634956,-0.016));
#1098=CARTESIAN_POINT('',(1.75430653977858E-18,0.0174792001634956,0.));
#1099=CARTESIAN_POINT('',(0.0226841905299704,0.0174792001634956,0.0175));
#1100=CARTESIAN_POINT('',(0.0226841905299704,0.0178995443056957,0.0175));
#1101=CARTESIAN_POINT('',(0.0225011201302147,0.0186993412256915,0.0171260703001825));
#1102=CARTESIAN_POINT('',(0.0221221326364915,0.0189792001634956,0.0163691381530205));
#1103=CARTESIAN_POINT('',(0.0219345047812801,0.0189792001634956,0.016));
#1104=CARTESIAN_POINT('',(0.0414249170716438,0.0174792001634956,-0.016));
#1105=CARTESIAN_POINT('',(0.0414249170716438,0.0174792001634956,-0.016));
#1106=CARTESIAN_POINT('',(0.0414249170716438,0.0174792001634956,-0.016));
#1107=CARTESIAN_POINT('',(1.75430653977858E-18,-0.0395207998365045,0.));
#1108=CARTESIAN_POINT('',(0.0226841905299704,-0.0395207998365045,-0.0175));
#1109=CARTESIAN_POINT('',(0.0226841905299704,-0.0399411439787046,-0.0175));
#1110=CARTESIAN_POINT('',(0.0225011201302148,-0.0407409408987004,-0.0171260703001825));
#1111=CARTESIAN_POINT('',(0.0221221326364915,-0.0410207998365045,-0.0163691381530205));
#1112=CARTESIAN_POINT('',(0.0219345047812801,-0.0410207998365045,-0.016));
#1113=CARTESIAN_POINT('',(0.00875,0.0174792001634956,0.016));
#1114=CARTESIAN_POINT('',(0.0414249170716438,0.0174792001634956,0.016));
#1115=CARTESIAN_POINT('',(0.0414249170716438,0.0174792001634956,0.0175));
#1116=CARTESIAN_POINT('',(0.0414249170716438,0.0174792001634956,0.016));
#1117=CARTESIAN_POINT('',(0.0476463488106921,-0.000859061329970379,-0.016));
#1118=CARTESIAN_POINT('',(0.0607627157638539,-0.0395207998365045,-0.016));
#1119=CARTESIAN_POINT('',(0.0176936585333974,-0.0395207998365045,-0.016));
#1120=CARTESIAN_POINT('',(0.0607627157638539,-0.0395207998365045,-0.016));
#1121=CARTESIAN_POINT('',(0.0414249170716438,0.0174792001634956,0.016));
#1122=CARTESIAN_POINT('',(0.0414249170716438,0.0174792001634956,0.016));
#1123=CARTESIAN_POINT('',(0.0607627157638539,-0.0395207998365045,-0.016));
#1124=CARTESIAN_POINT('',(0.0607627157638539,-0.0395207998365045,-0.016));
#1125=CARTESIAN_POINT('',(0.0512573094601101,-0.0115027111213885,0.016));
#1126=CARTESIAN_POINT('',(0.0607627157638539,-0.0395207998365045,0.016));
#1127=CARTESIAN_POINT('',(0.0607627157638539,-0.0395207998365045,0.0175));
#1128=CARTESIAN_POINT('',(0.0607627157638539,-0.0395207998365045,0.016));
#1129=CARTESIAN_POINT('',(0.0607627157638539,-0.0395207998365045,0.016));
#1130=CARTESIAN_POINT('',(0.0607627157638539,-0.0395207998365045,0.016));
#1131=CARTESIAN_POINT('',(0.00875,-0.0395207998365045,0.016));
#1132=CARTESIAN_POINT('',(0.0226841905299704,-0.0395207998365045,0.0175));
#1133=CARTESIAN_POINT('',(0.0226841905299704,-0.0399411439787046,0.0175));
#1134=CARTESIAN_POINT('',(0.0225011201302148,-0.0407409408987004,0.0171260703001825));
#1135=CARTESIAN_POINT('',(0.0221221326364915,-0.0410207998365045,0.0163691381530205));
#1136=CARTESIAN_POINT('',(0.0219345047812801,-0.0410207998365045,0.016));
#1137=CARTESIAN_POINT('',(1.75430653977858E-18,-0.0395207998365045,0.));
#1138=MECHANICAL_DESIGN_GEOMETRIC_PRESENTATION_REPRESENTATION('',(#589),
#1139);
#1139=(
GEOMETRIC_REPRESENTATION_CONTEXT(3)
GLOBAL_UNCERTAINTY_ASSIGNED_CONTEXT((#1140))
GLOBAL_UNIT_ASSIGNED_CONTEXT((#1143,#1142,#1141))
REPRESENTATION_CONTEXT('Part 1','TOP_LEVEL_ASSEMBLY_PART')
);
#1140=UNCERTAINTY_MEASURE_WITH_UNIT(LENGTH_MEASURE(2.E-5),#1143,
'DISTANCE_ACCURACY_VALUE','Maximum Tolerance applied to model');
#1141=(
NAMED_UNIT(*)
SI_UNIT($,.STERADIAN.)
SOLID_ANGLE_UNIT()
);
#1142=(
NAMED_UNIT(*)
PLANE_ANGLE_UNIT()
SI_UNIT($,.RADIAN.)
);
#1143=(
LENGTH_UNIT()
NAMED_UNIT(*)
SI_UNIT($,.METRE.)
);
#1144=PRODUCT_DEFINITION_SHAPE('','',#1145);
#1145=PRODUCT_DEFINITION('','',#1147,#1146);
#1146=PRODUCT_DEFINITION_CONTEXT('',#1153,'design');
#1147=PRODUCT_DEFINITION_FORMATION_WITH_SPECIFIED_SOURCE('','',#1149,
 .NOT_KNOWN.);
#1148=PRODUCT_RELATED_PRODUCT_CATEGORY('','',(#1149));
#1149=PRODUCT('Part 1','Part 1','Part 1',(#1151));
#1150=PRODUCT_CATEGORY('','');
#1151=PRODUCT_CONTEXT('',#1153,'mechanical');
#1152=APPLICATION_PROTOCOL_DEFINITION('international standard',
'ap242_managed_model_based_3d_engineering',2020,#1153);
#1153=APPLICATION_CONTEXT('managed model based 3d engineering');
ENDSEC;
END-ISO-10303-21;
