ISO-10303-21;
HEADER;
/* Generated by software containing ST-Developer
 * from STEP Tools, Inc. (www.steptools.com) 
 */
/* OPTION: using custom renumber hook */

FILE_DESCRIPTION(
/* description */ ('STEP AP242 Edition 2',
'CAx-IF Rec.Pracs.---Representation and Presentation of Product Manufa
cturing Information (PMI)---4.0---2014-10-13',
'CAx-IF Rec.Pracs.---3D Tessellated Geometry---0.4---2014-09-14','2;1',
'CAx-IF Rec.Pracs.---User Defined Attributes---1.5---2016-08-15'),
/* implementation_level */ '2;1');

FILE_NAME(
/* name */ 'TowerLconnector',
/* time_stamp */ '2026-04-24T21:11:56Z',
/* author */ (''),
/* organization */ (''),
/* preprocessor_version */ 'ST-DEVELOPER v20',
/* originating_system */ 'ONSHAPE BY PTC INC, 1.214',
/* authorisation */ '  ');

FILE_SCHEMA (('AP242_MANAGED_MODEL_BASED_3D_ENGINEERING_MIM_LF { 1 0 10303 442 3 1 4 }'));
ENDSEC;

DATA;
#10=SHAPE_REPRESENTATION_RELATIONSHIP('','',#313,#11);
#11=ADVANCED_BREP_SHAPE_REPRESENTATION('',(#311),#507);
#12=ELLIPSE('',#327,0.0193040151263927,0.01365);
#13=CYLINDRICAL_SURFACE('',#326,0.01365);
#14=CYLINDRICAL_SURFACE('',#330,0.01365);
#15=CYLINDRICAL_SURFACE('',#338,0.01365);
#16=CIRCLE('',#321,0.01365);
#17=CIRCLE('',#325,0.01365);
#18=CIRCLE('',#328,0.01365);
#19=CIRCLE('',#331,0.01365);
#20=CIRCLE('',#335,0.01365);
#21=CIRCLE('',#339,0.01365);
#22=ORIENTED_EDGE('',*,*,#96,.F.);
#23=ORIENTED_EDGE('',*,*,#97,.F.);
#24=ORIENTED_EDGE('',*,*,#98,.F.);
#25=ORIENTED_EDGE('',*,*,#99,.F.);
#26=ORIENTED_EDGE('',*,*,#100,.F.);
#27=ORIENTED_EDGE('',*,*,#101,.T.);
#28=ORIENTED_EDGE('',*,*,#102,.F.);
#29=ORIENTED_EDGE('',*,*,#103,.F.);
#30=ORIENTED_EDGE('',*,*,#104,.T.);
#31=ORIENTED_EDGE('',*,*,#105,.T.);
#32=ORIENTED_EDGE('',*,*,#106,.T.);
#33=ORIENTED_EDGE('',*,*,#107,.T.);
#34=ORIENTED_EDGE('',*,*,#108,.T.);
#35=ORIENTED_EDGE('',*,*,#109,.T.);
#36=ORIENTED_EDGE('',*,*,#97,.T.);
#37=ORIENTED_EDGE('',*,*,#110,.T.);
#38=ORIENTED_EDGE('',*,*,#111,.F.);
#39=ORIENTED_EDGE('',*,*,#112,.F.);
#40=ORIENTED_EDGE('',*,*,#113,.T.);
#41=ORIENTED_EDGE('',*,*,#104,.F.);
#42=ORIENTED_EDGE('',*,*,#114,.F.);
#43=ORIENTED_EDGE('',*,*,#115,.T.);
#44=ORIENTED_EDGE('',*,*,#100,.T.);
#45=ORIENTED_EDGE('',*,*,#116,.T.);
#46=ORIENTED_EDGE('',*,*,#105,.F.);
#47=ORIENTED_EDGE('',*,*,#113,.F.);
#48=ORIENTED_EDGE('',*,*,#117,.T.);
#49=ORIENTED_EDGE('',*,*,#103,.T.);
#50=ORIENTED_EDGE('',*,*,#118,.T.);
#51=ORIENTED_EDGE('',*,*,#106,.F.);
#52=ORIENTED_EDGE('',*,*,#116,.F.);
#53=ORIENTED_EDGE('',*,*,#102,.T.);
#54=ORIENTED_EDGE('',*,*,#119,.T.);
#55=ORIENTED_EDGE('',*,*,#107,.F.);
#56=ORIENTED_EDGE('',*,*,#118,.F.);
#57=ORIENTED_EDGE('',*,*,#99,.T.);
#58=ORIENTED_EDGE('',*,*,#120,.T.);
#59=ORIENTED_EDGE('',*,*,#108,.F.);
#60=ORIENTED_EDGE('',*,*,#119,.F.);
#61=ORIENTED_EDGE('',*,*,#121,.T.);
#62=ORIENTED_EDGE('',*,*,#98,.T.);
#63=ORIENTED_EDGE('',*,*,#114,.T.);
#64=ORIENTED_EDGE('',*,*,#109,.F.);
#65=ORIENTED_EDGE('',*,*,#120,.F.);
#66=ORIENTED_EDGE('',*,*,#122,.T.);
#67=ORIENTED_EDGE('',*,*,#123,.T.);
#68=ORIENTED_EDGE('',*,*,#117,.F.);
#69=ORIENTED_EDGE('',*,*,#124,.T.);
#70=ORIENTED_EDGE('',*,*,#123,.F.);
#71=ORIENTED_EDGE('',*,*,#125,.T.);
#72=ORIENTED_EDGE('',*,*,#122,.F.);
#73=ORIENTED_EDGE('',*,*,#121,.F.);
#74=ORIENTED_EDGE('',*,*,#124,.F.);
#75=ORIENTED_EDGE('',*,*,#125,.F.);
#76=ORIENTED_EDGE('',*,*,#126,.F.);
#77=ORIENTED_EDGE('',*,*,#115,.F.);
#78=ORIENTED_EDGE('',*,*,#112,.T.);
#79=ORIENTED_EDGE('',*,*,#127,.T.);
#80=ORIENTED_EDGE('',*,*,#128,.F.);
#81=ORIENTED_EDGE('',*,*,#129,.F.);
#82=ORIENTED_EDGE('',*,*,#127,.F.);
#83=ORIENTED_EDGE('',*,*,#111,.T.);
#84=ORIENTED_EDGE('',*,*,#130,.T.);
#85=ORIENTED_EDGE('',*,*,#131,.T.);
#86=ORIENTED_EDGE('',*,*,#130,.F.);
#87=ORIENTED_EDGE('',*,*,#110,.F.);
#88=ORIENTED_EDGE('',*,*,#96,.T.);
#89=ORIENTED_EDGE('',*,*,#101,.F.);
#90=ORIENTED_EDGE('',*,*,#126,.T.);
#91=ORIENTED_EDGE('',*,*,#129,.T.);
#92=ORIENTED_EDGE('',*,*,#131,.F.);
#93=ORIENTED_EDGE('',*,*,#132,.F.);
#94=ORIENTED_EDGE('',*,*,#128,.T.);
#95=ORIENTED_EDGE('',*,*,#132,.T.);
#96=EDGE_CURVE('',#133,#134,#157,.T.);
#97=EDGE_CURVE('',#135,#133,#158,.T.);
#98=EDGE_CURVE('',#136,#135,#159,.T.);
#99=EDGE_CURVE('',#134,#136,#160,.T.);
#100=EDGE_CURVE('',#137,#138,#161,.T.);
#101=EDGE_CURVE('',#137,#134,#162,.T.);
#102=EDGE_CURVE('',#139,#134,#163,.T.);
#103=EDGE_CURVE('',#138,#139,#164,.T.);
#104=EDGE_CURVE('',#140,#141,#165,.T.);
#105=EDGE_CURVE('',#141,#142,#166,.T.);
#106=EDGE_CURVE('',#142,#143,#167,.T.);
#107=EDGE_CURVE('',#143,#144,#168,.T.);
#108=EDGE_CURVE('',#144,#145,#169,.T.);
#109=EDGE_CURVE('',#145,#140,#170,.T.);
#110=EDGE_CURVE('',#133,#146,#171,.T.);
#111=EDGE_CURVE('',#147,#146,#172,.T.);
#112=EDGE_CURVE('',#148,#147,#173,.T.);
#113=EDGE_CURVE('',#148,#141,#174,.T.);
#114=EDGE_CURVE('',#135,#140,#175,.T.);
#115=EDGE_CURVE('',#148,#137,#176,.T.);
#116=EDGE_CURVE('',#138,#142,#177,.T.);
#117=EDGE_CURVE('',#149,#149,#16,.T.);
#118=EDGE_CURVE('',#139,#143,#178,.T.);
#119=EDGE_CURVE('',#134,#144,#179,.T.);
#120=EDGE_CURVE('',#136,#145,#180,.T.);
#121=EDGE_CURVE('',#150,#150,#17,.T.);
#122=EDGE_CURVE('',#151,#152,#12,.T.);
#123=EDGE_CURVE('',#152,#151,#18,.T.);
#124=EDGE_CURVE('',#152,#151,#181,.T.);
#125=EDGE_CURVE('',#151,#152,#19,.T.);
#126=EDGE_CURVE('',#137,#153,#182,.T.);
#127=EDGE_CURVE('',#147,#153,#183,.T.);
#128=EDGE_CURVE('',#154,#154,#20,.T.);
#129=EDGE_CURVE('',#153,#155,#184,.T.);
#130=EDGE_CURVE('',#146,#155,#185,.T.);
#131=EDGE_CURVE('',#134,#155,#186,.T.);
#132=EDGE_CURVE('',#156,#156,#21,.T.);
#133=VERTEX_POINT('',#428);
#134=VERTEX_POINT('',#429);
#135=VERTEX_POINT('',#431);
#136=VERTEX_POINT('',#433);
#137=VERTEX_POINT('',#437);
#138=VERTEX_POINT('',#438);
#139=VERTEX_POINT('',#441);
#140=VERTEX_POINT('',#445);
#141=VERTEX_POINT('',#446);
#142=VERTEX_POINT('',#448);
#143=VERTEX_POINT('',#450);
#144=VERTEX_POINT('',#452);
#145=VERTEX_POINT('',#454);
#146=VERTEX_POINT('',#458);
#147=VERTEX_POINT('',#460);
#148=VERTEX_POINT('',#462);
#149=VERTEX_POINT('',#470);
#150=VERTEX_POINT('',#478);
#151=VERTEX_POINT('',#481);
#152=VERTEX_POINT('',#482);
#153=VERTEX_POINT('',#491);
#154=VERTEX_POINT('',#495);
#155=VERTEX_POINT('',#497);
#156=VERTEX_POINT('',#504);
#157=LINE('',#427,#187);
#158=LINE('',#430,#188);
#159=LINE('',#432,#189);
#160=LINE('',#434,#190);
#161=LINE('',#436,#191);
#162=LINE('',#439,#192);
#163=LINE('',#440,#193);
#164=LINE('',#442,#194);
#165=LINE('',#444,#195);
#166=LINE('',#447,#196);
#167=LINE('',#449,#197);
#168=LINE('',#451,#198);
#169=LINE('',#453,#199);
#170=LINE('',#455,#200);
#171=LINE('',#457,#201);
#172=LINE('',#459,#202);
#173=LINE('',#461,#203);
#174=LINE('',#463,#204);
#175=LINE('',#464,#205);
#176=LINE('',#466,#206);
#177=LINE('',#467,#207);
#178=LINE('',#471,#208);
#179=LINE('',#473,#209);
#180=LINE('',#475,#210);
#181=LINE('',#485,#211);
#182=LINE('',#490,#212);
#183=LINE('',#492,#213);
#184=LINE('',#496,#214);
#185=LINE('',#498,#215);
#186=LINE('',#500,#216);
#187=VECTOR('',#345,1.);
#188=VECTOR('',#346,1.);
#189=VECTOR('',#347,1.);
#190=VECTOR('',#348,1.);
#191=VECTOR('',#351,1.);
#192=VECTOR('',#352,1.);
#193=VECTOR('',#353,1.);
#194=VECTOR('',#354,1.);
#195=VECTOR('',#357,1.);
#196=VECTOR('',#358,1.);
#197=VECTOR('',#359,1.);
#198=VECTOR('',#360,1.);
#199=VECTOR('',#361,1.);
#200=VECTOR('',#362,1.);
#201=VECTOR('',#365,1.);
#202=VECTOR('',#366,1.);
#203=VECTOR('',#367,1.);
#204=VECTOR('',#368,1.);
#205=VECTOR('',#369,1.);
#206=VECTOR('',#372,1.);
#207=VECTOR('',#373,1.);
#208=VECTOR('',#378,1.);
#209=VECTOR('',#381,1.);
#210=VECTOR('',#384,1.);
#211=VECTOR('',#397,1.);
#212=VECTOR('',#406,1.);
#213=VECTOR('',#407,1.);
#214=VECTOR('',#412,1.);
#215=VECTOR('',#413,1.);
#216=VECTOR('',#416,1.);
#217=EDGE_LOOP('',(#22,#23,#24,#25));
#218=EDGE_LOOP('',(#26,#27,#28,#29));
#219=EDGE_LOOP('',(#30,#31,#32,#33,#34,#35));
#220=EDGE_LOOP('',(#36,#37,#38,#39,#40,#41,#42));
#221=EDGE_LOOP('',(#43,#44,#45,#46,#47));
#222=EDGE_LOOP('',(#48));
#223=EDGE_LOOP('',(#49,#50,#51,#52));
#224=EDGE_LOOP('',(#53,#54,#55,#56));
#225=EDGE_LOOP('',(#57,#58,#59,#60));
#226=EDGE_LOOP('',(#61));
#227=EDGE_LOOP('',(#62,#63,#64,#65));
#228=EDGE_LOOP('',(#66,#67));
#229=EDGE_LOOP('',(#68));
#230=EDGE_LOOP('',(#69,#70));
#231=EDGE_LOOP('',(#71,#72));
#232=EDGE_LOOP('',(#73));
#233=EDGE_LOOP('',(#74,#75));
#234=EDGE_LOOP('',(#76,#77,#78,#79));
#235=EDGE_LOOP('',(#80));
#236=EDGE_LOOP('',(#81,#82,#83,#84));
#237=EDGE_LOOP('',(#85,#86,#87,#88));
#238=EDGE_LOOP('',(#89,#90,#91,#92));
#239=EDGE_LOOP('',(#93));
#240=EDGE_LOOP('',(#94));
#241=EDGE_LOOP('',(#95));
#242=FACE_BOUND('',#217,.T.);
#243=FACE_BOUND('',#218,.T.);
#244=FACE_BOUND('',#219,.T.);
#245=FACE_BOUND('',#220,.T.);
#246=FACE_BOUND('',#221,.T.);
#247=FACE_BOUND('',#222,.T.);
#248=FACE_BOUND('',#223,.T.);
#249=FACE_BOUND('',#224,.T.);
#250=FACE_BOUND('',#225,.T.);
#251=FACE_BOUND('',#226,.T.);
#252=FACE_BOUND('',#227,.T.);
#253=FACE_BOUND('',#228,.T.);
#254=FACE_BOUND('',#229,.T.);
#255=FACE_BOUND('',#230,.T.);
#256=FACE_BOUND('',#231,.T.);
#257=FACE_BOUND('',#232,.T.);
#258=FACE_BOUND('',#233,.T.);
#259=FACE_BOUND('',#234,.T.);
#260=FACE_BOUND('',#235,.T.);
#261=FACE_BOUND('',#236,.T.);
#262=FACE_BOUND('',#237,.T.);
#263=FACE_BOUND('',#238,.T.);
#264=FACE_BOUND('',#239,.T.);
#265=FACE_BOUND('',#240,.T.);
#266=FACE_BOUND('',#241,.T.);
#267=PLANE('',#315);
#268=PLANE('',#316);
#269=PLANE('',#317);
#270=PLANE('',#318);
#271=PLANE('',#319);
#272=PLANE('',#320);
#273=PLANE('',#322);
#274=PLANE('',#323);
#275=PLANE('',#324);
#276=PLANE('',#329);
#277=PLANE('',#332);
#278=PLANE('',#333);
#279=PLANE('',#334);
#280=PLANE('',#336);
#281=PLANE('',#337);
#282=PLANE('',#340);
#283=ADVANCED_FACE('',(#242),#267,.F.);
#284=ADVANCED_FACE('',(#243),#268,.F.);
#285=ADVANCED_FACE('',(#244),#269,.T.);
#286=ADVANCED_FACE('',(#245),#270,.T.);
#287=ADVANCED_FACE('',(#246),#271,.T.);
#288=ADVANCED_FACE('',(#247,#248),#272,.T.);
#289=ADVANCED_FACE('',(#249),#273,.T.);
#290=ADVANCED_FACE('',(#250),#274,.T.);
#291=ADVANCED_FACE('',(#251,#252),#275,.T.);
#292=ADVANCED_FACE('',(#253,#254),#13,.F.);
#293=ADVANCED_FACE('',(#255),#276,.T.);
#294=ADVANCED_FACE('',(#256,#257),#14,.F.);
#295=ADVANCED_FACE('',(#258),#277,.T.);
#296=ADVANCED_FACE('',(#259),#278,.T.);
#297=ADVANCED_FACE('',(#260,#261),#279,.T.);
#298=ADVANCED_FACE('',(#262),#280,.F.);
#299=ADVANCED_FACE('',(#263),#281,.T.);
#300=ADVANCED_FACE('',(#264,#265),#15,.F.);
#301=ADVANCED_FACE('',(#266),#282,.T.);
#302=CLOSED_SHELL('',(#283,#284,#285,#286,#287,#288,#289,#290,#291,#292,
#293,#294,#295,#296,#297,#298,#299,#300,#301));
#303=STYLED_ITEM('',(#304),#311);
#304=PRESENTATION_STYLE_ASSIGNMENT((#305));
#305=SURFACE_STYLE_USAGE(.BOTH.,#306);
#306=SURFACE_SIDE_STYLE('',(#307));
#307=SURFACE_STYLE_FILL_AREA(#308);
#308=FILL_AREA_STYLE('',(#309));
#309=FILL_AREA_STYLE_COLOUR('',#310);
#310=COLOUR_RGB('',0.627450980392157,0.627450980392157,0.627450980392157);
#311=MANIFOLD_SOLID_BREP('TowerLconnector v1',#302);
#312=SHAPE_DEFINITION_REPRESENTATION(#512,#313);
#313=SHAPE_REPRESENTATION('TowerLconnector v1',(#314),#507);
#314=AXIS2_PLACEMENT_3D('',#425,#341,#342);
#315=AXIS2_PLACEMENT_3D('',#426,#343,#344);
#316=AXIS2_PLACEMENT_3D('',#435,#349,#350);
#317=AXIS2_PLACEMENT_3D('',#443,#355,#356);
#318=AXIS2_PLACEMENT_3D('',#456,#363,#364);
#319=AXIS2_PLACEMENT_3D('',#465,#370,#371);
#320=AXIS2_PLACEMENT_3D('',#468,#374,#375);
#321=AXIS2_PLACEMENT_3D('',#469,#376,#377);
#322=AXIS2_PLACEMENT_3D('',#472,#379,#380);
#323=AXIS2_PLACEMENT_3D('',#474,#382,#383);
#324=AXIS2_PLACEMENT_3D('',#476,#385,#386);
#325=AXIS2_PLACEMENT_3D('',#477,#387,#388);
#326=AXIS2_PLACEMENT_3D('',#479,#389,#390);
#327=AXIS2_PLACEMENT_3D('',#480,#391,#392);
#328=AXIS2_PLACEMENT_3D('',#483,#393,#394);
#329=AXIS2_PLACEMENT_3D('',#484,#395,#396);
#330=AXIS2_PLACEMENT_3D('',#486,#398,#399);
#331=AXIS2_PLACEMENT_3D('',#487,#400,#401);
#332=AXIS2_PLACEMENT_3D('',#488,#402,#403);
#333=AXIS2_PLACEMENT_3D('',#489,#404,#405);
#334=AXIS2_PLACEMENT_3D('',#493,#408,#409);
#335=AXIS2_PLACEMENT_3D('',#494,#410,#411);
#336=AXIS2_PLACEMENT_3D('',#499,#414,#415);
#337=AXIS2_PLACEMENT_3D('',#501,#417,#418);
#338=AXIS2_PLACEMENT_3D('',#502,#419,#420);
#339=AXIS2_PLACEMENT_3D('',#503,#421,#422);
#340=AXIS2_PLACEMENT_3D('',#505,#423,#424);
#341=DIRECTION('',(0.,0.,1.));
#342=DIRECTION('',(1.,0.,0.));
#343=DIRECTION('',(0.,1.,0.));
#344=DIRECTION('',(1.,0.,0.));
#345=DIRECTION('',(1.,0.,0.));
#346=DIRECTION('',(0.,0.,1.));
#347=DIRECTION('',(-1.,0.,0.));
#348=DIRECTION('',(0.,0.,-1.));
#349=DIRECTION('',(0.,1.,0.));
#350=DIRECTION('',(1.,0.,0.));
#351=DIRECTION('',(1.,0.,0.));
#352=DIRECTION('',(0.,7.43452918275775E-17,-1.));
#353=DIRECTION('',(-1.,0.,-5.32907051820075E-16));
#354=DIRECTION('',(0.,0.,-1.));
#355=DIRECTION('',(0.,1.,0.));
#356=DIRECTION('',(0.,0.,1.));
#357=DIRECTION('',(0.,0.,1.));
#358=DIRECTION('',(1.,0.,0.));
#359=DIRECTION('',(0.,0.,-1.));
#360=DIRECTION('',(-1.,0.,-5.32907051820075E-16));
#361=DIRECTION('',(0.,0.,-1.));
#362=DIRECTION('',(-1.,0.,0.));
#363=DIRECTION('',(-1.,0.,0.));
#364=DIRECTION('',(0.,0.,1.));
#365=DIRECTION('',(0.,-0.946978700315083,-0.32129634474976));
#366=DIRECTION('',(0.,0.32129634474976,-0.946978700315083));
#367=DIRECTION('',(0.,-0.946978700315083,-0.32129634474976));
#368=DIRECTION('',(0.,1.,0.));
#369=DIRECTION('',(0.,1.,0.));
#370=DIRECTION('',(0.,0.,1.));
#371=DIRECTION('',(1.,0.,0.));
#372=DIRECTION('',(1.,0.,0.));
#373=DIRECTION('',(0.,1.,0.));
#374=DIRECTION('',(1.,0.,0.));
#375=DIRECTION('',(0.,0.,-1.));
#376=DIRECTION('',(-1.,0.,0.));
#377=DIRECTION('',(0.,0.,-1.));
#378=DIRECTION('',(0.,1.,0.));
#379=DIRECTION('',(0.,0.,-1.));
#380=DIRECTION('',(-1.,0.,0.));
#381=DIRECTION('',(0.,1.,0.));
#382=DIRECTION('',(1.,0.,0.));
#383=DIRECTION('',(0.,0.,-1.));
#384=DIRECTION('',(0.,1.,0.));
#385=DIRECTION('',(0.,0.,-1.));
#386=DIRECTION('',(-1.,0.,0.));
#387=DIRECTION('',(0.,0.,1.));
#388=DIRECTION('',(-1.,0.,0.));
#389=DIRECTION('',(-1.,0.,0.));
#390=DIRECTION('',(0.,0.,-1.));
#391=DIRECTION('',(-0.707106781186548,0.,-0.707106781186548));
#392=DIRECTION('',(-0.707106781186548,0.,0.707106781186548));
#393=DIRECTION('',(-1.,0.,0.));
#394=DIRECTION('',(0.,0.,-1.));
#395=DIRECTION('',(1.,0.,0.));
#396=DIRECTION('',(0.,0.,-1.));
#397=DIRECTION('',(0.,1.,0.));
#398=DIRECTION('',(0.,0.,1.));
#399=DIRECTION('',(-1.,0.,0.));
#400=DIRECTION('',(0.,0.,1.));
#401=DIRECTION('',(-1.,0.,0.));
#402=DIRECTION('',(0.,0.,-1.));
#403=DIRECTION('',(-1.,0.,0.));
#404=DIRECTION('',(0.,-0.32129634474976,0.946978700315083));
#405=DIRECTION('',(0.,-0.946978700315083,-0.32129634474976));
#406=DIRECTION('',(0.,-0.946978700315083,-0.32129634474976));
#407=DIRECTION('',(1.,0.,0.));
#408=DIRECTION('',(0.,-0.946978700315082,-0.32129634474976));
#409=DIRECTION('',(0.,0.32129634474976,-0.946978700315083));
#410=DIRECTION('',(0.,-0.946978700315083,-0.32129634474976));
#411=DIRECTION('',(0.,0.32129634474976,-0.946978700315083));
#412=DIRECTION('',(0.,0.32129634474976,-0.946978700315083));
#413=DIRECTION('',(1.,0.,0.));
#414=DIRECTION('',(0.,-0.32129634474976,0.946978700315083));
#415=DIRECTION('',(0.,-0.946978700315083,-0.32129634474976));
#416=DIRECTION('',(0.,-0.946978700315083,-0.32129634474976));
#417=DIRECTION('',(1.,0.,0.));
#418=DIRECTION('',(0.,1.,0.));
#419=DIRECTION('',(0.,-0.946978700315083,-0.32129634474976));
#420=DIRECTION('',(0.,0.32129634474976,-0.946978700315083));
#421=DIRECTION('',(0.,-0.946978700315083,-0.32129634474976));
#422=DIRECTION('',(0.,0.32129634474976,-0.946978700315083));
#423=DIRECTION('',(0.,-0.946978700315083,-0.32129634474976));
#424=DIRECTION('',(1.,0.,0.));
#425=CARTESIAN_POINT('',(0.,0.,0.));
#426=CARTESIAN_POINT('',(0.03,0.,-0.03));
#427=CARTESIAN_POINT('',(0.,2.60208521396521E-17,-0.035));
#428=CARTESIAN_POINT('',(0.,1.30104260698261E-17,-0.035));
#429=CARTESIAN_POINT('',(0.035,2.60208521396521E-17,-0.035));
#430=CARTESIAN_POINT('',(0.,0.,-0.06));
#431=CARTESIAN_POINT('',(0.,0.,-0.06));
#432=CARTESIAN_POINT('',(0.035,0.,-0.06));
#433=CARTESIAN_POINT('',(0.035,0.,-0.06));
#434=CARTESIAN_POINT('',(0.035,0.,-0.035));
#435=CARTESIAN_POINT('',(0.03,0.,-0.03));
#436=CARTESIAN_POINT('',(0.,0.,0.));
#437=CARTESIAN_POINT('',(0.035,3.46944695195361E-18,0.));
#438=CARTESIAN_POINT('',(0.06,0.,0.));
#439=CARTESIAN_POINT('',(0.035,8.23993651088983E-18,-0.0175));
#440=CARTESIAN_POINT('',(0.06,0.,-0.035));
#441=CARTESIAN_POINT('',(0.06,0.,-0.035));
#442=CARTESIAN_POINT('',(0.06,0.,0.));
#443=CARTESIAN_POINT('',(0.03,0.035,-0.03));
#444=CARTESIAN_POINT('',(0.,0.035,-0.06));
#445=CARTESIAN_POINT('',(0.,0.035,-0.06));
#446=CARTESIAN_POINT('',(0.,0.035,0.));
#447=CARTESIAN_POINT('',(0.,0.035,0.));
#448=CARTESIAN_POINT('',(0.06,0.035,0.));
#449=CARTESIAN_POINT('',(0.06,0.035,0.));
#450=CARTESIAN_POINT('',(0.06,0.035,-0.035));
#451=CARTESIAN_POINT('',(0.06,0.035,-0.035));
#452=CARTESIAN_POINT('',(0.035,0.035,-0.035));
#453=CARTESIAN_POINT('',(0.035,0.035,-0.035));
#454=CARTESIAN_POINT('',(0.035,0.035,-0.06));
#455=CARTESIAN_POINT('',(0.035,0.035,-0.06));
#456=CARTESIAN_POINT('',(0.,0.,-0.06));
#457=CARTESIAN_POINT('',(0.,-0.0183499035959526,-0.0412258601486267));
#458=CARTESIAN_POINT('',(0.,-0.0366998071919051,-0.0474517202972535));
#459=CARTESIAN_POINT('',(0.,-0.0420243711038297,-0.0317582687673707));
#460=CARTESIAN_POINT('',(0.,-0.0473489350157541,-0.016064817237488));
#461=CARTESIAN_POINT('',(0.,-0.0236744675078771,-0.00803240861874401));
#462=CARTESIAN_POINT('',(0.,0.,0.));
#463=CARTESIAN_POINT('',(0.,0.,0.));
#464=CARTESIAN_POINT('',(0.,0.,-0.06));
#465=CARTESIAN_POINT('',(0.,0.,0.));
#466=CARTESIAN_POINT('',(0.,0.,0.));
#467=CARTESIAN_POINT('',(0.06,0.,0.));
#468=CARTESIAN_POINT('',(0.06,0.,0.));
#469=CARTESIAN_POINT('',(0.06,0.0175,-0.0175));
#470=CARTESIAN_POINT('',(0.06,0.0175,-0.03115));
#471=CARTESIAN_POINT('',(0.06,0.,-0.035));
#472=CARTESIAN_POINT('',(0.06,0.,-0.035));
#473=CARTESIAN_POINT('',(0.035,0.,-0.035));
#474=CARTESIAN_POINT('',(0.035,0.,-0.035));
#475=CARTESIAN_POINT('',(0.035,0.,-0.06));
#476=CARTESIAN_POINT('',(0.035,0.,-0.06));
#477=CARTESIAN_POINT('',(0.0175,0.0175,-0.06));
#478=CARTESIAN_POINT('',(0.00385,0.0175,-0.06));
#479=CARTESIAN_POINT('',(0.06,0.0175,-0.0175));
#480=CARTESIAN_POINT('',(0.0175,0.0175,-0.0175));
#481=CARTESIAN_POINT('',(0.03,0.0229838398955476,-0.03));
#482=CARTESIAN_POINT('',(0.03,0.0120161601044524,-0.03));
#483=CARTESIAN_POINT('',(0.03,0.0175,-0.0175));
#484=CARTESIAN_POINT('',(0.03,0.0175,-0.0175));
#485=CARTESIAN_POINT('',(0.03,0.0175,-0.03));
#486=CARTESIAN_POINT('',(0.0175,0.0175,-0.06));
#487=CARTESIAN_POINT('',(0.0175,0.0175,-0.03));
#488=CARTESIAN_POINT('',(0.0175,0.0175,-0.03));
#489=CARTESIAN_POINT('',(0.,-0.0236744675078771,-0.00803240861874401));
#490=CARTESIAN_POINT('',(0.035,-0.0236744675078771,-0.00803240861874401));
#491=CARTESIAN_POINT('',(0.035,-0.0473489350157541,-0.016064817237488));
#492=CARTESIAN_POINT('',(0.,-0.0473489350157541,-0.016064817237488));
#493=CARTESIAN_POINT('',(0.,-0.0420243711038297,-0.0317582687673707));
#494=CARTESIAN_POINT('',(0.0175,-0.0420243711038297,-0.0317582687673708));
#495=CARTESIAN_POINT('',(0.0175,-0.0376386759979954,-0.0446845280266717));
#496=CARTESIAN_POINT('',(0.035,-0.0420243711038297,-0.0317582687673707));
#497=CARTESIAN_POINT('',(0.035,-0.0366998071919051,-0.0474517202972535));
#498=CARTESIAN_POINT('',(0.,-0.0366998071919051,-0.0474517202972535));
#499=CARTESIAN_POINT('',(0.,-0.0183499035959526,-0.0412258601486267));
#500=CARTESIAN_POINT('',(0.035,-0.0183499035959526,-0.0412258601486267));
#501=CARTESIAN_POINT('',(0.035,-0.0236744675078771,-0.0237258601486267));
#502=CARTESIAN_POINT('',(0.0175,-0.0036717337410688,-0.0187457668050055));
#503=CARTESIAN_POINT('',(0.0175,-0.0036717337410688,-0.0187457668050055));
#504=CARTESIAN_POINT('',(0.0175,0.00071396136476543,-0.0316720260643064));
#505=CARTESIAN_POINT('',(0.0175,-0.0036717337410688,-0.0187457668050055));
#506=MECHANICAL_DESIGN_GEOMETRIC_PRESENTATION_REPRESENTATION('',(#303),
#507);
#507=(
GEOMETRIC_REPRESENTATION_CONTEXT(3)
GLOBAL_UNCERTAINTY_ASSIGNED_CONTEXT((#508))
GLOBAL_UNIT_ASSIGNED_CONTEXT((#511,#510,#509))
REPRESENTATION_CONTEXT('TowerLconnector v1','TOP_LEVEL_ASSEMBLY_PART')
);
#508=UNCERTAINTY_MEASURE_WITH_UNIT(LENGTH_MEASURE(1.E-6),#511,
'DISTANCE_ACCURACY_VALUE','Maximum Tolerance applied to model');
#509=(
NAMED_UNIT(*)
SI_UNIT($,.STERADIAN.)
SOLID_ANGLE_UNIT()
);
#510=(
NAMED_UNIT(*)
PLANE_ANGLE_UNIT()
SI_UNIT($,.RADIAN.)
);
#511=(
LENGTH_UNIT()
NAMED_UNIT(*)
SI_UNIT($,.METRE.)
);
#512=PRODUCT_DEFINITION_SHAPE('','',#513);
#513=PRODUCT_DEFINITION('','',#515,#514);
#514=PRODUCT_DEFINITION_CONTEXT('',#521,'design');
#515=PRODUCT_DEFINITION_FORMATION_WITH_SPECIFIED_SOURCE('','',#517,
 .NOT_KNOWN.);
#516=PRODUCT_RELATED_PRODUCT_CATEGORY('','',(#517));
#517=PRODUCT('TowerLconnector v1','TowerLconnector v1',
'TowerLconnector v1',(#519));
#518=PRODUCT_CATEGORY('','');
#519=PRODUCT_CONTEXT('',#521,'mechanical');
#520=APPLICATION_PROTOCOL_DEFINITION('international standard',
'ap242_managed_model_based_3d_engineering',2020,#521);
#521=APPLICATION_CONTEXT('managed model based 3d engineering');
ENDSEC;
END-ISO-10303-21;
